<?xml version="1.0" encoding="utf-8" standalone="no"?>
<!DOCTYPE svg PUBLIC "-//W3C//DTD SVG 1.1//EN"
  "http://www.w3.org/Graphics/SVG/1.1/DTD/svg11.dtd">
<svg xmlns:xlink="http://www.w3.org/1999/xlink" width="864pt" height="360pt" viewBox="0 0 864 360" xmlns="http://www.w3.org/2000/svg" version="1.1">
 <metadata>
  <rdf:RDF xmlns:dc="http://purl.org/dc/elements/1.1/" xmlns:cc="http://creativecommons.org/ns#" xmlns:rdf="http://www.w3.org/1999/02/22-rdf-syntax-ns#">
   <cc:Work>
    <dc:type rdf:resource="http://purl.org/dc/dcmitype/StillImage"/>
    <dc:date>2024-03-20T20:05:16.725181</dc:date>
    <dc:format>image/svg+xml</dc:format>
    <dc:creator>
     <cc:Agent>
      <dc:title>Matplotlib v3.8.3, https://matplotlib.org/</dc:title>
     </cc:Agent>
    </dc:creator>
   </cc:Work>
  </rdf:RDF>
 </metadata>
 <defs>
  <style type="text/css">*{stroke-linejoin: round; stroke-linecap: butt}</style>
 </defs>
 <g id="figure_1">
  <g id="patch_1">
   <path d="M 0 360 
L 864 360 
L 864 0 
L 0 0 
L 0 360 
z
" style="fill: none; opacity: 0"/>
  </g>
  <g id="axes_1">
   <g id="patch_2">
    <path d="M 108 320.4 
L 777.6 320.4 
L 777.6 43.2 
L 108 43.2 
L 108 320.4 
z
" style="fill: none; opacity: 0"/>
   </g>
   <g id="matplotlib.axis_1">
    <g id="xtick_1">
     <g id="line2d_1">
      <path d="M 162.910965 320.4 
L 162.910965 43.2 
" clip-path="url(#p5150b90d06)" style="fill: none; stroke-dasharray: 5.12,1.28,0.8,1.28; stroke-dashoffset: 0; stroke: #b0b0b0; stroke-width: 0.8"/>
     </g>
     <g id="line2d_2">
      <defs>
       <path id="m47ae1c2ac1" d="M 0 0 
L 0 3.5 
" style="stroke: #a9a9a9; stroke-width: 0.8"/>
      </defs>
      <g>
       <use xlink:href="#m47ae1c2ac1" x="162.910965" y="320.4" style="fill: #a9a9a9; stroke: #a9a9a9; stroke-width: 0.8"/>
      </g>
     </g>
     <g id="text_1">
      <!-- 2021-09 -->
      <g style="fill: #a9a9a9" transform="translate(142.019559 334.998438) scale(0.1 -0.1)">
       <defs>
        <path id="DejaVuSans-32" d="M 1228 531 
L 3431 531 
L 3431 0 
L 469 0 
L 469 531 
Q 828 903 1448 1529 
Q 2069 2156 2228 2338 
Q 2531 2678 2651 2914 
Q 2772 3150 2772 3378 
Q 2772 3750 2511 3984 
Q 2250 4219 1831 4219 
Q 1534 4219 1204 4116 
Q 875 4013 500 3803 
L 500 4441 
Q 881 4594 1212 4672 
Q 1544 4750 1819 4750 
Q 2544 4750 2975 4387 
Q 3406 4025 3406 3419 
Q 3406 3131 3298 2873 
Q 3191 2616 2906 2266 
Q 2828 2175 2409 1742 
Q 1991 1309 1228 531 
z
" transform="scale(0.015625)"/>
        <path id="DejaVuSans-30" d="M 2034 4250 
Q 1547 4250 1301 3770 
Q 1056 3291 1056 2328 
Q 1056 1369 1301 889 
Q 1547 409 2034 409 
Q 2525 409 2770 889 
Q 3016 1369 3016 2328 
Q 3016 3291 2770 3770 
Q 2525 4250 2034 4250 
z
M 2034 4750 
Q 2819 4750 3233 4129 
Q 3647 3509 3647 2328 
Q 3647 1150 3233 529 
Q 2819 -91 2034 -91 
Q 1250 -91 836 529 
Q 422 1150 422 2328 
Q 422 3509 836 4129 
Q 1250 4750 2034 4750 
z
" transform="scale(0.015625)"/>
        <path id="DejaVuSans-31" d="M 794 531 
L 1825 531 
L 1825 4091 
L 703 3866 
L 703 4441 
L 1819 4666 
L 2450 4666 
L 2450 531 
L 3481 531 
L 3481 0 
L 794 0 
L 794 531 
z
" transform="scale(0.015625)"/>
        <path id="DejaVuSans-2d" d="M 313 2009 
L 1997 2009 
L 1997 1497 
L 313 1497 
L 313 2009 
z
" transform="scale(0.015625)"/>
        <path id="DejaVuSans-39" d="M 703 97 
L 703 672 
Q 941 559 1184 500 
Q 1428 441 1663 441 
Q 2288 441 2617 861 
Q 2947 1281 2994 2138 
Q 2813 1869 2534 1725 
Q 2256 1581 1919 1581 
Q 1219 1581 811 2004 
Q 403 2428 403 3163 
Q 403 3881 828 4315 
Q 1253 4750 1959 4750 
Q 2769 4750 3195 4129 
Q 3622 3509 3622 2328 
Q 3622 1225 3098 567 
Q 2575 -91 1691 -91 
Q 1453 -91 1209 -44 
Q 966 3 703 97 
z
M 1959 2075 
Q 2384 2075 2632 2365 
Q 2881 2656 2881 3163 
Q 2881 3666 2632 3958 
Q 2384 4250 1959 4250 
Q 1534 4250 1286 3958 
Q 1038 3666 1038 3163 
Q 1038 2656 1286 2365 
Q 1534 2075 1959 2075 
z
" transform="scale(0.015625)"/>
       </defs>
       <use xlink:href="#DejaVuSans-32"/>
       <use xlink:href="#DejaVuSans-30" x="63.623047"/>
       <use xlink:href="#DejaVuSans-32" x="127.246094"/>
       <use xlink:href="#DejaVuSans-31" x="190.869141"/>
       <use xlink:href="#DejaVuSans-2d" x="254.492188"/>
       <use xlink:href="#DejaVuSans-30" x="290.576172"/>
       <use xlink:href="#DejaVuSans-39" x="354.199219"/>
      </g>
     </g>
    </g>
    <g id="xtick_2">
     <g id="line2d_3">
      <path d="M 239.47254 320.4 
L 239.47254 43.2 
" clip-path="url(#p5150b90d06)" style="fill: none; stroke-dasharray: 5.12,1.28,0.8,1.28; stroke-dashoffset: 0; stroke: #b0b0b0; stroke-width: 0.8"/>
     </g>
     <g id="line2d_4">
      <g>
       <use xlink:href="#m47ae1c2ac1" x="239.47254" y="320.4" style="fill: #a9a9a9; stroke: #a9a9a9; stroke-width: 0.8"/>
      </g>
     </g>
     <g id="text_2">
      <!-- 2022-01 -->
      <g style="fill: #a9a9a9" transform="translate(218.581134 334.998438) scale(0.1 -0.1)">
       <use xlink:href="#DejaVuSans-32"/>
       <use xlink:href="#DejaVuSans-30" x="63.623047"/>
       <use xlink:href="#DejaVuSans-32" x="127.246094"/>
       <use xlink:href="#DejaVuSans-32" x="190.869141"/>
       <use xlink:href="#DejaVuSans-2d" x="254.492188"/>
       <use xlink:href="#DejaVuSans-30" x="290.576172"/>
       <use xlink:href="#DejaVuSans-31" x="354.199219"/>
      </g>
     </g>
    </g>
    <g id="xtick_3">
     <g id="line2d_5">
      <path d="M 314.779007 320.4 
L 314.779007 43.2 
" clip-path="url(#p5150b90d06)" style="fill: none; stroke-dasharray: 5.12,1.28,0.8,1.28; stroke-dashoffset: 0; stroke: #b0b0b0; stroke-width: 0.8"/>
     </g>
     <g id="line2d_6">
      <g>
       <use xlink:href="#m47ae1c2ac1" x="314.779007" y="320.4" style="fill: #a9a9a9; stroke: #a9a9a9; stroke-width: 0.8"/>
      </g>
     </g>
     <g id="text_3">
      <!-- 2022-05 -->
      <g style="fill: #a9a9a9" transform="translate(293.8876 334.998438) scale(0.1 -0.1)">
       <defs>
        <path id="DejaVuSans-35" d="M 691 4666 
L 3169 4666 
L 3169 4134 
L 1269 4134 
L 1269 2991 
Q 1406 3038 1543 3061 
Q 1681 3084 1819 3084 
Q 2600 3084 3056 2656 
Q 3513 2228 3513 1497 
Q 3513 744 3044 326 
Q 2575 -91 1722 -91 
Q 1428 -91 1123 -41 
Q 819 9 494 109 
L 494 744 
Q 775 591 1075 516 
Q 1375 441 1709 441 
Q 2250 441 2565 725 
Q 2881 1009 2881 1497 
Q 2881 1984 2565 2268 
Q 2250 2553 1709 2553 
Q 1456 2553 1204 2497 
Q 953 2441 691 2322 
L 691 4666 
z
" transform="scale(0.015625)"/>
       </defs>
       <use xlink:href="#DejaVuSans-32"/>
       <use xlink:href="#DejaVuSans-30" x="63.623047"/>
       <use xlink:href="#DejaVuSans-32" x="127.246094"/>
       <use xlink:href="#DejaVuSans-32" x="190.869141"/>
       <use xlink:href="#DejaVuSans-2d" x="254.492188"/>
       <use xlink:href="#DejaVuSans-30" x="290.576172"/>
       <use xlink:href="#DejaVuSans-35" x="354.199219"/>
      </g>
     </g>
    </g>
    <g id="xtick_4">
     <g id="line2d_7">
      <path d="M 391.968135 320.4 
L 391.968135 43.2 
" clip-path="url(#p5150b90d06)" style="fill: none; stroke-dasharray: 5.12,1.28,0.8,1.28; stroke-dashoffset: 0; stroke: #b0b0b0; stroke-width: 0.8"/>
     </g>
     <g id="line2d_8">
      <g>
       <use xlink:href="#m47ae1c2ac1" x="391.968135" y="320.4" style="fill: #a9a9a9; stroke: #a9a9a9; stroke-width: 0.8"/>
      </g>
     </g>
     <g id="text_4">
      <!-- 2022-09 -->
      <g style="fill: #a9a9a9" transform="translate(371.076729 334.998438) scale(0.1 -0.1)">
       <use xlink:href="#DejaVuSans-32"/>
       <use xlink:href="#DejaVuSans-30" x="63.623047"/>
       <use xlink:href="#DejaVuSans-32" x="127.246094"/>
       <use xlink:href="#DejaVuSans-32" x="190.869141"/>
       <use xlink:href="#DejaVuSans-2d" x="254.492188"/>
       <use xlink:href="#DejaVuSans-30" x="290.576172"/>
       <use xlink:href="#DejaVuSans-39" x="354.199219"/>
      </g>
     </g>
    </g>
    <g id="xtick_5">
     <g id="line2d_9">
      <path d="M 468.529709 320.4 
L 468.529709 43.2 
" clip-path="url(#p5150b90d06)" style="fill: none; stroke-dasharray: 5.12,1.28,0.8,1.28; stroke-dashoffset: 0; stroke: #b0b0b0; stroke-width: 0.8"/>
     </g>
     <g id="line2d_10">
      <g>
       <use xlink:href="#m47ae1c2ac1" x="468.529709" y="320.4" style="fill: #a9a9a9; stroke: #a9a9a9; stroke-width: 0.8"/>
      </g>
     </g>
     <g id="text_5">
      <!-- 2023-01 -->
      <g style="fill: #a9a9a9" transform="translate(447.638303 334.998438) scale(0.1 -0.1)">
       <defs>
        <path id="DejaVuSans-33" d="M 2597 2516 
Q 3050 2419 3304 2112 
Q 3559 1806 3559 1356 
Q 3559 666 3084 287 
Q 2609 -91 1734 -91 
Q 1441 -91 1130 -33 
Q 819 25 488 141 
L 488 750 
Q 750 597 1062 519 
Q 1375 441 1716 441 
Q 2309 441 2620 675 
Q 2931 909 2931 1356 
Q 2931 1769 2642 2001 
Q 2353 2234 1838 2234 
L 1294 2234 
L 1294 2753 
L 1863 2753 
Q 2328 2753 2575 2939 
Q 2822 3125 2822 3475 
Q 2822 3834 2567 4026 
Q 2313 4219 1838 4219 
Q 1578 4219 1281 4162 
Q 984 4106 628 3988 
L 628 4550 
Q 988 4650 1302 4700 
Q 1616 4750 1894 4750 
Q 2613 4750 3031 4423 
Q 3450 4097 3450 3541 
Q 3450 3153 3228 2886 
Q 3006 2619 2597 2516 
z
" transform="scale(0.015625)"/>
       </defs>
       <use xlink:href="#DejaVuSans-32"/>
       <use xlink:href="#DejaVuSans-30" x="63.623047"/>
       <use xlink:href="#DejaVuSans-32" x="127.246094"/>
       <use xlink:href="#DejaVuSans-33" x="190.869141"/>
       <use xlink:href="#DejaVuSans-2d" x="254.492188"/>
       <use xlink:href="#DejaVuSans-30" x="290.576172"/>
       <use xlink:href="#DejaVuSans-31" x="354.199219"/>
      </g>
     </g>
    </g>
    <g id="xtick_6">
     <g id="line2d_11">
      <path d="M 543.836176 320.4 
L 543.836176 43.2 
" clip-path="url(#p5150b90d06)" style="fill: none; stroke-dasharray: 5.12,1.28,0.8,1.28; stroke-dashoffset: 0; stroke: #b0b0b0; stroke-width: 0.8"/>
     </g>
     <g id="line2d_12">
      <g>
       <use xlink:href="#m47ae1c2ac1" x="543.836176" y="320.4" style="fill: #a9a9a9; stroke: #a9a9a9; stroke-width: 0.8"/>
      </g>
     </g>
     <g id="text_6">
      <!-- 2023-05 -->
      <g style="fill: #a9a9a9" transform="translate(522.94477 334.998438) scale(0.1 -0.1)">
       <use xlink:href="#DejaVuSans-32"/>
       <use xlink:href="#DejaVuSans-30" x="63.623047"/>
       <use xlink:href="#DejaVuSans-32" x="127.246094"/>
       <use xlink:href="#DejaVuSans-33" x="190.869141"/>
       <use xlink:href="#DejaVuSans-2d" x="254.492188"/>
       <use xlink:href="#DejaVuSans-30" x="290.576172"/>
       <use xlink:href="#DejaVuSans-35" x="354.199219"/>
      </g>
     </g>
    </g>
    <g id="xtick_7">
     <g id="line2d_13">
      <path d="M 621.025305 320.4 
L 621.025305 43.2 
" clip-path="url(#p5150b90d06)" style="fill: none; stroke-dasharray: 5.12,1.28,0.8,1.28; stroke-dashoffset: 0; stroke: #b0b0b0; stroke-width: 0.8"/>
     </g>
     <g id="line2d_14">
      <g>
       <use xlink:href="#m47ae1c2ac1" x="621.025305" y="320.4" style="fill: #a9a9a9; stroke: #a9a9a9; stroke-width: 0.8"/>
      </g>
     </g>
     <g id="text_7">
      <!-- 2023-09 -->
      <g style="fill: #a9a9a9" transform="translate(600.133898 334.998438) scale(0.1 -0.1)">
       <use xlink:href="#DejaVuSans-32"/>
       <use xlink:href="#DejaVuSans-30" x="63.623047"/>
       <use xlink:href="#DejaVuSans-32" x="127.246094"/>
       <use xlink:href="#DejaVuSans-33" x="190.869141"/>
       <use xlink:href="#DejaVuSans-2d" x="254.492188"/>
       <use xlink:href="#DejaVuSans-30" x="290.576172"/>
       <use xlink:href="#DejaVuSans-39" x="354.199219"/>
      </g>
     </g>
    </g>
    <g id="xtick_8">
     <g id="line2d_15">
      <path d="M 697.586879 320.4 
L 697.586879 43.2 
" clip-path="url(#p5150b90d06)" style="fill: none; stroke-dasharray: 5.12,1.28,0.8,1.28; stroke-dashoffset: 0; stroke: #b0b0b0; stroke-width: 0.8"/>
     </g>
     <g id="line2d_16">
      <g>
       <use xlink:href="#m47ae1c2ac1" x="697.586879" y="320.4" style="fill: #a9a9a9; stroke: #a9a9a9; stroke-width: 0.8"/>
      </g>
     </g>
     <g id="text_8">
      <!-- 2024-01 -->
      <g style="fill: #a9a9a9" transform="translate(676.695473 334.998438) scale(0.1 -0.1)">
       <defs>
        <path id="DejaVuSans-34" d="M 2419 4116 
L 825 1625 
L 2419 1625 
L 2419 4116 
z
M 2253 4666 
L 3047 4666 
L 3047 1625 
L 3713 1625 
L 3713 1100 
L 3047 1100 
L 3047 0 
L 2419 0 
L 2419 1100 
L 313 1100 
L 313 1709 
L 2253 4666 
z
" transform="scale(0.015625)"/>
       </defs>
       <use xlink:href="#DejaVuSans-32"/>
       <use xlink:href="#DejaVuSans-30" x="63.623047"/>
       <use xlink:href="#DejaVuSans-32" x="127.246094"/>
       <use xlink:href="#DejaVuSans-34" x="190.869141"/>
       <use xlink:href="#DejaVuSans-2d" x="254.492188"/>
       <use xlink:href="#DejaVuSans-30" x="290.576172"/>
       <use xlink:href="#DejaVuSans-31" x="354.199219"/>
      </g>
     </g>
    </g>
    <g id="xtick_9">
     <g id="line2d_17">
      <path d="M 773.5209 320.4 
L 773.5209 43.2 
" clip-path="url(#p5150b90d06)" style="fill: none; stroke-dasharray: 5.12,1.28,0.8,1.28; stroke-dashoffset: 0; stroke: #b0b0b0; stroke-width: 0.8"/>
     </g>
     <g id="line2d_18">
      <g>
       <use xlink:href="#m47ae1c2ac1" x="773.5209" y="320.4" style="fill: #a9a9a9; stroke: #a9a9a9; stroke-width: 0.8"/>
      </g>
     </g>
     <g id="text_9">
      <!-- 2024-05 -->
      <g style="fill: #a9a9a9" transform="translate(752.629493 334.998438) scale(0.1 -0.1)">
       <use xlink:href="#DejaVuSans-32"/>
       <use xlink:href="#DejaVuSans-30" x="63.623047"/>
       <use xlink:href="#DejaVuSans-32" x="127.246094"/>
       <use xlink:href="#DejaVuSans-34" x="190.869141"/>
       <use xlink:href="#DejaVuSans-2d" x="254.492188"/>
       <use xlink:href="#DejaVuSans-30" x="290.576172"/>
       <use xlink:href="#DejaVuSans-35" x="354.199219"/>
      </g>
     </g>
    </g>
   </g>
   <g id="matplotlib.axis_2">
    <g id="ytick_1">
     <g id="line2d_19">
      <path d="M 108 307.843508 
L 777.6 307.843508 
" clip-path="url(#p5150b90d06)" style="fill: none; stroke-dasharray: 5.12,1.28,0.8,1.28; stroke-dashoffset: 0; stroke: #b0b0b0; stroke-width: 0.8"/>
     </g>
     <g id="line2d_20">
      <defs>
       <path id="m6af88b617f" d="M 0 0 
L -3.5 0 
" style="stroke: #a9a9a9; stroke-width: 0.8"/>
      </defs>
      <g>
       <use xlink:href="#m6af88b617f" x="108" y="307.843508" style="fill: #a9a9a9; stroke: #a9a9a9; stroke-width: 0.8"/>
      </g>
     </g>
     <g id="text_10">
      <!-- 0 -->
      <g style="fill: #a9a9a9" transform="translate(94.6375 311.642727) scale(0.1 -0.1)">
       <use xlink:href="#DejaVuSans-30"/>
      </g>
     </g>
    </g>
    <g id="ytick_2">
     <g id="line2d_21">
      <path d="M 108 273.036878 
L 777.6 273.036878 
" clip-path="url(#p5150b90d06)" style="fill: none; stroke-dasharray: 5.12,1.28,0.8,1.28; stroke-dashoffset: 0; stroke: #b0b0b0; stroke-width: 0.8"/>
     </g>
     <g id="line2d_22">
      <g>
       <use xlink:href="#m6af88b617f" x="108" y="273.036878" style="fill: #a9a9a9; stroke: #a9a9a9; stroke-width: 0.8"/>
      </g>
     </g>
     <g id="text_11">
      <!-- 800 -->
      <g style="fill: #a9a9a9" transform="translate(81.9125 276.836097) scale(0.1 -0.1)">
       <defs>
        <path id="DejaVuSans-38" d="M 2034 2216 
Q 1584 2216 1326 1975 
Q 1069 1734 1069 1313 
Q 1069 891 1326 650 
Q 1584 409 2034 409 
Q 2484 409 2743 651 
Q 3003 894 3003 1313 
Q 3003 1734 2745 1975 
Q 2488 2216 2034 2216 
z
M 1403 2484 
Q 997 2584 770 2862 
Q 544 3141 544 3541 
Q 544 4100 942 4425 
Q 1341 4750 2034 4750 
Q 2731 4750 3128 4425 
Q 3525 4100 3525 3541 
Q 3525 3141 3298 2862 
Q 3072 2584 2669 2484 
Q 3125 2378 3379 2068 
Q 3634 1759 3634 1313 
Q 3634 634 3220 271 
Q 2806 -91 2034 -91 
Q 1263 -91 848 271 
Q 434 634 434 1313 
Q 434 1759 690 2068 
Q 947 2378 1403 2484 
z
M 1172 3481 
Q 1172 3119 1398 2916 
Q 1625 2713 2034 2713 
Q 2441 2713 2670 2916 
Q 2900 3119 2900 3481 
Q 2900 3844 2670 4047 
Q 2441 4250 2034 4250 
Q 1625 4250 1398 4047 
Q 1172 3844 1172 3481 
z
" transform="scale(0.015625)"/>
       </defs>
       <use xlink:href="#DejaVuSans-38"/>
       <use xlink:href="#DejaVuSans-30" x="63.623047"/>
       <use xlink:href="#DejaVuSans-30" x="127.246094"/>
      </g>
     </g>
    </g>
    <g id="ytick_3">
     <g id="line2d_23">
      <path d="M 108 238.230249 
L 777.6 238.230249 
" clip-path="url(#p5150b90d06)" style="fill: none; stroke-dasharray: 5.12,1.28,0.8,1.28; stroke-dashoffset: 0; stroke: #b0b0b0; stroke-width: 0.8"/>
     </g>
     <g id="line2d_24">
      <g>
       <use xlink:href="#m6af88b617f" x="108" y="238.230249" style="fill: #a9a9a9; stroke: #a9a9a9; stroke-width: 0.8"/>
      </g>
     </g>
     <g id="text_12">
      <!-- 1600 -->
      <g style="fill: #a9a9a9" transform="translate(75.55 242.029467) scale(0.1 -0.1)">
       <defs>
        <path id="DejaVuSans-36" d="M 2113 2584 
Q 1688 2584 1439 2293 
Q 1191 2003 1191 1497 
Q 1191 994 1439 701 
Q 1688 409 2113 409 
Q 2538 409 2786 701 
Q 3034 994 3034 1497 
Q 3034 2003 2786 2293 
Q 2538 2584 2113 2584 
z
M 3366 4563 
L 3366 3988 
Q 3128 4100 2886 4159 
Q 2644 4219 2406 4219 
Q 1781 4219 1451 3797 
Q 1122 3375 1075 2522 
Q 1259 2794 1537 2939 
Q 1816 3084 2150 3084 
Q 2853 3084 3261 2657 
Q 3669 2231 3669 1497 
Q 3669 778 3244 343 
Q 2819 -91 2113 -91 
Q 1303 -91 875 529 
Q 447 1150 447 2328 
Q 447 3434 972 4092 
Q 1497 4750 2381 4750 
Q 2619 4750 2861 4703 
Q 3103 4656 3366 4563 
z
" transform="scale(0.015625)"/>
       </defs>
       <use xlink:href="#DejaVuSans-31"/>
       <use xlink:href="#DejaVuSans-36" x="63.623047"/>
       <use xlink:href="#DejaVuSans-30" x="127.246094"/>
       <use xlink:href="#DejaVuSans-30" x="190.869141"/>
      </g>
     </g>
    </g>
    <g id="ytick_4">
     <g id="line2d_25">
      <path d="M 108 203.423619 
L 777.6 203.423619 
" clip-path="url(#p5150b90d06)" style="fill: none; stroke-dasharray: 5.12,1.28,0.8,1.28; stroke-dashoffset: 0; stroke: #b0b0b0; stroke-width: 0.8"/>
     </g>
     <g id="line2d_26">
      <g>
       <use xlink:href="#m6af88b617f" x="108" y="203.423619" style="fill: #a9a9a9; stroke: #a9a9a9; stroke-width: 0.8"/>
      </g>
     </g>
     <g id="text_13">
      <!-- 2400 -->
      <g style="fill: #a9a9a9" transform="translate(75.55 207.222838) scale(0.1 -0.1)">
       <use xlink:href="#DejaVuSans-32"/>
       <use xlink:href="#DejaVuSans-34" x="63.623047"/>
       <use xlink:href="#DejaVuSans-30" x="127.246094"/>
       <use xlink:href="#DejaVuSans-30" x="190.869141"/>
      </g>
     </g>
    </g>
    <g id="ytick_5">
     <g id="line2d_27">
      <path d="M 108 168.616989 
L 777.6 168.616989 
" clip-path="url(#p5150b90d06)" style="fill: none; stroke-dasharray: 5.12,1.28,0.8,1.28; stroke-dashoffset: 0; stroke: #b0b0b0; stroke-width: 0.8"/>
     </g>
     <g id="line2d_28">
      <g>
       <use xlink:href="#m6af88b617f" x="108" y="168.616989" style="fill: #a9a9a9; stroke: #a9a9a9; stroke-width: 0.8"/>
      </g>
     </g>
     <g id="text_14">
      <!-- 3200 -->
      <g style="fill: #a9a9a9" transform="translate(75.55 172.416208) scale(0.1 -0.1)">
       <use xlink:href="#DejaVuSans-33"/>
       <use xlink:href="#DejaVuSans-32" x="63.623047"/>
       <use xlink:href="#DejaVuSans-30" x="127.246094"/>
       <use xlink:href="#DejaVuSans-30" x="190.869141"/>
      </g>
     </g>
    </g>
    <g id="ytick_6">
     <g id="line2d_29">
      <path d="M 108 133.810359 
L 777.6 133.810359 
" clip-path="url(#p5150b90d06)" style="fill: none; stroke-dasharray: 5.12,1.28,0.8,1.28; stroke-dashoffset: 0; stroke: #b0b0b0; stroke-width: 0.8"/>
     </g>
     <g id="line2d_30">
      <g>
       <use xlink:href="#m6af88b617f" x="108" y="133.810359" style="fill: #a9a9a9; stroke: #a9a9a9; stroke-width: 0.8"/>
      </g>
     </g>
     <g id="text_15">
      <!-- 4000 -->
      <g style="fill: #a9a9a9" transform="translate(75.55 137.609578) scale(0.1 -0.1)">
       <use xlink:href="#DejaVuSans-34"/>
       <use xlink:href="#DejaVuSans-30" x="63.623047"/>
       <use xlink:href="#DejaVuSans-30" x="127.246094"/>
       <use xlink:href="#DejaVuSans-30" x="190.869141"/>
      </g>
     </g>
    </g>
    <g id="ytick_7">
     <g id="line2d_31">
      <path d="M 108 99.003729 
L 777.6 99.003729 
" clip-path="url(#p5150b90d06)" style="fill: none; stroke-dasharray: 5.12,1.28,0.8,1.28; stroke-dashoffset: 0; stroke: #b0b0b0; stroke-width: 0.8"/>
     </g>
     <g id="line2d_32">
      <g>
       <use xlink:href="#m6af88b617f" x="108" y="99.003729" style="fill: #a9a9a9; stroke: #a9a9a9; stroke-width: 0.8"/>
      </g>
     </g>
     <g id="text_16">
      <!-- 4800 -->
      <g style="fill: #a9a9a9" transform="translate(75.55 102.802948) scale(0.1 -0.1)">
       <use xlink:href="#DejaVuSans-34"/>
       <use xlink:href="#DejaVuSans-38" x="63.623047"/>
       <use xlink:href="#DejaVuSans-30" x="127.246094"/>
       <use xlink:href="#DejaVuSans-30" x="190.869141"/>
      </g>
     </g>
    </g>
    <g id="ytick_8">
     <g id="line2d_33">
      <path d="M 108 64.197099 
L 777.6 64.197099 
" clip-path="url(#p5150b90d06)" style="fill: none; stroke-dasharray: 5.12,1.28,0.8,1.28; stroke-dashoffset: 0; stroke: #b0b0b0; stroke-width: 0.8"/>
     </g>
     <g id="line2d_34">
      <g>
       <use xlink:href="#m6af88b617f" x="108" y="64.197099" style="fill: #a9a9a9; stroke: #a9a9a9; stroke-width: 0.8"/>
      </g>
     </g>
     <g id="text_17">
      <!-- 5600 -->
      <g style="fill: #a9a9a9" transform="translate(75.55 67.996318) scale(0.1 -0.1)">
       <use xlink:href="#DejaVuSans-35"/>
       <use xlink:href="#DejaVuSans-36" x="63.623047"/>
       <use xlink:href="#DejaVuSans-30" x="127.246094"/>
       <use xlink:href="#DejaVuSans-30" x="190.869141"/>
      </g>
     </g>
    </g>
   </g>
   <g id="line2d_35">
    <path d="M 138.436364 307.712983 
L 142.201687 307.408425 
L 142.829241 307.147376 
L 144.711903 306.929834 
L 148.477226 306.190193 
L 152.242549 305.885635 
L 152.870103 305.581077 
L 153.497657 305.407044 
L 154.125211 304.623895 
L 154.752765 304.188812 
L 155.380319 302.840055 
L 156.007873 302.753039 
L 156.635426 302.274448 
L 157.890534 301.665331 
L 160.40075 299.750967 
L 161.655858 299.228867 
L 162.283411 298.793785 
L 164.793627 297.706077 
L 165.421181 296.748895 
L 166.676289 295.878729 
L 167.303843 295.574171 
L 173.579381 294.704006 
L 174.206935 294.399448 
L 178.599813 294.051381 
L 180.482474 293.57279 
L 186.130459 292.833149 
L 186.758013 292.485083 
L 187.385567 292.398066 
L 188.013121 292.137017 
L 189.268229 291.919475 
L 189.895783 291.875967 
L 191.15089 291.614917 
L 191.778444 291.571409 
L 194.28866 290.962293 
L 196.171321 290.78826 
L 197.426429 290.657735 
L 198.053983 290.483702 
L 198.681537 290.440193 
L 200.564199 289.874586 
L 204.329522 289.308978 
L 204.957076 289.134945 
L 205.58463 288.308287 
L 207.467291 287.612155 
L 209.349953 287.090055 
L 209.977507 286.785497 
L 210.605061 286.741989 
L 213.74283 285.871823 
L 214.997938 285.784807 
L 215.625492 285.69779 
L 217.508154 285.132182 
L 220.018369 284.523066 
L 220.645923 284.262017 
L 221.273477 284.175 
L 221.901031 283.870442 
L 228.17657 282.91326 
L 231.314339 282.043094 
L 231.941893 281.651519 
L 234.452109 280.998895 
L 235.707216 280.259254 
L 236.33477 279.824171 
L 238.217432 279.476105 
L 241.982755 278.34489 
L 243.237863 277.953315 
L 243.865417 277.866298 
L 245.120525 277.518232 
L 246.375633 277.213674 
L 247.003187 277.126657 
L 248.258294 276.604558 
L 248.885848 276.474033 
L 249.513402 276.212983 
L 250.140956 276.125967 
L 250.76851 275.821409 
L 251.396064 275.647376 
L 252.651172 275.560359 
L 253.906279 275.125276 
L 255.161387 275.03826 
L 255.788941 274.733702 
L 258.299157 274.298619 
L 260.809372 274.081077 
L 261.436926 273.950552 
L 262.692034 273.341436 
L 269.595127 270.426381 
L 270.22268 270.078315 
L 270.850234 269.382182 
L 271.477788 268.337983 
L 272.105342 267.511326 
L 272.732896 267.337293 
L 273.36045 267.337293 
L 274.615558 266.423619 
L 275.243112 266.249586 
L 275.870665 265.901519 
L 276.498219 265.770994 
L 277.125773 265.205387 
L 277.753327 265.031354 
L 279.635989 264.11768 
L 280.891097 262.377348 
L 281.51865 261.985773 
L 282.146204 260.941575 
L 282.773758 260.28895 
L 283.401312 259.984392 
L 284.028866 259.810359 
L 286.539082 258.331077 
L 287.794189 257.330387 
L 288.421743 256.938812 
L 289.049297 256.025138 
L 289.676851 254.589365 
L 290.304405 253.675691 
L 290.931959 253.197099 
L 291.559513 252.93605 
L 294.069728 250.760635 
L 295.324836 249.759945 
L 295.95239 249.237845 
L 296.579944 248.411188 
L 297.835052 247.323481 
L 300.345267 245.713674 
L 300.972821 245.148066 
L 301.600375 245.017541 
L 302.227929 244.756492 
L 304.11059 243.712293 
L 305.365698 243.103177 
L 306.620806 241.928453 
L 307.24836 241.188812 
L 308.503468 240.318646 
L 309.131022 240.144613 
L 309.758575 239.840055 
L 311.013683 239.013398 
L 311.641237 238.665331 
L 312.268791 238.578315 
L 317.916776 235.184669 
L 318.54433 234.967127 
L 320.426992 233.748895 
L 322.309653 233.183287 
L 322.937207 232.748204 
L 323.564761 232.61768 
L 324.819869 232.182597 
L 326.70253 231.442956 
L 328.585192 230.746823 
L 329.8403 230.529282 
L 331.095408 229.441575 
L 332.350515 228.832459 
L 333.605623 228.136326 
L 334.233177 227.78826 
L 335.488285 227.440193 
L 336.115839 227.048619 
L 336.743393 226.874586 
L 338.626054 225.699862 
L 341.763824 224.960221 
L 343.646485 223.872514 
L 344.274039 223.785497 
L 344.901593 223.567956 
L 346.156701 223.306906 
L 348.039363 221.914641 
L 349.922024 221.479558 
L 350.549578 221.262017 
L 351.177132 220.783425 
L 354.942455 219.565193 
L 355.570009 219.521685 
L 356.197563 219.347652 
L 357.452671 218.825552 
L 361.845548 217.302762 
L 363.100656 217.128729 
L 363.72821 216.954696 
L 364.355764 216.650138 
L 364.983318 216.519613 
L 366.865979 215.649448 
L 368.748641 214.735773 
L 369.376195 214.300691 
L 370.003749 214.126657 
L 371.88641 213.125967 
L 373.141518 212.821409 
L 374.396626 212.168785 
L 375.651734 211.820718 
L 376.279288 211.733702 
L 377.534396 210.994061 
L 378.161949 210.863536 
L 379.417057 210.341436 
L 380.044611 210.210912 
L 380.672165 209.862845 
L 383.182381 209.471271 
L 384.437488 208.862155 
L 385.065042 208.340055 
L 385.692596 207.252348 
L 386.947704 206.991298 
L 387.575258 206.860773 
L 390.085473 205.555525 
L 390.713027 205.425 
L 395.733458 203.032044 
L 397.61612 202.64047 
L 398.243674 202.292403 
L 402.008997 200.987155 
L 403.264105 200.204006 
L 404.519213 199.464365 
L 405.146767 199.377348 
L 405.774321 199.159807 
L 406.401874 199.116298 
L 409.539644 198.289641 
L 410.167198 197.81105 
L 411.422306 197.375967 
L 413.304967 196.766851 
L 413.932521 196.375276 
L 414.560075 196.201243 
L 415.187629 195.76616 
L 415.815183 195.50511 
L 417.070291 194.852486 
L 419.580506 194.069337 
L 420.20806 193.764779 
L 422.090722 192.329006 
L 422.718276 192.198481 
L 423.973383 191.241298 
L 424.600937 191.110773 
L 425.228491 190.153591 
L 425.856045 189.892541 
L 426.483599 189.41395 
L 427.111153 189.326934 
L 428.366261 188.587293 
L 428.993814 188.456768 
L 429.621368 188.195718 
L 430.248922 187.717127 
L 430.876476 187.499586 
L 432.759138 186.237845 
L 435.269353 184.976105 
L 435.896907 184.889088 
L 437.152015 184.323481 
L 437.779569 183.975414 
L 438.407123 182.931215 
L 439.034677 182.365608 
L 439.662231 182.017541 
L 440.289784 181.887017 
L 441.544892 181.103867 
L 442.172446 180.973343 
L 443.427554 180.364227 
L 445.310216 179.581077 
L 446.565323 178.710912 
L 447.820431 177.405663 
L 450.958201 175.143232 
L 452.213308 174.099033 
L 452.840862 173.837983 
L 453.468416 173.141851 
L 454.09597 172.66326 
L 455.351078 172.228177 
L 456.606186 171.401519 
L 457.233739 171.096961 
L 457.861293 170.922928 
L 458.488847 170.487845 
L 459.116401 170.35732 
L 460.999063 169.35663 
L 462.254171 168.616989 
L 468.529709 166.398066 
L 469.157263 165.832459 
L 471.039925 165.136326 
L 472.295033 164.744751 
L 472.922587 164.26616 
L 475.432802 162.960912 
L 476.060356 162.612845 
L 477.315464 160.176381 
L 478.570572 158.697099 
L 479.825679 157.957459 
L 481.708341 157.217818 
L 482.335895 157.130801 
L 482.963449 156.782735 
L 484.846111 156.217127 
L 487.356326 155.085912 
L 487.98388 154.694337 
L 489.238988 154.259254 
L 493.004311 152.08384 
L 493.631865 151.431215 
L 494.886973 150.778591 
L 495.514527 150.430525 
L 496.142081 150.212983 
L 496.769634 149.777901 
L 498.024742 149.168785 
L 499.907404 148.168094 
L 500.534958 147.994061 
L 501.162512 147.51547 
L 501.790066 147.25442 
L 502.417619 147.123895 
L 503.672727 146.688812 
L 505.555389 145.99268 
L 506.182943 145.557597 
L 507.438051 145.20953 
L 508.693158 144.730939 
L 509.320712 144.252348 
L 510.57582 143.860773 
L 511.203374 143.556215 
L 511.830928 143.382182 
L 513.086036 142.512017 
L 514.341143 141.946409 
L 515.596251 140.989227 
L 516.851359 140.554144 
L 517.478913 140.032044 
L 518.106467 139.945028 
L 519.361575 139.031354 
L 520.616682 138.422238 
L 521.244236 138.161188 
L 521.87179 137.552072 
L 525.637113 136.203315 
L 527.519775 135.376657 
L 529.402437 134.81105 
L 530.657545 134.637017 
L 531.285098 134.375967 
L 531.912652 134.28895 
L 533.16776 133.766851 
L 533.795314 133.723343 
L 536.30553 132.809669 
L 538.188191 131.50442 
L 538.815745 131.24337 
L 540.070853 130.590746 
L 540.698407 130.373204 
L 543.208622 128.893923 
L 543.836176 128.502348 
L 545.091284 128.19779 
L 546.973946 127.153591 
L 548.856607 126.544475 
L 549.484161 126.283425 
L 550.739269 125.978867 
L 553.877038 124.978177 
L 555.7597 124.63011 
L 558.269916 123.846961 
L 558.89747 123.585912 
L 559.525023 123.498895 
L 560.152577 123.194337 
L 561.407685 122.933287 
L 562.662793 122.498204 
L 563.290347 122.280663 
L 564.545455 122.150138 
L 565.800562 121.84558 
L 567.683224 121.541022 
L 568.310778 121.323481 
L 569.565886 121.192956 
L 575.213871 119.539641 
L 575.841425 119.322099 
L 576.468978 119.278591 
L 580.234302 118.147376 
L 581.48941 117.712293 
L 582.116963 117.625276 
L 583.999625 116.972652 
L 584.627179 116.972652 
L 585.882287 116.537569 
L 586.509841 115.928453 
L 587.137395 115.623895 
L 588.392502 115.23232 
L 590.902718 114.275138 
L 591.530272 114.144613 
L 592.157826 113.753039 
L 592.78538 113.622514 
L 593.412933 113.274448 
L 596.550703 112.360773 
L 597.178257 111.969199 
L 597.805811 111.838674 
L 598.433365 111.316575 
L 600.316026 110.968508 
L 601.571134 110.272376 
L 602.198688 109.576243 
L 603.453796 109.315193 
L 607.846673 108.314503 
L 608.474227 108.14047 
L 609.729335 108.096961 
L 610.356888 107.792403 
L 612.867104 107.35732 
L 613.494658 107.052762 
L 615.37732 106.791713 
L 617.887535 106.008564 
L 619.770197 105.573481 
L 621.652858 105.09489 
L 624.163074 104.31174 
L 624.790628 104.181215 
L 625.418182 103.876657 
L 626.045736 103.789641 
L 626.67329 103.572099 
L 627.300843 103.224033 
L 629.183505 102.571409 
L 629.811059 102.092818 
L 631.066167 101.744751 
L 631.693721 101.483702 
L 632.948828 101.135635 
L 635.459044 100.00442 
L 637.341706 99.873895 
L 639.851921 99.090746 
L 640.479475 98.699171 
L 641.734583 98.351105 
L 643.617245 97.393923 
L 644.244799 97.263398 
L 644.872352 96.95884 
L 645.499906 96.915331 
L 652.402999 94.609392 
L 654.913215 94.000276 
L 655.540769 93.826243 
L 656.795876 93.260635 
L 657.42343 93.173619 
L 658.678538 92.825552 
L 659.306092 92.346961 
L 659.933646 92.042403 
L 660.5612 91.302762 
L 661.188754 90.86768 
L 662.443861 90.476105 
L 663.071415 89.954006 
L 669.974508 87.125967 
L 671.229616 86.821409 
L 673.112277 85.951243 
L 674.367385 85.211602 
L 674.994939 85.081077 
L 675.622493 84.602486 
L 676.877601 83.99337 
L 678.132709 83.210221 
L 680.01537 82.340055 
L 680.642924 81.904972 
L 681.898032 81.426381 
L 683.15314 80.68674 
L 683.780694 80.382182 
L 684.408247 79.947099 
L 685.663355 79.512017 
L 686.290909 79.381492 
L 688.801125 78.250276 
L 691.938894 77.162569 
L 692.566448 77.119061 
L 693.194002 76.945028 
L 693.821556 76.553453 
L 694.44911 76.466436 
L 695.076664 76.248895 
L 696.959325 75.900829 
L 700.097095 74.291022 
L 701.352202 73.59489 
L 701.979756 73.507873 
L 703.862418 72.507182 
L 705.74508 71.81105 
L 707.627741 70.984392 
L 710.137957 69.983702 
L 710.765511 69.809669 
L 711.393065 69.418094 
L 712.648172 69.244061 
L 713.275726 68.852486 
L 713.90328 68.808978 
L 715.158388 68.417403 
L 716.413496 67.808287 
L 717.04105 67.721271 
L 717.668604 67.460221 
L 718.296157 67.329696 
L 720.178819 66.503039 
L 720.806373 66.372514 
L 721.433927 66.111464 
L 724.571696 65.371823 
L 726.454358 64.632182 
L 728.964574 63.196409 
L 730.219681 62.717818 
L 730.847235 62.326243 
L 732.102343 62.065193 
L 732.729897 61.717127 
L 733.357451 61.586602 
L 734.612559 60.89047 
L 738.377882 59.150138 
L 742.143205 57.84489 
L 743.398313 57.192265 
L 744.653421 56.800691 
L 745.280975 56.670166 
L 747.163636 55.8 
L 747.163636 55.8 
" clip-path="url(#p5150b90d06)" style="fill: none; stroke: #1f77b4; stroke-width: 1.5; stroke-linecap: square"/>
   </g>
   <g id="line2d_36">
    <path d="M 139.063918 307.8 
L 140.946579 307.712983 
L 142.829241 307.669475 
L 146.594564 307.582459 
L 149.732334 307.451934 
L 152.242549 307.451934 
L 152.870103 307.277901 
L 155.380319 307.190884 
L 157.26298 306.973343 
L 159.145642 306.799309 
L 162.910965 306.625276 
L 163.538519 306.625276 
L 164.166073 306.494751 
L 166.676289 306.407735 
L 167.931396 306.320718 
L 172.951828 306.233702 
L 176.089597 306.103177 
L 183.620244 306.01616 
L 186.758013 305.885635 
L 190.523336 305.798619 
L 193.033552 305.711602 
L 198.681537 305.624586 
L 200.564199 305.581077 
L 202.44686 305.537569 
L 204.329522 305.320028 
L 208.094845 305.276519 
L 209.349953 305.189503 
L 213.74283 305.102486 
L 220.645923 304.710912 
L 225.0388 304.623895 
L 226.293908 304.536878 
L 228.17657 304.449862 
L 231.941893 304.275829 
L 234.452109 304.23232 
L 236.33477 304.058287 
L 246.375633 303.449171 
L 248.885848 303.362155 
L 253.278725 303.144613 
L 255.161387 303.057597 
L 261.436926 302.70953 
L 268.340019 302.622514 
L 270.850234 302.361464 
L 272.105342 302.274448 
L 280.263543 301.621823 
L 284.028866 301.143232 
L 286.539082 301.056215 
L 291.559513 300.403591 
L 294.697282 300.316575 
L 302.855483 299.66395 
L 305.993252 299.315884 
L 308.503468 299.228867 
L 309.758575 299.141851 
L 312.268791 299.054834 
L 313.523899 298.967818 
L 316.661668 298.66326 
L 317.289222 298.489227 
L 321.054545 298.315193 
L 324.192315 298.228177 
L 332.350515 297.749586 
L 334.233177 297.662569 
L 342.391378 297.183978 
L 346.784255 297.096961 
L 347.411809 296.966436 
L 352.43224 296.87942 
L 356.825117 296.661878 
L 363.72821 296.574862 
L 368.121087 296.35732 
L 373.141518 296.270304 
L 378.161949 296.009254 
L 382.554827 295.922238 
L 394.478351 295.182597 
L 399.498782 295.09558 
L 415.815183 294.051381 
L 419.580506 293.964365 
L 421.463168 293.920856 
L 423.345829 293.877348 
L 425.228491 293.703315 
L 430.248922 293.616298 
L 431.50403 293.398757 
L 432.759138 293.31174 
L 435.896907 293.181215 
L 437.152015 293.094199 
L 438.407123 293.007182 
L 444.055108 292.920166 
L 445.310216 292.789641 
L 447.820431 292.746133 
L 448.447985 292.615608 
L 449.703093 292.528591 
L 450.330647 292.398066 
L 452.213308 292.31105 
L 462.881724 291.658425 
L 464.764386 291.571409 
L 467.902156 291.440884 
L 476.68791 291.353867 
L 481.080787 291.136326 
L 486.101218 291.049309 
L 488.611434 290.962293 
L 491.121649 290.918785 
L 492.376757 290.78826 
L 494.886973 290.701243 
L 501.162512 290.353177 
L 504.927835 290.309669 
L 506.810497 290.135635 
L 508.693158 290.092127 
L 513.086036 290.00511 
L 515.596251 289.918094 
L 523.126898 289.831077 
L 526.264667 289.700552 
L 530.029991 289.613536 
L 531.912652 289.395994 
L 535.677976 289.352486 
L 537.560637 289.178453 
L 540.070853 289.091436 
L 547.6015 289.00442 
L 550.739269 288.873895 
L 561.407685 288.830387 
L 562.662793 288.74337 
L 564.545455 288.699862 
L 572.703655 288.612845 
L 573.958763 288.525829 
L 580.861856 288.438812 
L 583.372071 288.351796 
L 590.902718 288.308287 
L 592.157826 288.221271 
L 601.571134 288.177762 
L 603.453796 288.003729 
L 619.142643 287.916713 
L 621.025305 287.873204 
L 637.96926 287.786188 
L 640.479475 287.699171 
L 651.147891 287.612155 
L 652.402999 287.525138 
L 655.540769 287.438122 
L 657.42343 287.264088 
L 660.5612 287.177072 
L 663.071415 287.090055 
L 666.836739 287.003039 
L 668.7194 286.95953 
L 671.229616 286.872514 
L 673.112277 286.829006 
L 676.250047 286.741989 
L 677.505155 286.654972 
L 681.270478 286.567956 
L 684.408247 286.437431 
L 685.663355 286.393923 
L 687.546017 286.21989 
L 691.31134 286.132873 
L 693.821556 286.045856 
L 700.097095 285.95884 
L 703.234864 285.828315 
L 709.510403 285.741298 
L 713.90328 285.523757 
L 719.551265 285.43674 
L 720.806373 285.349724 
L 728.33702 285.262707 
L 730.219681 285.219199 
L 737.122774 285.132182 
L 739.63299 284.871133 
L 741.515651 284.827624 
L 745.280975 284.740608 
L 747.163636 284.653591 
L 747.163636 284.653591 
" clip-path="url(#p5150b90d06)" style="fill: none; stroke: #ff7f0e; stroke-width: 1.5; stroke-linecap: square"/>
   </g>
   <g id="patch_3">
    <path d="M 108 320.4 
L 108 43.2 
" style="fill: none; stroke: #a9a9a9; stroke-width: 0.8; stroke-linejoin: miter; stroke-linecap: square"/>
   </g>
   <g id="patch_4">
    <path d="M 777.6 320.4 
L 777.6 43.2 
" style="fill: none"/>
   </g>
   <g id="patch_5">
    <path d="M 108 320.4 
L 777.6 320.4 
" style="fill: none; stroke: #a9a9a9; stroke-width: 0.8; stroke-linejoin: miter; stroke-linecap: square"/>
   </g>
   <g id="patch_6">
    <path d="M 108 43.2 
L 777.6 43.2 
" style="fill: none"/>
   </g>
   <g id="text_18">
    <!-- get_subscribe history -->
    <g style="fill: #a9a9a9" transform="translate(378.6075 37.2) scale(0.12 -0.12)">
     <defs>
      <path id="DejaVuSans-67" d="M 2906 1791 
Q 2906 2416 2648 2759 
Q 2391 3103 1925 3103 
Q 1463 3103 1205 2759 
Q 947 2416 947 1791 
Q 947 1169 1205 825 
Q 1463 481 1925 481 
Q 2391 481 2648 825 
Q 2906 1169 2906 1791 
z
M 3481 434 
Q 3481 -459 3084 -895 
Q 2688 -1331 1869 -1331 
Q 1566 -1331 1297 -1286 
Q 1028 -1241 775 -1147 
L 775 -588 
Q 1028 -725 1275 -790 
Q 1522 -856 1778 -856 
Q 2344 -856 2625 -561 
Q 2906 -266 2906 331 
L 2906 616 
Q 2728 306 2450 153 
Q 2172 0 1784 0 
Q 1141 0 747 490 
Q 353 981 353 1791 
Q 353 2603 747 3093 
Q 1141 3584 1784 3584 
Q 2172 3584 2450 3431 
Q 2728 3278 2906 2969 
L 2906 3500 
L 3481 3500 
L 3481 434 
z
" transform="scale(0.015625)"/>
      <path id="DejaVuSans-65" d="M 3597 1894 
L 3597 1613 
L 953 1613 
Q 991 1019 1311 708 
Q 1631 397 2203 397 
Q 2534 397 2845 478 
Q 3156 559 3463 722 
L 3463 178 
Q 3153 47 2828 -22 
Q 2503 -91 2169 -91 
Q 1331 -91 842 396 
Q 353 884 353 1716 
Q 353 2575 817 3079 
Q 1281 3584 2069 3584 
Q 2775 3584 3186 3129 
Q 3597 2675 3597 1894 
z
M 3022 2063 
Q 3016 2534 2758 2815 
Q 2500 3097 2075 3097 
Q 1594 3097 1305 2825 
Q 1016 2553 972 2059 
L 3022 2063 
z
" transform="scale(0.015625)"/>
      <path id="DejaVuSans-74" d="M 1172 4494 
L 1172 3500 
L 2356 3500 
L 2356 3053 
L 1172 3053 
L 1172 1153 
Q 1172 725 1289 603 
Q 1406 481 1766 481 
L 2356 481 
L 2356 0 
L 1766 0 
Q 1100 0 847 248 
Q 594 497 594 1153 
L 594 3053 
L 172 3053 
L 172 3500 
L 594 3500 
L 594 4494 
L 1172 4494 
z
" transform="scale(0.015625)"/>
      <path id="DejaVuSans-5f" d="M 3263 -1063 
L 3263 -1509 
L -63 -1509 
L -63 -1063 
L 3263 -1063 
z
" transform="scale(0.015625)"/>
      <path id="DejaVuSans-73" d="M 2834 3397 
L 2834 2853 
Q 2591 2978 2328 3040 
Q 2066 3103 1784 3103 
Q 1356 3103 1142 2972 
Q 928 2841 928 2578 
Q 928 2378 1081 2264 
Q 1234 2150 1697 2047 
L 1894 2003 
Q 2506 1872 2764 1633 
Q 3022 1394 3022 966 
Q 3022 478 2636 193 
Q 2250 -91 1575 -91 
Q 1294 -91 989 -36 
Q 684 19 347 128 
L 347 722 
Q 666 556 975 473 
Q 1284 391 1588 391 
Q 1994 391 2212 530 
Q 2431 669 2431 922 
Q 2431 1156 2273 1281 
Q 2116 1406 1581 1522 
L 1381 1569 
Q 847 1681 609 1914 
Q 372 2147 372 2553 
Q 372 3047 722 3315 
Q 1072 3584 1716 3584 
Q 2034 3584 2315 3537 
Q 2597 3491 2834 3397 
z
" transform="scale(0.015625)"/>
      <path id="DejaVuSans-75" d="M 544 1381 
L 544 3500 
L 1119 3500 
L 1119 1403 
Q 1119 906 1312 657 
Q 1506 409 1894 409 
Q 2359 409 2629 706 
Q 2900 1003 2900 1516 
L 2900 3500 
L 3475 3500 
L 3475 0 
L 2900 0 
L 2900 538 
Q 2691 219 2414 64 
Q 2138 -91 1772 -91 
Q 1169 -91 856 284 
Q 544 659 544 1381 
z
M 1991 3584 
L 1991 3584 
z
" transform="scale(0.015625)"/>
      <path id="DejaVuSans-62" d="M 3116 1747 
Q 3116 2381 2855 2742 
Q 2594 3103 2138 3103 
Q 1681 3103 1420 2742 
Q 1159 2381 1159 1747 
Q 1159 1113 1420 752 
Q 1681 391 2138 391 
Q 2594 391 2855 752 
Q 3116 1113 3116 1747 
z
M 1159 2969 
Q 1341 3281 1617 3432 
Q 1894 3584 2278 3584 
Q 2916 3584 3314 3078 
Q 3713 2572 3713 1747 
Q 3713 922 3314 415 
Q 2916 -91 2278 -91 
Q 1894 -91 1617 61 
Q 1341 213 1159 525 
L 1159 0 
L 581 0 
L 581 4863 
L 1159 4863 
L 1159 2969 
z
" transform="scale(0.015625)"/>
      <path id="DejaVuSans-63" d="M 3122 3366 
L 3122 2828 
Q 2878 2963 2633 3030 
Q 2388 3097 2138 3097 
Q 1578 3097 1268 2742 
Q 959 2388 959 1747 
Q 959 1106 1268 751 
Q 1578 397 2138 397 
Q 2388 397 2633 464 
Q 2878 531 3122 666 
L 3122 134 
Q 2881 22 2623 -34 
Q 2366 -91 2075 -91 
Q 1284 -91 818 406 
Q 353 903 353 1747 
Q 353 2603 823 3093 
Q 1294 3584 2113 3584 
Q 2378 3584 2631 3529 
Q 2884 3475 3122 3366 
z
" transform="scale(0.015625)"/>
      <path id="DejaVuSans-72" d="M 2631 2963 
Q 2534 3019 2420 3045 
Q 2306 3072 2169 3072 
Q 1681 3072 1420 2755 
Q 1159 2438 1159 1844 
L 1159 0 
L 581 0 
L 581 3500 
L 1159 3500 
L 1159 2956 
Q 1341 3275 1631 3429 
Q 1922 3584 2338 3584 
Q 2397 3584 2469 3576 
Q 2541 3569 2628 3553 
L 2631 2963 
z
" transform="scale(0.015625)"/>
      <path id="DejaVuSans-69" d="M 603 3500 
L 1178 3500 
L 1178 0 
L 603 0 
L 603 3500 
z
M 603 4863 
L 1178 4863 
L 1178 4134 
L 603 4134 
L 603 4863 
z
" transform="scale(0.015625)"/>
      <path id="DejaVuSans-20" transform="scale(0.015625)"/>
      <path id="DejaVuSans-68" d="M 3513 2113 
L 3513 0 
L 2938 0 
L 2938 2094 
Q 2938 2591 2744 2837 
Q 2550 3084 2163 3084 
Q 1697 3084 1428 2787 
Q 1159 2491 1159 1978 
L 1159 0 
L 581 0 
L 581 4863 
L 1159 4863 
L 1159 2956 
Q 1366 3272 1645 3428 
Q 1925 3584 2291 3584 
Q 2894 3584 3203 3211 
Q 3513 2838 3513 2113 
z
" transform="scale(0.015625)"/>
      <path id="DejaVuSans-6f" d="M 1959 3097 
Q 1497 3097 1228 2736 
Q 959 2375 959 1747 
Q 959 1119 1226 758 
Q 1494 397 1959 397 
Q 2419 397 2687 759 
Q 2956 1122 2956 1747 
Q 2956 2369 2687 2733 
Q 2419 3097 1959 3097 
z
M 1959 3584 
Q 2709 3584 3137 3096 
Q 3566 2609 3566 1747 
Q 3566 888 3137 398 
Q 2709 -91 1959 -91 
Q 1206 -91 779 398 
Q 353 888 353 1747 
Q 353 2609 779 3096 
Q 1206 3584 1959 3584 
z
" transform="scale(0.015625)"/>
      <path id="DejaVuSans-79" d="M 2059 -325 
Q 1816 -950 1584 -1140 
Q 1353 -1331 966 -1331 
L 506 -1331 
L 506 -850 
L 844 -850 
Q 1081 -850 1212 -737 
Q 1344 -625 1503 -206 
L 1606 56 
L 191 3500 
L 800 3500 
L 1894 763 
L 2988 3500 
L 3597 3500 
L 2059 -325 
z
" transform="scale(0.015625)"/>
     </defs>
     <use xlink:href="#DejaVuSans-67"/>
     <use xlink:href="#DejaVuSans-65" x="63.476562"/>
     <use xlink:href="#DejaVuSans-74" x="125"/>
     <use xlink:href="#DejaVuSans-5f" x="164.208984"/>
     <use xlink:href="#DejaVuSans-73" x="214.208984"/>
     <use xlink:href="#DejaVuSans-75" x="266.308594"/>
     <use xlink:href="#DejaVuSans-62" x="329.6875"/>
     <use xlink:href="#DejaVuSans-73" x="393.164062"/>
     <use xlink:href="#DejaVuSans-63" x="445.263672"/>
     <use xlink:href="#DejaVuSans-72" x="500.244141"/>
     <use xlink:href="#DejaVuSans-69" x="541.357422"/>
     <use xlink:href="#DejaVuSans-62" x="569.140625"/>
     <use xlink:href="#DejaVuSans-65" x="632.617188"/>
     <use xlink:href="#DejaVuSans-20" x="694.140625"/>
     <use xlink:href="#DejaVuSans-68" x="725.927734"/>
     <use xlink:href="#DejaVuSans-69" x="789.306641"/>
     <use xlink:href="#DejaVuSans-73" x="817.089844"/>
     <use xlink:href="#DejaVuSans-74" x="869.189453"/>
     <use xlink:href="#DejaVuSans-6f" x="908.398438"/>
     <use xlink:href="#DejaVuSans-72" x="969.580078"/>
     <use xlink:href="#DejaVuSans-79" x="1010.693359"/>
    </g>
   </g>
   <g id="legend_1">
    <g id="line2d_37">
     <path d="M 815.08 328.498438 
L 825.08 328.498438 
L 835.08 328.498438 
" style="fill: none; stroke: #1f77b4; stroke-width: 1.5; stroke-linecap: square"/>
    </g>
    <g id="text_19">
     <!-- star -->
     <g style="fill: #a9a9a9" transform="translate(843.08 331.998438) scale(0.1 -0.1)">
      <defs>
       <path id="DejaVuSans-61" d="M 2194 1759 
Q 1497 1759 1228 1600 
Q 959 1441 959 1056 
Q 959 750 1161 570 
Q 1363 391 1709 391 
Q 2188 391 2477 730 
Q 2766 1069 2766 1631 
L 2766 1759 
L 2194 1759 
z
M 3341 1997 
L 3341 0 
L 2766 0 
L 2766 531 
Q 2569 213 2275 61 
Q 1981 -91 1556 -91 
Q 1019 -91 701 211 
Q 384 513 384 1019 
Q 384 1609 779 1909 
Q 1175 2209 1959 2209 
L 2766 2209 
L 2766 2266 
Q 2766 2663 2505 2880 
Q 2244 3097 1772 3097 
Q 1472 3097 1187 3025 
Q 903 2953 641 2809 
L 641 3341 
Q 956 3463 1253 3523 
Q 1550 3584 1831 3584 
Q 2591 3584 2966 3190 
Q 3341 2797 3341 1997 
z
" transform="scale(0.015625)"/>
      </defs>
      <use xlink:href="#DejaVuSans-73"/>
      <use xlink:href="#DejaVuSans-74" x="52.099609"/>
      <use xlink:href="#DejaVuSans-61" x="91.308594"/>
      <use xlink:href="#DejaVuSans-72" x="152.587891"/>
     </g>
    </g>
    <g id="line2d_38">
     <path d="M 815.08 343.176562 
L 825.08 343.176562 
L 835.08 343.176562 
" style="fill: none; stroke: #ff7f0e; stroke-width: 1.5; stroke-linecap: square"/>
    </g>
    <g id="text_20">
     <!-- fork -->
     <g style="fill: #a9a9a9" transform="translate(843.08 346.676562) scale(0.1 -0.1)">
      <defs>
       <path id="DejaVuSans-66" d="M 2375 4863 
L 2375 4384 
L 1825 4384 
Q 1516 4384 1395 4259 
Q 1275 4134 1275 3809 
L 1275 3500 
L 2222 3500 
L 2222 3053 
L 1275 3053 
L 1275 0 
L 697 0 
L 697 3053 
L 147 3053 
L 147 3500 
L 697 3500 
L 697 3744 
Q 697 4328 969 4595 
Q 1241 4863 1831 4863 
L 2375 4863 
z
" transform="scale(0.015625)"/>
       <path id="DejaVuSans-6b" d="M 581 4863 
L 1159 4863 
L 1159 1991 
L 2875 3500 
L 3609 3500 
L 1753 1863 
L 3688 0 
L 2938 0 
L 1159 1709 
L 1159 0 
L 581 0 
L 581 4863 
z
" transform="scale(0.015625)"/>
      </defs>
      <use xlink:href="#DejaVuSans-66"/>
      <use xlink:href="#DejaVuSans-6f" x="35.205078"/>
      <use xlink:href="#DejaVuSans-72" x="96.386719"/>
      <use xlink:href="#DejaVuSans-6b" x="137.5"/>
     </g>
    </g>
   </g>
  </g>
 </g>
 <defs>
  <clipPath id="p5150b90d06">
   <rect x="108" y="43.2" width="669.6" height="277.2"/>
  </clipPath>
 </defs>
</svg>
