<?xml version="1.0" encoding="utf-8" standalone="no"?>
<!DOCTYPE svg PUBLIC "-//W3C//DTD SVG 1.1//EN"
  "http://www.w3.org/Graphics/SVG/1.1/DTD/svg11.dtd">
<svg xmlns:xlink="http://www.w3.org/1999/xlink" width="864pt" height="360pt" viewBox="0 0 864 360" xmlns="http://www.w3.org/2000/svg" version="1.1">
 <metadata>
  <rdf:RDF xmlns:dc="http://purl.org/dc/elements/1.1/" xmlns:cc="http://creativecommons.org/ns#" xmlns:rdf="http://www.w3.org/1999/02/22-rdf-syntax-ns#">
   <cc:Work>
    <dc:type rdf:resource="http://purl.org/dc/dcmitype/StillImage"/>
    <dc:date>2024-03-19T20:05:18.982687</dc:date>
    <dc:format>image/svg+xml</dc:format>
    <dc:creator>
     <cc:Agent>
      <dc:title>Matplotlib v3.8.3, https://matplotlib.org/</dc:title>
     </cc:Agent>
    </dc:creator>
   </cc:Work>
  </rdf:RDF>
 </metadata>
 <defs>
  <style type="text/css">*{stroke-linejoin: round; stroke-linecap: butt}</style>
 </defs>
 <g id="figure_1">
  <g id="patch_1">
   <path d="M 0 360 
L 864 360 
L 864 0 
L 0 0 
L 0 360 
z
" style="fill: none; opacity: 0"/>
  </g>
  <g id="axes_1">
   <g id="patch_2">
    <path d="M 108 320.4 
L 777.6 320.4 
L 777.6 43.2 
L 108 43.2 
L 108 320.4 
z
" style="fill: none; opacity: 0"/>
   </g>
   <g id="matplotlib.axis_1">
    <g id="xtick_1">
     <g id="line2d_1">
      <path d="M 162.936223 320.4 
L 162.936223 43.2 
" clip-path="url(#p01317310e9)" style="fill: none; stroke-dasharray: 5.12,1.28,0.8,1.28; stroke-dashoffset: 0; stroke: #b0b0b0; stroke-width: 0.8"/>
     </g>
     <g id="line2d_2">
      <defs>
       <path id="m7f695ecf32" d="M 0 0 
L 0 3.5 
" style="stroke: #a9a9a9; stroke-width: 0.8"/>
      </defs>
      <g>
       <use xlink:href="#m7f695ecf32" x="162.936223" y="320.4" style="fill: #a9a9a9; stroke: #a9a9a9; stroke-width: 0.8"/>
      </g>
     </g>
     <g id="text_1">
      <!-- 2021-09 -->
      <g style="fill: #a9a9a9" transform="translate(142.044817 334.998438) scale(0.1 -0.1)">
       <defs>
        <path id="DejaVuSans-32" d="M 1228 531 
L 3431 531 
L 3431 0 
L 469 0 
L 469 531 
Q 828 903 1448 1529 
Q 2069 2156 2228 2338 
Q 2531 2678 2651 2914 
Q 2772 3150 2772 3378 
Q 2772 3750 2511 3984 
Q 2250 4219 1831 4219 
Q 1534 4219 1204 4116 
Q 875 4013 500 3803 
L 500 4441 
Q 881 4594 1212 4672 
Q 1544 4750 1819 4750 
Q 2544 4750 2975 4387 
Q 3406 4025 3406 3419 
Q 3406 3131 3298 2873 
Q 3191 2616 2906 2266 
Q 2828 2175 2409 1742 
Q 1991 1309 1228 531 
z
" transform="scale(0.015625)"/>
        <path id="DejaVuSans-30" d="M 2034 4250 
Q 1547 4250 1301 3770 
Q 1056 3291 1056 2328 
Q 1056 1369 1301 889 
Q 1547 409 2034 409 
Q 2525 409 2770 889 
Q 3016 1369 3016 2328 
Q 3016 3291 2770 3770 
Q 2525 4250 2034 4250 
z
M 2034 4750 
Q 2819 4750 3233 4129 
Q 3647 3509 3647 2328 
Q 3647 1150 3233 529 
Q 2819 -91 2034 -91 
Q 1250 -91 836 529 
Q 422 1150 422 2328 
Q 422 3509 836 4129 
Q 1250 4750 2034 4750 
z
" transform="scale(0.015625)"/>
        <path id="DejaVuSans-31" d="M 794 531 
L 1825 531 
L 1825 4091 
L 703 3866 
L 703 4441 
L 1819 4666 
L 2450 4666 
L 2450 531 
L 3481 531 
L 3481 0 
L 794 0 
L 794 531 
z
" transform="scale(0.015625)"/>
        <path id="DejaVuSans-2d" d="M 313 2009 
L 1997 2009 
L 1997 1497 
L 313 1497 
L 313 2009 
z
" transform="scale(0.015625)"/>
        <path id="DejaVuSans-39" d="M 703 97 
L 703 672 
Q 941 559 1184 500 
Q 1428 441 1663 441 
Q 2288 441 2617 861 
Q 2947 1281 2994 2138 
Q 2813 1869 2534 1725 
Q 2256 1581 1919 1581 
Q 1219 1581 811 2004 
Q 403 2428 403 3163 
Q 403 3881 828 4315 
Q 1253 4750 1959 4750 
Q 2769 4750 3195 4129 
Q 3622 3509 3622 2328 
Q 3622 1225 3098 567 
Q 2575 -91 1691 -91 
Q 1453 -91 1209 -44 
Q 966 3 703 97 
z
M 1959 2075 
Q 2384 2075 2632 2365 
Q 2881 2656 2881 3163 
Q 2881 3666 2632 3958 
Q 2384 4250 1959 4250 
Q 1534 4250 1286 3958 
Q 1038 3666 1038 3163 
Q 1038 2656 1286 2365 
Q 1534 2075 1959 2075 
z
" transform="scale(0.015625)"/>
       </defs>
       <use xlink:href="#DejaVuSans-32"/>
       <use xlink:href="#DejaVuSans-30" x="63.623047"/>
       <use xlink:href="#DejaVuSans-32" x="127.246094"/>
       <use xlink:href="#DejaVuSans-31" x="190.869141"/>
       <use xlink:href="#DejaVuSans-2d" x="254.492188"/>
       <use xlink:href="#DejaVuSans-30" x="290.576172"/>
       <use xlink:href="#DejaVuSans-39" x="354.199219"/>
      </g>
     </g>
    </g>
    <g id="xtick_2">
     <g id="line2d_3">
      <path d="M 239.576808 320.4 
L 239.576808 43.2 
" clip-path="url(#p01317310e9)" style="fill: none; stroke-dasharray: 5.12,1.28,0.8,1.28; stroke-dashoffset: 0; stroke: #b0b0b0; stroke-width: 0.8"/>
     </g>
     <g id="line2d_4">
      <g>
       <use xlink:href="#m7f695ecf32" x="239.576808" y="320.4" style="fill: #a9a9a9; stroke: #a9a9a9; stroke-width: 0.8"/>
      </g>
     </g>
     <g id="text_2">
      <!-- 2022-01 -->
      <g style="fill: #a9a9a9" transform="translate(218.685402 334.998438) scale(0.1 -0.1)">
       <use xlink:href="#DejaVuSans-32"/>
       <use xlink:href="#DejaVuSans-30" x="63.623047"/>
       <use xlink:href="#DejaVuSans-32" x="127.246094"/>
       <use xlink:href="#DejaVuSans-32" x="190.869141"/>
       <use xlink:href="#DejaVuSans-2d" x="254.492188"/>
       <use xlink:href="#DejaVuSans-30" x="290.576172"/>
       <use xlink:href="#DejaVuSans-31" x="354.199219"/>
      </g>
     </g>
    </g>
    <g id="xtick_3">
     <g id="line2d_5">
      <path d="M 314.960991 320.4 
L 314.960991 43.2 
" clip-path="url(#p01317310e9)" style="fill: none; stroke-dasharray: 5.12,1.28,0.8,1.28; stroke-dashoffset: 0; stroke: #b0b0b0; stroke-width: 0.8"/>
     </g>
     <g id="line2d_6">
      <g>
       <use xlink:href="#m7f695ecf32" x="314.960991" y="320.4" style="fill: #a9a9a9; stroke: #a9a9a9; stroke-width: 0.8"/>
      </g>
     </g>
     <g id="text_3">
      <!-- 2022-05 -->
      <g style="fill: #a9a9a9" transform="translate(294.069584 334.998438) scale(0.1 -0.1)">
       <defs>
        <path id="DejaVuSans-35" d="M 691 4666 
L 3169 4666 
L 3169 4134 
L 1269 4134 
L 1269 2991 
Q 1406 3038 1543 3061 
Q 1681 3084 1819 3084 
Q 2600 3084 3056 2656 
Q 3513 2228 3513 1497 
Q 3513 744 3044 326 
Q 2575 -91 1722 -91 
Q 1428 -91 1123 -41 
Q 819 9 494 109 
L 494 744 
Q 775 591 1075 516 
Q 1375 441 1709 441 
Q 2250 441 2565 725 
Q 2881 1009 2881 1497 
Q 2881 1984 2565 2268 
Q 2250 2553 1709 2553 
Q 1456 2553 1204 2497 
Q 953 2441 691 2322 
L 691 4666 
z
" transform="scale(0.015625)"/>
       </defs>
       <use xlink:href="#DejaVuSans-32"/>
       <use xlink:href="#DejaVuSans-30" x="63.623047"/>
       <use xlink:href="#DejaVuSans-32" x="127.246094"/>
       <use xlink:href="#DejaVuSans-32" x="190.869141"/>
       <use xlink:href="#DejaVuSans-2d" x="254.492188"/>
       <use xlink:href="#DejaVuSans-30" x="290.576172"/>
       <use xlink:href="#DejaVuSans-35" x="354.199219"/>
      </g>
     </g>
    </g>
    <g id="xtick_4">
     <g id="line2d_7">
      <path d="M 392.229778 320.4 
L 392.229778 43.2 
" clip-path="url(#p01317310e9)" style="fill: none; stroke-dasharray: 5.12,1.28,0.8,1.28; stroke-dashoffset: 0; stroke: #b0b0b0; stroke-width: 0.8"/>
     </g>
     <g id="line2d_8">
      <g>
       <use xlink:href="#m7f695ecf32" x="392.229778" y="320.4" style="fill: #a9a9a9; stroke: #a9a9a9; stroke-width: 0.8"/>
      </g>
     </g>
     <g id="text_4">
      <!-- 2022-09 -->
      <g style="fill: #a9a9a9" transform="translate(371.338371 334.998438) scale(0.1 -0.1)">
       <use xlink:href="#DejaVuSans-32"/>
       <use xlink:href="#DejaVuSans-30" x="63.623047"/>
       <use xlink:href="#DejaVuSans-32" x="127.246094"/>
       <use xlink:href="#DejaVuSans-32" x="190.869141"/>
       <use xlink:href="#DejaVuSans-2d" x="254.492188"/>
       <use xlink:href="#DejaVuSans-30" x="290.576172"/>
       <use xlink:href="#DejaVuSans-39" x="354.199219"/>
      </g>
     </g>
    </g>
    <g id="xtick_5">
     <g id="line2d_9">
      <path d="M 468.870363 320.4 
L 468.870363 43.2 
" clip-path="url(#p01317310e9)" style="fill: none; stroke-dasharray: 5.12,1.28,0.8,1.28; stroke-dashoffset: 0; stroke: #b0b0b0; stroke-width: 0.8"/>
     </g>
     <g id="line2d_10">
      <g>
       <use xlink:href="#m7f695ecf32" x="468.870363" y="320.4" style="fill: #a9a9a9; stroke: #a9a9a9; stroke-width: 0.8"/>
      </g>
     </g>
     <g id="text_5">
      <!-- 2023-01 -->
      <g style="fill: #a9a9a9" transform="translate(447.978957 334.998438) scale(0.1 -0.1)">
       <defs>
        <path id="DejaVuSans-33" d="M 2597 2516 
Q 3050 2419 3304 2112 
Q 3559 1806 3559 1356 
Q 3559 666 3084 287 
Q 2609 -91 1734 -91 
Q 1441 -91 1130 -33 
Q 819 25 488 141 
L 488 750 
Q 750 597 1062 519 
Q 1375 441 1716 441 
Q 2309 441 2620 675 
Q 2931 909 2931 1356 
Q 2931 1769 2642 2001 
Q 2353 2234 1838 2234 
L 1294 2234 
L 1294 2753 
L 1863 2753 
Q 2328 2753 2575 2939 
Q 2822 3125 2822 3475 
Q 2822 3834 2567 4026 
Q 2313 4219 1838 4219 
Q 1578 4219 1281 4162 
Q 984 4106 628 3988 
L 628 4550 
Q 988 4650 1302 4700 
Q 1616 4750 1894 4750 
Q 2613 4750 3031 4423 
Q 3450 4097 3450 3541 
Q 3450 3153 3228 2886 
Q 3006 2619 2597 2516 
z
" transform="scale(0.015625)"/>
       </defs>
       <use xlink:href="#DejaVuSans-32"/>
       <use xlink:href="#DejaVuSans-30" x="63.623047"/>
       <use xlink:href="#DejaVuSans-32" x="127.246094"/>
       <use xlink:href="#DejaVuSans-33" x="190.869141"/>
       <use xlink:href="#DejaVuSans-2d" x="254.492188"/>
       <use xlink:href="#DejaVuSans-30" x="290.576172"/>
       <use xlink:href="#DejaVuSans-31" x="354.199219"/>
      </g>
     </g>
    </g>
    <g id="xtick_6">
     <g id="line2d_11">
      <path d="M 544.254545 320.4 
L 544.254545 43.2 
" clip-path="url(#p01317310e9)" style="fill: none; stroke-dasharray: 5.12,1.28,0.8,1.28; stroke-dashoffset: 0; stroke: #b0b0b0; stroke-width: 0.8"/>
     </g>
     <g id="line2d_12">
      <g>
       <use xlink:href="#m7f695ecf32" x="544.254545" y="320.4" style="fill: #a9a9a9; stroke: #a9a9a9; stroke-width: 0.8"/>
      </g>
     </g>
     <g id="text_6">
      <!-- 2023-05 -->
      <g style="fill: #a9a9a9" transform="translate(523.363139 334.998438) scale(0.1 -0.1)">
       <use xlink:href="#DejaVuSans-32"/>
       <use xlink:href="#DejaVuSans-30" x="63.623047"/>
       <use xlink:href="#DejaVuSans-32" x="127.246094"/>
       <use xlink:href="#DejaVuSans-33" x="190.869141"/>
       <use xlink:href="#DejaVuSans-2d" x="254.492188"/>
       <use xlink:href="#DejaVuSans-30" x="290.576172"/>
       <use xlink:href="#DejaVuSans-35" x="354.199219"/>
      </g>
     </g>
    </g>
    <g id="xtick_7">
     <g id="line2d_13">
      <path d="M 621.523332 320.4 
L 621.523332 43.2 
" clip-path="url(#p01317310e9)" style="fill: none; stroke-dasharray: 5.12,1.28,0.8,1.28; stroke-dashoffset: 0; stroke: #b0b0b0; stroke-width: 0.8"/>
     </g>
     <g id="line2d_14">
      <g>
       <use xlink:href="#m7f695ecf32" x="621.523332" y="320.4" style="fill: #a9a9a9; stroke: #a9a9a9; stroke-width: 0.8"/>
      </g>
     </g>
     <g id="text_7">
      <!-- 2023-09 -->
      <g style="fill: #a9a9a9" transform="translate(600.631926 334.998438) scale(0.1 -0.1)">
       <use xlink:href="#DejaVuSans-32"/>
       <use xlink:href="#DejaVuSans-30" x="63.623047"/>
       <use xlink:href="#DejaVuSans-32" x="127.246094"/>
       <use xlink:href="#DejaVuSans-33" x="190.869141"/>
       <use xlink:href="#DejaVuSans-2d" x="254.492188"/>
       <use xlink:href="#DejaVuSans-30" x="290.576172"/>
       <use xlink:href="#DejaVuSans-39" x="354.199219"/>
      </g>
     </g>
    </g>
    <g id="xtick_8">
     <g id="line2d_15">
      <path d="M 698.163918 320.4 
L 698.163918 43.2 
" clip-path="url(#p01317310e9)" style="fill: none; stroke-dasharray: 5.12,1.28,0.8,1.28; stroke-dashoffset: 0; stroke: #b0b0b0; stroke-width: 0.8"/>
     </g>
     <g id="line2d_16">
      <g>
       <use xlink:href="#m7f695ecf32" x="698.163918" y="320.4" style="fill: #a9a9a9; stroke: #a9a9a9; stroke-width: 0.8"/>
      </g>
     </g>
     <g id="text_8">
      <!-- 2024-01 -->
      <g style="fill: #a9a9a9" transform="translate(677.272512 334.998438) scale(0.1 -0.1)">
       <defs>
        <path id="DejaVuSans-34" d="M 2419 4116 
L 825 1625 
L 2419 1625 
L 2419 4116 
z
M 2253 4666 
L 3047 4666 
L 3047 1625 
L 3713 1625 
L 3713 1100 
L 3047 1100 
L 3047 0 
L 2419 0 
L 2419 1100 
L 313 1100 
L 313 1709 
L 2253 4666 
z
" transform="scale(0.015625)"/>
       </defs>
       <use xlink:href="#DejaVuSans-32"/>
       <use xlink:href="#DejaVuSans-30" x="63.623047"/>
       <use xlink:href="#DejaVuSans-32" x="127.246094"/>
       <use xlink:href="#DejaVuSans-34" x="190.869141"/>
       <use xlink:href="#DejaVuSans-2d" x="254.492188"/>
       <use xlink:href="#DejaVuSans-30" x="290.576172"/>
       <use xlink:href="#DejaVuSans-31" x="354.199219"/>
      </g>
     </g>
    </g>
    <g id="xtick_9">
     <g id="line2d_17">
      <path d="M 774.176302 320.4 
L 774.176302 43.2 
" clip-path="url(#p01317310e9)" style="fill: none; stroke-dasharray: 5.12,1.28,0.8,1.28; stroke-dashoffset: 0; stroke: #b0b0b0; stroke-width: 0.8"/>
     </g>
     <g id="line2d_18">
      <g>
       <use xlink:href="#m7f695ecf32" x="774.176302" y="320.4" style="fill: #a9a9a9; stroke: #a9a9a9; stroke-width: 0.8"/>
      </g>
     </g>
     <g id="text_9">
      <!-- 2024-05 -->
      <g style="fill: #a9a9a9" transform="translate(753.284895 334.998438) scale(0.1 -0.1)">
       <use xlink:href="#DejaVuSans-32"/>
       <use xlink:href="#DejaVuSans-30" x="63.623047"/>
       <use xlink:href="#DejaVuSans-32" x="127.246094"/>
       <use xlink:href="#DejaVuSans-34" x="190.869141"/>
       <use xlink:href="#DejaVuSans-2d" x="254.492188"/>
       <use xlink:href="#DejaVuSans-30" x="290.576172"/>
       <use xlink:href="#DejaVuSans-35" x="354.199219"/>
      </g>
     </g>
    </g>
   </g>
   <g id="matplotlib.axis_2">
    <g id="ytick_1">
     <g id="line2d_19">
      <path d="M 108 307.843561 
L 777.6 307.843561 
" clip-path="url(#p01317310e9)" style="fill: none; stroke-dasharray: 5.12,1.28,0.8,1.28; stroke-dashoffset: 0; stroke: #b0b0b0; stroke-width: 0.8"/>
     </g>
     <g id="line2d_20">
      <defs>
       <path id="m92384eb86b" d="M 0 0 
L -3.5 0 
" style="stroke: #a9a9a9; stroke-width: 0.8"/>
      </defs>
      <g>
       <use xlink:href="#m92384eb86b" x="108" y="307.843561" style="fill: #a9a9a9; stroke: #a9a9a9; stroke-width: 0.8"/>
      </g>
     </g>
     <g id="text_10">
      <!-- 0 -->
      <g style="fill: #a9a9a9" transform="translate(94.6375 311.64278) scale(0.1 -0.1)">
       <use xlink:href="#DejaVuSans-30"/>
      </g>
     </g>
    </g>
    <g id="ytick_2">
     <g id="line2d_21">
      <path d="M 108 272.994814 
L 777.6 272.994814 
" clip-path="url(#p01317310e9)" style="fill: none; stroke-dasharray: 5.12,1.28,0.8,1.28; stroke-dashoffset: 0; stroke: #b0b0b0; stroke-width: 0.8"/>
     </g>
     <g id="line2d_22">
      <g>
       <use xlink:href="#m92384eb86b" x="108" y="272.994814" style="fill: #a9a9a9; stroke: #a9a9a9; stroke-width: 0.8"/>
      </g>
     </g>
     <g id="text_11">
      <!-- 800 -->
      <g style="fill: #a9a9a9" transform="translate(81.9125 276.794033) scale(0.1 -0.1)">
       <defs>
        <path id="DejaVuSans-38" d="M 2034 2216 
Q 1584 2216 1326 1975 
Q 1069 1734 1069 1313 
Q 1069 891 1326 650 
Q 1584 409 2034 409 
Q 2484 409 2743 651 
Q 3003 894 3003 1313 
Q 3003 1734 2745 1975 
Q 2488 2216 2034 2216 
z
M 1403 2484 
Q 997 2584 770 2862 
Q 544 3141 544 3541 
Q 544 4100 942 4425 
Q 1341 4750 2034 4750 
Q 2731 4750 3128 4425 
Q 3525 4100 3525 3541 
Q 3525 3141 3298 2862 
Q 3072 2584 2669 2484 
Q 3125 2378 3379 2068 
Q 3634 1759 3634 1313 
Q 3634 634 3220 271 
Q 2806 -91 2034 -91 
Q 1263 -91 848 271 
Q 434 634 434 1313 
Q 434 1759 690 2068 
Q 947 2378 1403 2484 
z
M 1172 3481 
Q 1172 3119 1398 2916 
Q 1625 2713 2034 2713 
Q 2441 2713 2670 2916 
Q 2900 3119 2900 3481 
Q 2900 3844 2670 4047 
Q 2441 4250 2034 4250 
Q 1625 4250 1398 4047 
Q 1172 3844 1172 3481 
z
" transform="scale(0.015625)"/>
       </defs>
       <use xlink:href="#DejaVuSans-38"/>
       <use xlink:href="#DejaVuSans-30" x="63.623047"/>
       <use xlink:href="#DejaVuSans-30" x="127.246094"/>
      </g>
     </g>
    </g>
    <g id="ytick_3">
     <g id="line2d_23">
      <path d="M 108 238.146067 
L 777.6 238.146067 
" clip-path="url(#p01317310e9)" style="fill: none; stroke-dasharray: 5.12,1.28,0.8,1.28; stroke-dashoffset: 0; stroke: #b0b0b0; stroke-width: 0.8"/>
     </g>
     <g id="line2d_24">
      <g>
       <use xlink:href="#m92384eb86b" x="108" y="238.146067" style="fill: #a9a9a9; stroke: #a9a9a9; stroke-width: 0.8"/>
      </g>
     </g>
     <g id="text_12">
      <!-- 1600 -->
      <g style="fill: #a9a9a9" transform="translate(75.55 241.945286) scale(0.1 -0.1)">
       <defs>
        <path id="DejaVuSans-36" d="M 2113 2584 
Q 1688 2584 1439 2293 
Q 1191 2003 1191 1497 
Q 1191 994 1439 701 
Q 1688 409 2113 409 
Q 2538 409 2786 701 
Q 3034 994 3034 1497 
Q 3034 2003 2786 2293 
Q 2538 2584 2113 2584 
z
M 3366 4563 
L 3366 3988 
Q 3128 4100 2886 4159 
Q 2644 4219 2406 4219 
Q 1781 4219 1451 3797 
Q 1122 3375 1075 2522 
Q 1259 2794 1537 2939 
Q 1816 3084 2150 3084 
Q 2853 3084 3261 2657 
Q 3669 2231 3669 1497 
Q 3669 778 3244 343 
Q 2819 -91 2113 -91 
Q 1303 -91 875 529 
Q 447 1150 447 2328 
Q 447 3434 972 4092 
Q 1497 4750 2381 4750 
Q 2619 4750 2861 4703 
Q 3103 4656 3366 4563 
z
" transform="scale(0.015625)"/>
       </defs>
       <use xlink:href="#DejaVuSans-31"/>
       <use xlink:href="#DejaVuSans-36" x="63.623047"/>
       <use xlink:href="#DejaVuSans-30" x="127.246094"/>
       <use xlink:href="#DejaVuSans-30" x="190.869141"/>
      </g>
     </g>
    </g>
    <g id="ytick_4">
     <g id="line2d_25">
      <path d="M 108 203.297321 
L 777.6 203.297321 
" clip-path="url(#p01317310e9)" style="fill: none; stroke-dasharray: 5.12,1.28,0.8,1.28; stroke-dashoffset: 0; stroke: #b0b0b0; stroke-width: 0.8"/>
     </g>
     <g id="line2d_26">
      <g>
       <use xlink:href="#m92384eb86b" x="108" y="203.297321" style="fill: #a9a9a9; stroke: #a9a9a9; stroke-width: 0.8"/>
      </g>
     </g>
     <g id="text_13">
      <!-- 2400 -->
      <g style="fill: #a9a9a9" transform="translate(75.55 207.096539) scale(0.1 -0.1)">
       <use xlink:href="#DejaVuSans-32"/>
       <use xlink:href="#DejaVuSans-34" x="63.623047"/>
       <use xlink:href="#DejaVuSans-30" x="127.246094"/>
       <use xlink:href="#DejaVuSans-30" x="190.869141"/>
      </g>
     </g>
    </g>
    <g id="ytick_5">
     <g id="line2d_27">
      <path d="M 108 168.448574 
L 777.6 168.448574 
" clip-path="url(#p01317310e9)" style="fill: none; stroke-dasharray: 5.12,1.28,0.8,1.28; stroke-dashoffset: 0; stroke: #b0b0b0; stroke-width: 0.8"/>
     </g>
     <g id="line2d_28">
      <g>
       <use xlink:href="#m92384eb86b" x="108" y="168.448574" style="fill: #a9a9a9; stroke: #a9a9a9; stroke-width: 0.8"/>
      </g>
     </g>
     <g id="text_14">
      <!-- 3200 -->
      <g style="fill: #a9a9a9" transform="translate(75.55 172.247793) scale(0.1 -0.1)">
       <use xlink:href="#DejaVuSans-33"/>
       <use xlink:href="#DejaVuSans-32" x="63.623047"/>
       <use xlink:href="#DejaVuSans-30" x="127.246094"/>
       <use xlink:href="#DejaVuSans-30" x="190.869141"/>
      </g>
     </g>
    </g>
    <g id="ytick_6">
     <g id="line2d_29">
      <path d="M 108 133.599827 
L 777.6 133.599827 
" clip-path="url(#p01317310e9)" style="fill: none; stroke-dasharray: 5.12,1.28,0.8,1.28; stroke-dashoffset: 0; stroke: #b0b0b0; stroke-width: 0.8"/>
     </g>
     <g id="line2d_30">
      <g>
       <use xlink:href="#m92384eb86b" x="108" y="133.599827" style="fill: #a9a9a9; stroke: #a9a9a9; stroke-width: 0.8"/>
      </g>
     </g>
     <g id="text_15">
      <!-- 4000 -->
      <g style="fill: #a9a9a9" transform="translate(75.55 137.399046) scale(0.1 -0.1)">
       <use xlink:href="#DejaVuSans-34"/>
       <use xlink:href="#DejaVuSans-30" x="63.623047"/>
       <use xlink:href="#DejaVuSans-30" x="127.246094"/>
       <use xlink:href="#DejaVuSans-30" x="190.869141"/>
      </g>
     </g>
    </g>
    <g id="ytick_7">
     <g id="line2d_31">
      <path d="M 108 98.75108 
L 777.6 98.75108 
" clip-path="url(#p01317310e9)" style="fill: none; stroke-dasharray: 5.12,1.28,0.8,1.28; stroke-dashoffset: 0; stroke: #b0b0b0; stroke-width: 0.8"/>
     </g>
     <g id="line2d_32">
      <g>
       <use xlink:href="#m92384eb86b" x="108" y="98.75108" style="fill: #a9a9a9; stroke: #a9a9a9; stroke-width: 0.8"/>
      </g>
     </g>
     <g id="text_16">
      <!-- 4800 -->
      <g style="fill: #a9a9a9" transform="translate(75.55 102.550299) scale(0.1 -0.1)">
       <use xlink:href="#DejaVuSans-34"/>
       <use xlink:href="#DejaVuSans-38" x="63.623047"/>
       <use xlink:href="#DejaVuSans-30" x="127.246094"/>
       <use xlink:href="#DejaVuSans-30" x="190.869141"/>
      </g>
     </g>
    </g>
    <g id="ytick_8">
     <g id="line2d_33">
      <path d="M 108 63.902334 
L 777.6 63.902334 
" clip-path="url(#p01317310e9)" style="fill: none; stroke-dasharray: 5.12,1.28,0.8,1.28; stroke-dashoffset: 0; stroke: #b0b0b0; stroke-width: 0.8"/>
     </g>
     <g id="line2d_34">
      <g>
       <use xlink:href="#m92384eb86b" x="108" y="63.902334" style="fill: #a9a9a9; stroke: #a9a9a9; stroke-width: 0.8"/>
      </g>
     </g>
     <g id="text_17">
      <!-- 5600 -->
      <g style="fill: #a9a9a9" transform="translate(75.55 67.701552) scale(0.1 -0.1)">
       <use xlink:href="#DejaVuSans-35"/>
       <use xlink:href="#DejaVuSans-36" x="63.623047"/>
       <use xlink:href="#DejaVuSans-30" x="127.246094"/>
       <use xlink:href="#DejaVuSans-30" x="190.869141"/>
      </g>
     </g>
    </g>
   </g>
   <g id="line2d_35">
    <path d="M 138.436364 307.712878 
L 142.205573 307.407952 
L 142.833774 307.146586 
L 144.718379 306.928781 
L 148.487588 306.188245 
L 152.256797 305.883319 
L 152.884999 305.578392 
L 153.5132 305.404149 
L 154.141402 304.620052 
L 154.769603 304.184443 
L 155.397805 302.834054 
L 156.026006 302.746932 
L 156.654208 302.267761 
L 157.910611 301.657908 
L 160.423417 299.741227 
L 161.67982 299.218496 
L 162.308021 298.782887 
L 164.820827 297.693863 
L 165.449029 296.735523 
L 166.705432 295.820743 
L 167.333634 295.515817 
L 173.615649 294.644598 
L 174.24385 294.339672 
L 178.641261 293.991184 
L 180.525865 293.512014 
L 186.179679 292.771478 
L 186.807881 292.42299 
L 187.436082 292.335869 
L 188.064284 292.074503 
L 189.320687 291.856698 
L 189.948888 291.813137 
L 191.205291 291.551772 
L 191.833493 291.508211 
L 194.346299 290.898358 
L 196.230903 290.724114 
L 197.487307 290.593431 
L 198.115508 290.419188 
L 198.74371 290.375627 
L 200.628314 289.809334 
L 204.397523 289.243042 
L 205.025725 289.068799 
L 205.653926 288.19758 
L 207.538531 287.500605 
L 209.423135 286.977874 
L 210.051337 286.672947 
L 210.679538 286.629386 
L 213.820546 285.758168 
L 215.076949 285.671046 
L 215.705151 285.583924 
L 217.589755 285.017632 
L 220.102561 284.407779 
L 220.730763 284.146413 
L 221.358964 284.059291 
L 221.987166 283.754365 
L 228.269181 282.796024 
L 231.410189 281.924806 
L 232.03839 281.532757 
L 234.551196 280.879343 
L 235.807599 280.138807 
L 236.435801 279.703198 
L 238.320405 279.35471 
L 242.089614 278.222126 
L 243.346017 277.830078 
L 243.974219 277.742956 
L 245.230622 277.394468 
L 246.487025 277.089542 
L 247.115227 277.00242 
L 248.37163 276.479689 
L 248.999831 276.349006 
L 249.628033 276.08764 
L 250.256234 276.000519 
L 250.884436 275.695592 
L 251.512637 275.521348 
L 252.76904 275.434226 
L 254.025443 274.998617 
L 255.281846 274.911495 
L 255.910048 274.606569 
L 258.422854 274.170959 
L 260.93566 273.953155 
L 261.563862 273.822472 
L 262.820265 273.212619 
L 269.730481 270.294036 
L 270.358683 269.945549 
L 270.986884 269.248574 
L 271.615086 268.203111 
L 272.243287 267.375454 
L 272.871489 267.20121 
L 273.49969 267.20121 
L 274.756093 266.28643 
L 275.384295 266.112187 
L 276.012496 265.763699 
L 276.640698 265.633016 
L 277.2689 265.066724 
L 277.897101 264.892481 
L 279.781706 263.977701 
L 281.038109 262.235264 
L 281.66631 261.843215 
L 282.294512 260.797753 
L 282.922713 260.144339 
L 283.550915 259.839412 
L 284.179116 259.665169 
L 286.691922 258.184097 
L 287.948325 257.182195 
L 288.576527 256.790147 
L 289.204728 255.875367 
L 289.83293 254.437857 
L 290.461131 253.523077 
L 291.089333 253.043907 
L 291.717534 252.782541 
L 294.230341 250.604494 
L 295.486744 249.602593 
L 296.114945 249.079862 
L 296.743147 248.252204 
L 297.99955 247.163181 
L 300.512356 245.551426 
L 301.140557 244.985134 
L 301.768759 244.854451 
L 302.39696 244.593086 
L 304.281565 243.547623 
L 305.537968 242.93777 
L 306.794371 241.761625 
L 307.422572 241.021089 
L 308.678976 240.14987 
L 309.307177 239.975627 
L 309.935379 239.6707 
L 311.191782 238.843042 
L 311.819983 238.494555 
L 312.448185 238.407433 
L 318.101998 235.00968 
L 318.7302 234.791876 
L 320.614804 233.572169 
L 322.499409 233.005877 
L 323.12761 232.570268 
L 323.755812 232.439585 
L 325.012215 232.003976 
L 326.89682 231.26344 
L 328.781424 230.566465 
L 330.037827 230.34866 
L 331.29423 229.259637 
L 332.550633 228.649784 
L 333.807036 227.952809 
L 334.435238 227.604322 
L 335.691641 227.255834 
L 336.319842 226.863786 
L 336.948044 226.689542 
L 338.832648 225.513397 
L 341.973656 224.772861 
L 343.858261 223.683838 
L 344.486462 223.596716 
L 345.114664 223.378911 
L 346.371067 223.117545 
L 348.255671 221.723596 
L 350.140276 221.287986 
L 350.768477 221.070182 
L 351.396679 220.591011 
L 355.165888 219.371305 
L 355.79409 219.327744 
L 356.422291 219.1535 
L 357.678694 218.630769 
L 362.076105 217.106137 
L 363.332508 216.931893 
L 363.960709 216.757649 
L 364.588911 216.452723 
L 365.217112 216.32204 
L 367.101717 215.450821 
L 368.986321 214.536041 
L 369.614523 214.100432 
L 370.242724 213.926188 
L 372.127329 212.924287 
L 373.383732 212.61936 
L 374.640135 211.965946 
L 375.896538 211.617459 
L 376.52474 211.530337 
L 377.781143 210.789801 
L 378.409344 210.659118 
L 379.665747 210.136387 
L 380.293949 210.005704 
L 380.92215 209.657217 
L 383.434956 209.265169 
L 384.691359 208.655315 
L 385.319561 208.132584 
L 385.947762 207.043561 
L 387.204165 206.782195 
L 387.832367 206.651513 
L 390.345173 205.344685 
L 390.973375 205.214002 
L 395.998987 202.81815 
L 397.883591 202.426102 
L 398.511793 202.077615 
L 402.281002 200.770787 
L 403.537405 199.98669 
L 404.793808 199.246154 
L 405.42201 199.159032 
L 406.050211 198.941227 
L 406.678413 198.897666 
L 409.81942 198.070009 
L 410.447622 197.590838 
L 411.704025 197.155229 
L 413.588629 196.545376 
L 414.216831 196.153328 
L 414.845032 195.979084 
L 415.473234 195.543475 
L 416.101435 195.282109 
L 417.357838 194.628695 
L 419.870645 193.844598 
L 420.498846 193.539672 
L 422.383451 192.102161 
L 423.011652 191.971478 
L 424.268055 191.013137 
L 424.896257 190.882455 
L 425.524458 189.924114 
L 426.15266 189.662748 
L 426.780861 189.183578 
L 427.409063 189.096456 
L 428.665466 188.35592 
L 429.293667 188.225238 
L 429.921869 187.963872 
L 430.55007 187.484702 
L 431.178272 187.266897 
L 433.062876 186.00363 
L 435.575683 184.740363 
L 436.203884 184.653241 
L 437.460287 184.086949 
L 438.088489 183.738462 
L 438.71669 182.692999 
L 439.344892 182.126707 
L 439.973093 181.77822 
L 440.601295 181.647537 
L 441.857698 180.86344 
L 442.485899 180.732757 
L 443.742302 180.122904 
L 445.626907 179.338807 
L 446.88331 178.467589 
L 448.139713 177.160761 
L 451.280721 174.895592 
L 452.537124 173.85013 
L 453.165325 173.588764 
L 453.793527 172.891789 
L 454.421728 172.412619 
L 455.678131 171.97701 
L 456.306333 171.454278 
L 457.562736 170.800864 
L 458.190937 170.626621 
L 458.819139 170.191011 
L 459.44734 170.060328 
L 461.331945 169.058427 
L 462.588348 168.317891 
L 468.870363 166.096283 
L 469.498565 165.529991 
L 471.383169 164.833016 
L 472.639572 164.440968 
L 473.267774 163.961798 
L 475.78058 162.65497 
L 476.408781 162.306482 
L 477.665184 159.86707 
L 478.921587 158.385998 
L 480.17799 157.645462 
L 482.062595 156.904927 
L 482.690797 156.817805 
L 483.318998 156.469317 
L 485.203603 155.903025 
L 487.716409 154.770441 
L 488.34461 154.378392 
L 489.601013 153.942783 
L 493.370222 151.764736 
L 493.998424 151.111322 
L 495.254827 150.457908 
L 495.883028 150.109421 
L 496.51123 149.891616 
L 497.139431 149.456007 
L 498.395835 148.846154 
L 500.280439 147.844252 
L 500.908641 147.670009 
L 501.536842 147.190838 
L 502.165044 146.929473 
L 502.793245 146.79879 
L 504.049648 146.363181 
L 505.934253 145.666206 
L 506.562454 145.230596 
L 507.818857 144.882109 
L 509.07526 144.402939 
L 509.703462 143.923768 
L 510.959865 143.53172 
L 511.588066 143.226793 
L 512.216268 143.05255 
L 513.472671 142.181331 
L 514.729074 141.615039 
L 515.985477 140.656698 
L 517.24188 140.221089 
L 517.870082 139.698358 
L 518.498283 139.611236 
L 519.754686 138.696456 
L 521.011089 138.086603 
L 521.639291 137.825238 
L 522.267492 137.215385 
L 526.036701 135.864996 
L 527.921306 135.037338 
L 529.80591 134.471046 
L 531.062314 134.296802 
L 531.690515 134.035436 
L 532.318717 133.948315 
L 533.57512 133.425583 
L 534.203321 133.382022 
L 536.716127 132.467243 
L 538.600732 131.160415 
L 539.228933 130.899049 
L 540.485336 130.245635 
L 541.113538 130.027831 
L 543.626344 128.546759 
L 544.254545 128.15471 
L 545.510948 127.849784 
L 547.395553 126.804322 
L 549.280158 126.194468 
L 549.908359 125.933103 
L 551.164762 125.628176 
L 554.30577 124.626275 
L 556.190374 124.277787 
L 558.70318 123.493691 
L 559.331382 123.232325 
L 559.959583 123.145203 
L 560.587785 122.840277 
L 561.844188 122.578911 
L 563.100591 122.143302 
L 563.728793 121.925497 
L 564.985196 121.794814 
L 566.241599 121.489888 
L 568.126203 121.184961 
L 568.754405 120.967156 
L 570.010808 120.836474 
L 575.664621 119.181158 
L 576.292823 118.963354 
L 576.921024 118.919793 
L 580.690234 117.787208 
L 581.946637 117.351599 
L 582.574838 117.264477 
L 584.459443 116.611063 
L 585.087644 116.611063 
L 586.344047 116.175454 
L 586.972249 115.565601 
L 587.60045 115.260674 
L 588.856853 114.868626 
L 591.369659 113.910285 
L 591.997861 113.779602 
L 592.626062 113.387554 
L 593.254264 113.256871 
L 593.882466 112.908384 
L 597.023473 111.993604 
L 597.651675 111.601556 
L 598.279876 111.470873 
L 598.908078 110.948142 
L 600.792682 110.599654 
L 602.049085 109.902679 
L 602.677287 109.205704 
L 603.93369 108.944339 
L 608.3311 107.942437 
L 608.959302 107.768194 
L 610.215705 107.724633 
L 610.843907 107.419706 
L 613.356713 106.984097 
L 613.984914 106.67917 
L 615.869519 106.417805 
L 618.382325 105.633708 
L 620.266929 105.198099 
L 622.151534 104.718928 
L 624.66434 103.934831 
L 625.292542 103.804149 
L 625.920743 103.499222 
L 626.548945 103.4121 
L 627.177146 103.194296 
L 627.805348 102.845808 
L 629.689952 102.192394 
L 630.318154 101.713224 
L 631.574557 101.364736 
L 632.202758 101.103371 
L 633.459161 100.754883 
L 635.971967 99.622299 
L 637.856572 99.491616 
L 640.369378 98.707519 
L 640.99758 98.315471 
L 642.253983 97.966984 
L 644.138587 97.008643 
L 644.766789 96.87796 
L 645.39499 96.573034 
L 646.023192 96.529473 
L 652.933408 94.220743 
L 655.446214 93.61089 
L 656.074416 93.436646 
L 657.330819 92.870354 
L 657.959021 92.783232 
L 659.215424 92.434745 
L 659.843625 91.955575 
L 660.471827 91.650648 
L 661.100028 90.910112 
L 661.72823 90.474503 
L 662.984633 90.082455 
L 663.612834 89.559723 
L 670.523051 86.728263 
L 671.779454 86.423336 
L 673.664059 85.552118 
L 674.920462 84.811582 
L 675.548663 84.680899 
L 676.176865 84.201729 
L 677.433268 83.591876 
L 678.689671 82.807779 
L 680.574275 81.93656 
L 681.202477 81.500951 
L 682.45888 81.02178 
L 683.715283 80.281245 
L 684.343484 79.976318 
L 684.971686 79.540709 
L 686.228089 79.105099 
L 686.85629 78.974417 
L 689.369097 77.841832 
L 692.510104 76.752809 
L 693.138306 76.709248 
L 693.766507 76.535004 
L 694.394709 76.142956 
L 695.02291 76.055834 
L 695.651112 75.838029 
L 697.535716 75.489542 
L 700.676724 73.877787 
L 701.933127 73.180812 
L 702.561328 73.093691 
L 704.445933 72.091789 
L 706.330538 71.394814 
L 708.215142 70.567156 
L 710.727948 69.565255 
L 711.35615 69.391011 
L 711.984351 68.998963 
L 713.240754 68.824719 
L 713.868956 68.432671 
L 714.497157 68.38911 
L 715.75356 67.997061 
L 717.009963 67.387208 
L 717.638165 67.300086 
L 718.266366 67.038721 
L 718.894568 66.908038 
L 720.779173 66.08038 
L 721.407374 65.949697 
L 722.035576 65.688332 
L 725.176583 64.947796 
L 727.061188 64.20726 
L 729.573994 62.769749 
L 730.830397 62.290579 
L 731.458598 61.898531 
L 732.715001 61.637165 
L 733.343203 61.288678 
L 733.971404 61.157995 
L 735.227807 60.46102 
L 738.997017 58.718583 
L 742.766226 57.411755 
L 744.022629 56.758341 
L 745.279032 56.366292 
L 745.907233 56.235609 
L 746.535435 55.930683 
L 747.163636 55.8 
L 747.163636 55.8 
" clip-path="url(#p01317310e9)" style="fill: none; stroke: #1f77b4; stroke-width: 1.5; stroke-linecap: square"/>
   </g>
   <g id="line2d_36">
    <path d="M 139.064565 307.8 
L 140.94917 307.712878 
L 142.833774 307.669317 
L 146.602983 307.582195 
L 149.743991 307.451513 
L 152.256797 307.451513 
L 152.884999 307.277269 
L 155.397805 307.190147 
L 157.282409 306.972342 
L 159.167014 306.798099 
L 162.936223 306.623855 
L 163.564424 306.623855 
L 164.192626 306.493172 
L 166.705432 306.40605 
L 167.961835 306.318928 
L 172.987447 306.231806 
L 176.128455 306.101124 
L 183.666873 306.014002 
L 186.807881 305.883319 
L 190.57709 305.796197 
L 193.089896 305.709075 
L 198.74371 305.621953 
L 200.628314 305.578392 
L 202.512919 305.534831 
L 204.397523 305.317027 
L 208.166732 305.273466 
L 209.423135 305.186344 
L 213.820546 305.099222 
L 220.730763 304.707174 
L 225.128173 304.620052 
L 226.384576 304.53293 
L 228.269181 304.445808 
L 232.03839 304.271564 
L 234.551196 304.228003 
L 236.435801 304.05376 
L 246.487025 303.443907 
L 248.999831 303.356785 
L 253.397242 303.13898 
L 255.281846 303.051858 
L 261.563862 302.703371 
L 268.474078 302.616249 
L 270.986884 302.354883 
L 272.243287 302.267761 
L 280.409907 301.614347 
L 284.179116 301.135177 
L 286.691922 301.048055 
L 291.717534 300.394641 
L 294.858542 300.307519 
L 303.025162 299.654105 
L 306.166169 299.305618 
L 308.678976 299.218496 
L 309.935379 299.131374 
L 312.448185 299.044252 
L 313.704588 298.957131 
L 316.845595 298.652204 
L 317.473797 298.47796 
L 321.243006 298.303717 
L 324.384014 298.216595 
L 332.550633 297.737424 
L 334.435238 297.650303 
L 342.601858 297.171132 
L 346.999268 297.08401 
L 347.62747 296.953328 
L 352.653082 296.866206 
L 357.050493 296.648401 
L 363.960709 296.561279 
L 368.35812 296.343475 
L 373.383732 296.256353 
L 378.409344 295.994987 
L 382.806755 295.907865 
L 394.742584 295.167329 
L 399.768196 295.080207 
L 416.101435 294.034745 
L 419.870645 293.947623 
L 421.755249 293.904062 
L 423.639854 293.860501 
L 425.524458 293.686258 
L 430.55007 293.599136 
L 431.806473 293.381331 
L 433.062876 293.294209 
L 436.203884 293.163526 
L 437.460287 293.076404 
L 438.71669 292.989283 
L 444.370504 292.902161 
L 445.626907 292.771478 
L 448.139713 292.727917 
L 448.767914 292.597234 
L 450.024317 292.510112 
L 450.652519 292.37943 
L 452.537124 292.292308 
L 463.216549 291.638894 
L 465.101154 291.551772 
L 468.242162 291.421089 
L 477.036983 291.333967 
L 481.434393 291.116162 
L 486.460006 291.029041 
L 488.972812 290.941919 
L 491.485618 290.898358 
L 492.742021 290.767675 
L 495.254827 290.680553 
L 501.536842 290.332066 
L 505.306051 290.288505 
L 507.190656 290.114261 
L 509.07526 290.0707 
L 513.472671 289.983578 
L 515.985477 289.896456 
L 523.523895 289.809334 
L 526.664903 289.678652 
L 530.434112 289.59153 
L 532.318717 289.373725 
L 536.087926 289.330164 
L 537.97253 289.15592 
L 540.485336 289.068799 
L 548.023755 288.981677 
L 551.164762 288.850994 
L 561.844188 288.807433 
L 563.100591 288.720311 
L 564.985196 288.67675 
L 573.151815 288.589628 
L 574.408218 288.502506 
L 581.318435 288.415385 
L 583.831241 288.328263 
L 591.369659 288.284702 
L 592.626062 288.19758 
L 602.049085 288.154019 
L 603.93369 287.979775 
L 614.613116 287.892653 
L 616.49772 287.849092 
L 632.83096 287.761971 
L 634.715564 287.71841 
L 646.651393 287.631288 
L 649.164199 287.544166 
L 653.56161 287.457044 
L 658.587222 287.195678 
L 661.100028 287.108557 
L 663.612834 287.021435 
L 667.382043 286.934313 
L 669.266648 286.890752 
L 671.779454 286.80363 
L 673.664059 286.760069 
L 676.805066 286.672947 
L 678.061469 286.585825 
L 681.830678 286.498704 
L 684.971686 286.368021 
L 686.228089 286.32446 
L 688.112693 286.150216 
L 691.881903 286.063094 
L 694.394709 285.975972 
L 700.676724 285.88885 
L 703.817731 285.758168 
L 710.099747 285.671046 
L 714.497157 285.453241 
L 720.150971 285.366119 
L 721.407374 285.278997 
L 728.945792 285.191876 
L 730.830397 285.148315 
L 737.740614 285.061193 
L 740.25342 284.799827 
L 742.138024 284.756266 
L 745.907233 284.669144 
L 747.163636 284.625583 
L 747.163636 284.625583 
" clip-path="url(#p01317310e9)" style="fill: none; stroke: #ff7f0e; stroke-width: 1.5; stroke-linecap: square"/>
   </g>
   <g id="patch_3">
    <path d="M 108 320.4 
L 108 43.2 
" style="fill: none; stroke: #a9a9a9; stroke-width: 0.8; stroke-linejoin: miter; stroke-linecap: square"/>
   </g>
   <g id="patch_4">
    <path d="M 777.6 320.4 
L 777.6 43.2 
" style="fill: none"/>
   </g>
   <g id="patch_5">
    <path d="M 108 320.4 
L 777.6 320.4 
" style="fill: none; stroke: #a9a9a9; stroke-width: 0.8; stroke-linejoin: miter; stroke-linecap: square"/>
   </g>
   <g id="patch_6">
    <path d="M 108 43.2 
L 777.6 43.2 
" style="fill: none"/>
   </g>
   <g id="text_18">
    <!-- get_subscribe history -->
    <g style="fill: #a9a9a9" transform="translate(378.6075 37.2) scale(0.12 -0.12)">
     <defs>
      <path id="DejaVuSans-67" d="M 2906 1791 
Q 2906 2416 2648 2759 
Q 2391 3103 1925 3103 
Q 1463 3103 1205 2759 
Q 947 2416 947 1791 
Q 947 1169 1205 825 
Q 1463 481 1925 481 
Q 2391 481 2648 825 
Q 2906 1169 2906 1791 
z
M 3481 434 
Q 3481 -459 3084 -895 
Q 2688 -1331 1869 -1331 
Q 1566 -1331 1297 -1286 
Q 1028 -1241 775 -1147 
L 775 -588 
Q 1028 -725 1275 -790 
Q 1522 -856 1778 -856 
Q 2344 -856 2625 -561 
Q 2906 -266 2906 331 
L 2906 616 
Q 2728 306 2450 153 
Q 2172 0 1784 0 
Q 1141 0 747 490 
Q 353 981 353 1791 
Q 353 2603 747 3093 
Q 1141 3584 1784 3584 
Q 2172 3584 2450 3431 
Q 2728 3278 2906 2969 
L 2906 3500 
L 3481 3500 
L 3481 434 
z
" transform="scale(0.015625)"/>
      <path id="DejaVuSans-65" d="M 3597 1894 
L 3597 1613 
L 953 1613 
Q 991 1019 1311 708 
Q 1631 397 2203 397 
Q 2534 397 2845 478 
Q 3156 559 3463 722 
L 3463 178 
Q 3153 47 2828 -22 
Q 2503 -91 2169 -91 
Q 1331 -91 842 396 
Q 353 884 353 1716 
Q 353 2575 817 3079 
Q 1281 3584 2069 3584 
Q 2775 3584 3186 3129 
Q 3597 2675 3597 1894 
z
M 3022 2063 
Q 3016 2534 2758 2815 
Q 2500 3097 2075 3097 
Q 1594 3097 1305 2825 
Q 1016 2553 972 2059 
L 3022 2063 
z
" transform="scale(0.015625)"/>
      <path id="DejaVuSans-74" d="M 1172 4494 
L 1172 3500 
L 2356 3500 
L 2356 3053 
L 1172 3053 
L 1172 1153 
Q 1172 725 1289 603 
Q 1406 481 1766 481 
L 2356 481 
L 2356 0 
L 1766 0 
Q 1100 0 847 248 
Q 594 497 594 1153 
L 594 3053 
L 172 3053 
L 172 3500 
L 594 3500 
L 594 4494 
L 1172 4494 
z
" transform="scale(0.015625)"/>
      <path id="DejaVuSans-5f" d="M 3263 -1063 
L 3263 -1509 
L -63 -1509 
L -63 -1063 
L 3263 -1063 
z
" transform="scale(0.015625)"/>
      <path id="DejaVuSans-73" d="M 2834 3397 
L 2834 2853 
Q 2591 2978 2328 3040 
Q 2066 3103 1784 3103 
Q 1356 3103 1142 2972 
Q 928 2841 928 2578 
Q 928 2378 1081 2264 
Q 1234 2150 1697 2047 
L 1894 2003 
Q 2506 1872 2764 1633 
Q 3022 1394 3022 966 
Q 3022 478 2636 193 
Q 2250 -91 1575 -91 
Q 1294 -91 989 -36 
Q 684 19 347 128 
L 347 722 
Q 666 556 975 473 
Q 1284 391 1588 391 
Q 1994 391 2212 530 
Q 2431 669 2431 922 
Q 2431 1156 2273 1281 
Q 2116 1406 1581 1522 
L 1381 1569 
Q 847 1681 609 1914 
Q 372 2147 372 2553 
Q 372 3047 722 3315 
Q 1072 3584 1716 3584 
Q 2034 3584 2315 3537 
Q 2597 3491 2834 3397 
z
" transform="scale(0.015625)"/>
      <path id="DejaVuSans-75" d="M 544 1381 
L 544 3500 
L 1119 3500 
L 1119 1403 
Q 1119 906 1312 657 
Q 1506 409 1894 409 
Q 2359 409 2629 706 
Q 2900 1003 2900 1516 
L 2900 3500 
L 3475 3500 
L 3475 0 
L 2900 0 
L 2900 538 
Q 2691 219 2414 64 
Q 2138 -91 1772 -91 
Q 1169 -91 856 284 
Q 544 659 544 1381 
z
M 1991 3584 
L 1991 3584 
z
" transform="scale(0.015625)"/>
      <path id="DejaVuSans-62" d="M 3116 1747 
Q 3116 2381 2855 2742 
Q 2594 3103 2138 3103 
Q 1681 3103 1420 2742 
Q 1159 2381 1159 1747 
Q 1159 1113 1420 752 
Q 1681 391 2138 391 
Q 2594 391 2855 752 
Q 3116 1113 3116 1747 
z
M 1159 2969 
Q 1341 3281 1617 3432 
Q 1894 3584 2278 3584 
Q 2916 3584 3314 3078 
Q 3713 2572 3713 1747 
Q 3713 922 3314 415 
Q 2916 -91 2278 -91 
Q 1894 -91 1617 61 
Q 1341 213 1159 525 
L 1159 0 
L 581 0 
L 581 4863 
L 1159 4863 
L 1159 2969 
z
" transform="scale(0.015625)"/>
      <path id="DejaVuSans-63" d="M 3122 3366 
L 3122 2828 
Q 2878 2963 2633 3030 
Q 2388 3097 2138 3097 
Q 1578 3097 1268 2742 
Q 959 2388 959 1747 
Q 959 1106 1268 751 
Q 1578 397 2138 397 
Q 2388 397 2633 464 
Q 2878 531 3122 666 
L 3122 134 
Q 2881 22 2623 -34 
Q 2366 -91 2075 -91 
Q 1284 -91 818 406 
Q 353 903 353 1747 
Q 353 2603 823 3093 
Q 1294 3584 2113 3584 
Q 2378 3584 2631 3529 
Q 2884 3475 3122 3366 
z
" transform="scale(0.015625)"/>
      <path id="DejaVuSans-72" d="M 2631 2963 
Q 2534 3019 2420 3045 
Q 2306 3072 2169 3072 
Q 1681 3072 1420 2755 
Q 1159 2438 1159 1844 
L 1159 0 
L 581 0 
L 581 3500 
L 1159 3500 
L 1159 2956 
Q 1341 3275 1631 3429 
Q 1922 3584 2338 3584 
Q 2397 3584 2469 3576 
Q 2541 3569 2628 3553 
L 2631 2963 
z
" transform="scale(0.015625)"/>
      <path id="DejaVuSans-69" d="M 603 3500 
L 1178 3500 
L 1178 0 
L 603 0 
L 603 3500 
z
M 603 4863 
L 1178 4863 
L 1178 4134 
L 603 4134 
L 603 4863 
z
" transform="scale(0.015625)"/>
      <path id="DejaVuSans-20" transform="scale(0.015625)"/>
      <path id="DejaVuSans-68" d="M 3513 2113 
L 3513 0 
L 2938 0 
L 2938 2094 
Q 2938 2591 2744 2837 
Q 2550 3084 2163 3084 
Q 1697 3084 1428 2787 
Q 1159 2491 1159 1978 
L 1159 0 
L 581 0 
L 581 4863 
L 1159 4863 
L 1159 2956 
Q 1366 3272 1645 3428 
Q 1925 3584 2291 3584 
Q 2894 3584 3203 3211 
Q 3513 2838 3513 2113 
z
" transform="scale(0.015625)"/>
      <path id="DejaVuSans-6f" d="M 1959 3097 
Q 1497 3097 1228 2736 
Q 959 2375 959 1747 
Q 959 1119 1226 758 
Q 1494 397 1959 397 
Q 2419 397 2687 759 
Q 2956 1122 2956 1747 
Q 2956 2369 2687 2733 
Q 2419 3097 1959 3097 
z
M 1959 3584 
Q 2709 3584 3137 3096 
Q 3566 2609 3566 1747 
Q 3566 888 3137 398 
Q 2709 -91 1959 -91 
Q 1206 -91 779 398 
Q 353 888 353 1747 
Q 353 2609 779 3096 
Q 1206 3584 1959 3584 
z
" transform="scale(0.015625)"/>
      <path id="DejaVuSans-79" d="M 2059 -325 
Q 1816 -950 1584 -1140 
Q 1353 -1331 966 -1331 
L 506 -1331 
L 506 -850 
L 844 -850 
Q 1081 -850 1212 -737 
Q 1344 -625 1503 -206 
L 1606 56 
L 191 3500 
L 800 3500 
L 1894 763 
L 2988 3500 
L 3597 3500 
L 2059 -325 
z
" transform="scale(0.015625)"/>
     </defs>
     <use xlink:href="#DejaVuSans-67"/>
     <use xlink:href="#DejaVuSans-65" x="63.476562"/>
     <use xlink:href="#DejaVuSans-74" x="125"/>
     <use xlink:href="#DejaVuSans-5f" x="164.208984"/>
     <use xlink:href="#DejaVuSans-73" x="214.208984"/>
     <use xlink:href="#DejaVuSans-75" x="266.308594"/>
     <use xlink:href="#DejaVuSans-62" x="329.6875"/>
     <use xlink:href="#DejaVuSans-73" x="393.164062"/>
     <use xlink:href="#DejaVuSans-63" x="445.263672"/>
     <use xlink:href="#DejaVuSans-72" x="500.244141"/>
     <use xlink:href="#DejaVuSans-69" x="541.357422"/>
     <use xlink:href="#DejaVuSans-62" x="569.140625"/>
     <use xlink:href="#DejaVuSans-65" x="632.617188"/>
     <use xlink:href="#DejaVuSans-20" x="694.140625"/>
     <use xlink:href="#DejaVuSans-68" x="725.927734"/>
     <use xlink:href="#DejaVuSans-69" x="789.306641"/>
     <use xlink:href="#DejaVuSans-73" x="817.089844"/>
     <use xlink:href="#DejaVuSans-74" x="869.189453"/>
     <use xlink:href="#DejaVuSans-6f" x="908.398438"/>
     <use xlink:href="#DejaVuSans-72" x="969.580078"/>
     <use xlink:href="#DejaVuSans-79" x="1010.693359"/>
    </g>
   </g>
   <g id="legend_1">
    <g id="line2d_37">
     <path d="M 815.08 328.498438 
L 825.08 328.498438 
L 835.08 328.498438 
" style="fill: none; stroke: #1f77b4; stroke-width: 1.5; stroke-linecap: square"/>
    </g>
    <g id="text_19">
     <!-- star -->
     <g style="fill: #a9a9a9" transform="translate(843.08 331.998438) scale(0.1 -0.1)">
      <defs>
       <path id="DejaVuSans-61" d="M 2194 1759 
Q 1497 1759 1228 1600 
Q 959 1441 959 1056 
Q 959 750 1161 570 
Q 1363 391 1709 391 
Q 2188 391 2477 730 
Q 2766 1069 2766 1631 
L 2766 1759 
L 2194 1759 
z
M 3341 1997 
L 3341 0 
L 2766 0 
L 2766 531 
Q 2569 213 2275 61 
Q 1981 -91 1556 -91 
Q 1019 -91 701 211 
Q 384 513 384 1019 
Q 384 1609 779 1909 
Q 1175 2209 1959 2209 
L 2766 2209 
L 2766 2266 
Q 2766 2663 2505 2880 
Q 2244 3097 1772 3097 
Q 1472 3097 1187 3025 
Q 903 2953 641 2809 
L 641 3341 
Q 956 3463 1253 3523 
Q 1550 3584 1831 3584 
Q 2591 3584 2966 3190 
Q 3341 2797 3341 1997 
z
" transform="scale(0.015625)"/>
      </defs>
      <use xlink:href="#DejaVuSans-73"/>
      <use xlink:href="#DejaVuSans-74" x="52.099609"/>
      <use xlink:href="#DejaVuSans-61" x="91.308594"/>
      <use xlink:href="#DejaVuSans-72" x="152.587891"/>
     </g>
    </g>
    <g id="line2d_38">
     <path d="M 815.08 343.176562 
L 825.08 343.176562 
L 835.08 343.176562 
" style="fill: none; stroke: #ff7f0e; stroke-width: 1.5; stroke-linecap: square"/>
    </g>
    <g id="text_20">
     <!-- fork -->
     <g style="fill: #a9a9a9" transform="translate(843.08 346.676562) scale(0.1 -0.1)">
      <defs>
       <path id="DejaVuSans-66" d="M 2375 4863 
L 2375 4384 
L 1825 4384 
Q 1516 4384 1395 4259 
Q 1275 4134 1275 3809 
L 1275 3500 
L 2222 3500 
L 2222 3053 
L 1275 3053 
L 1275 0 
L 697 0 
L 697 3053 
L 147 3053 
L 147 3500 
L 697 3500 
L 697 3744 
Q 697 4328 969 4595 
Q 1241 4863 1831 4863 
L 2375 4863 
z
" transform="scale(0.015625)"/>
       <path id="DejaVuSans-6b" d="M 581 4863 
L 1159 4863 
L 1159 1991 
L 2875 3500 
L 3609 3500 
L 1753 1863 
L 3688 0 
L 2938 0 
L 1159 1709 
L 1159 0 
L 581 0 
L 581 4863 
z
" transform="scale(0.015625)"/>
      </defs>
      <use xlink:href="#DejaVuSans-66"/>
      <use xlink:href="#DejaVuSans-6f" x="35.205078"/>
      <use xlink:href="#DejaVuSans-72" x="96.386719"/>
      <use xlink:href="#DejaVuSans-6b" x="137.5"/>
     </g>
    </g>
   </g>
  </g>
 </g>
 <defs>
  <clipPath id="p01317310e9">
   <rect x="108" y="43.2" width="669.6" height="277.2"/>
  </clipPath>
 </defs>
</svg>
