<?xml version="1.0" encoding="utf-8" standalone="no"?>
<!DOCTYPE svg PUBLIC "-//W3C//DTD SVG 1.1//EN"
  "http://www.w3.org/Graphics/SVG/1.1/DTD/svg11.dtd">
<svg xmlns:xlink="http://www.w3.org/1999/xlink" width="864pt" height="360pt" viewBox="0 0 864 360" xmlns="http://www.w3.org/2000/svg" version="1.1">
 <metadata>
  <rdf:RDF xmlns:dc="http://purl.org/dc/elements/1.1/" xmlns:cc="http://creativecommons.org/ns#" xmlns:rdf="http://www.w3.org/1999/02/22-rdf-syntax-ns#">
   <cc:Work>
    <dc:type rdf:resource="http://purl.org/dc/dcmitype/StillImage"/>
    <dc:date>2024-03-21T08:12:05.525230</dc:date>
    <dc:format>image/svg+xml</dc:format>
    <dc:creator>
     <cc:Agent>
      <dc:title>Matplotlib v3.8.3, https://matplotlib.org/</dc:title>
     </cc:Agent>
    </dc:creator>
   </cc:Work>
  </rdf:RDF>
 </metadata>
 <defs>
  <style type="text/css">*{stroke-linejoin: round; stroke-linecap: butt}</style>
 </defs>
 <g id="figure_1">
  <g id="patch_1">
   <path d="M 0 360 
L 864 360 
L 864 0 
L 0 0 
L 0 360 
z
" style="fill: none; opacity: 0"/>
  </g>
  <g id="axes_1">
   <g id="patch_2">
    <path d="M 108 320.4 
L 777.6 320.4 
L 777.6 43.2 
L 108 43.2 
L 108 320.4 
z
" style="fill: none; opacity: 0"/>
   </g>
   <g id="matplotlib.axis_1">
    <g id="xtick_1">
     <g id="line2d_1">
      <path d="M 162.88576 320.4 
L 162.88576 43.2 
" clip-path="url(#pe0f0ca8a27)" style="fill: none; stroke-dasharray: 5.12,1.28,0.8,1.28; stroke-dashoffset: 0; stroke: #b0b0b0; stroke-width: 0.8"/>
     </g>
     <g id="line2d_2">
      <defs>
       <path id="m22c5c0735e" d="M 0 0 
L 0 3.5 
" style="stroke: #a9a9a9; stroke-width: 0.8"/>
      </defs>
      <g>
       <use xlink:href="#m22c5c0735e" x="162.88576" y="320.4" style="fill: #a9a9a9; stroke: #a9a9a9; stroke-width: 0.8"/>
      </g>
     </g>
     <g id="text_1">
      <!-- 2021-09 -->
      <g style="fill: #a9a9a9" transform="translate(141.994354 334.998438) scale(0.1 -0.1)">
       <defs>
        <path id="DejaVuSans-32" d="M 1228 531 
L 3431 531 
L 3431 0 
L 469 0 
L 469 531 
Q 828 903 1448 1529 
Q 2069 2156 2228 2338 
Q 2531 2678 2651 2914 
Q 2772 3150 2772 3378 
Q 2772 3750 2511 3984 
Q 2250 4219 1831 4219 
Q 1534 4219 1204 4116 
Q 875 4013 500 3803 
L 500 4441 
Q 881 4594 1212 4672 
Q 1544 4750 1819 4750 
Q 2544 4750 2975 4387 
Q 3406 4025 3406 3419 
Q 3406 3131 3298 2873 
Q 3191 2616 2906 2266 
Q 2828 2175 2409 1742 
Q 1991 1309 1228 531 
z
" transform="scale(0.015625)"/>
        <path id="DejaVuSans-30" d="M 2034 4250 
Q 1547 4250 1301 3770 
Q 1056 3291 1056 2328 
Q 1056 1369 1301 889 
Q 1547 409 2034 409 
Q 2525 409 2770 889 
Q 3016 1369 3016 2328 
Q 3016 3291 2770 3770 
Q 2525 4250 2034 4250 
z
M 2034 4750 
Q 2819 4750 3233 4129 
Q 3647 3509 3647 2328 
Q 3647 1150 3233 529 
Q 2819 -91 2034 -91 
Q 1250 -91 836 529 
Q 422 1150 422 2328 
Q 422 3509 836 4129 
Q 1250 4750 2034 4750 
z
" transform="scale(0.015625)"/>
        <path id="DejaVuSans-31" d="M 794 531 
L 1825 531 
L 1825 4091 
L 703 3866 
L 703 4441 
L 1819 4666 
L 2450 4666 
L 2450 531 
L 3481 531 
L 3481 0 
L 794 0 
L 794 531 
z
" transform="scale(0.015625)"/>
        <path id="DejaVuSans-2d" d="M 313 2009 
L 1997 2009 
L 1997 1497 
L 313 1497 
L 313 2009 
z
" transform="scale(0.015625)"/>
        <path id="DejaVuSans-39" d="M 703 97 
L 703 672 
Q 941 559 1184 500 
Q 1428 441 1663 441 
Q 2288 441 2617 861 
Q 2947 1281 2994 2138 
Q 2813 1869 2534 1725 
Q 2256 1581 1919 1581 
Q 1219 1581 811 2004 
Q 403 2428 403 3163 
Q 403 3881 828 4315 
Q 1253 4750 1959 4750 
Q 2769 4750 3195 4129 
Q 3622 3509 3622 2328 
Q 3622 1225 3098 567 
Q 2575 -91 1691 -91 
Q 1453 -91 1209 -44 
Q 966 3 703 97 
z
M 1959 2075 
Q 2384 2075 2632 2365 
Q 2881 2656 2881 3163 
Q 2881 3666 2632 3958 
Q 2384 4250 1959 4250 
Q 1534 4250 1286 3958 
Q 1038 3666 1038 3163 
Q 1038 2656 1286 2365 
Q 1534 2075 1959 2075 
z
" transform="scale(0.015625)"/>
       </defs>
       <use xlink:href="#DejaVuSans-32"/>
       <use xlink:href="#DejaVuSans-30" x="63.623047"/>
       <use xlink:href="#DejaVuSans-32" x="127.246094"/>
       <use xlink:href="#DejaVuSans-31" x="190.869141"/>
       <use xlink:href="#DejaVuSans-2d" x="254.492188"/>
       <use xlink:href="#DejaVuSans-30" x="290.576172"/>
       <use xlink:href="#DejaVuSans-39" x="354.199219"/>
      </g>
     </g>
    </g>
    <g id="xtick_2">
     <g id="line2d_3">
      <path d="M 239.368486 320.4 
L 239.368486 43.2 
" clip-path="url(#pe0f0ca8a27)" style="fill: none; stroke-dasharray: 5.12,1.28,0.8,1.28; stroke-dashoffset: 0; stroke: #b0b0b0; stroke-width: 0.8"/>
     </g>
     <g id="line2d_4">
      <g>
       <use xlink:href="#m22c5c0735e" x="239.368486" y="320.4" style="fill: #a9a9a9; stroke: #a9a9a9; stroke-width: 0.8"/>
      </g>
     </g>
     <g id="text_2">
      <!-- 2022-01 -->
      <g style="fill: #a9a9a9" transform="translate(218.47708 334.998438) scale(0.1 -0.1)">
       <use xlink:href="#DejaVuSans-32"/>
       <use xlink:href="#DejaVuSans-30" x="63.623047"/>
       <use xlink:href="#DejaVuSans-32" x="127.246094"/>
       <use xlink:href="#DejaVuSans-32" x="190.869141"/>
       <use xlink:href="#DejaVuSans-2d" x="254.492188"/>
       <use xlink:href="#DejaVuSans-30" x="290.576172"/>
       <use xlink:href="#DejaVuSans-31" x="354.199219"/>
      </g>
     </g>
    </g>
    <g id="xtick_3">
     <g id="line2d_5">
      <path d="M 314.597397 320.4 
L 314.597397 43.2 
" clip-path="url(#pe0f0ca8a27)" style="fill: none; stroke-dasharray: 5.12,1.28,0.8,1.28; stroke-dashoffset: 0; stroke: #b0b0b0; stroke-width: 0.8"/>
     </g>
     <g id="line2d_6">
      <g>
       <use xlink:href="#m22c5c0735e" x="314.597397" y="320.4" style="fill: #a9a9a9; stroke: #a9a9a9; stroke-width: 0.8"/>
      </g>
     </g>
     <g id="text_3">
      <!-- 2022-05 -->
      <g style="fill: #a9a9a9" transform="translate(293.705991 334.998438) scale(0.1 -0.1)">
       <defs>
        <path id="DejaVuSans-35" d="M 691 4666 
L 3169 4666 
L 3169 4134 
L 1269 4134 
L 1269 2991 
Q 1406 3038 1543 3061 
Q 1681 3084 1819 3084 
Q 2600 3084 3056 2656 
Q 3513 2228 3513 1497 
Q 3513 744 3044 326 
Q 2575 -91 1722 -91 
Q 1428 -91 1123 -41 
Q 819 9 494 109 
L 494 744 
Q 775 591 1075 516 
Q 1375 441 1709 441 
Q 2250 441 2565 725 
Q 2881 1009 2881 1497 
Q 2881 1984 2565 2268 
Q 2250 2553 1709 2553 
Q 1456 2553 1204 2497 
Q 953 2441 691 2322 
L 691 4666 
z
" transform="scale(0.015625)"/>
       </defs>
       <use xlink:href="#DejaVuSans-32"/>
       <use xlink:href="#DejaVuSans-30" x="63.623047"/>
       <use xlink:href="#DejaVuSans-32" x="127.246094"/>
       <use xlink:href="#DejaVuSans-32" x="190.869141"/>
       <use xlink:href="#DejaVuSans-2d" x="254.492188"/>
       <use xlink:href="#DejaVuSans-30" x="290.576172"/>
       <use xlink:href="#DejaVuSans-35" x="354.199219"/>
      </g>
     </g>
    </g>
    <g id="xtick_4">
     <g id="line2d_7">
      <path d="M 391.707031 320.4 
L 391.707031 43.2 
" clip-path="url(#pe0f0ca8a27)" style="fill: none; stroke-dasharray: 5.12,1.28,0.8,1.28; stroke-dashoffset: 0; stroke: #b0b0b0; stroke-width: 0.8"/>
     </g>
     <g id="line2d_8">
      <g>
       <use xlink:href="#m22c5c0735e" x="391.707031" y="320.4" style="fill: #a9a9a9; stroke: #a9a9a9; stroke-width: 0.8"/>
      </g>
     </g>
     <g id="text_4">
      <!-- 2022-09 -->
      <g style="fill: #a9a9a9" transform="translate(370.815625 334.998438) scale(0.1 -0.1)">
       <use xlink:href="#DejaVuSans-32"/>
       <use xlink:href="#DejaVuSans-30" x="63.623047"/>
       <use xlink:href="#DejaVuSans-32" x="127.246094"/>
       <use xlink:href="#DejaVuSans-32" x="190.869141"/>
       <use xlink:href="#DejaVuSans-2d" x="254.492188"/>
       <use xlink:href="#DejaVuSans-30" x="290.576172"/>
       <use xlink:href="#DejaVuSans-39" x="354.199219"/>
      </g>
     </g>
    </g>
    <g id="xtick_5">
     <g id="line2d_9">
      <path d="M 468.189758 320.4 
L 468.189758 43.2 
" clip-path="url(#pe0f0ca8a27)" style="fill: none; stroke-dasharray: 5.12,1.28,0.8,1.28; stroke-dashoffset: 0; stroke: #b0b0b0; stroke-width: 0.8"/>
     </g>
     <g id="line2d_10">
      <g>
       <use xlink:href="#m22c5c0735e" x="468.189758" y="320.4" style="fill: #a9a9a9; stroke: #a9a9a9; stroke-width: 0.8"/>
      </g>
     </g>
     <g id="text_5">
      <!-- 2023-01 -->
      <g style="fill: #a9a9a9" transform="translate(447.298351 334.998438) scale(0.1 -0.1)">
       <defs>
        <path id="DejaVuSans-33" d="M 2597 2516 
Q 3050 2419 3304 2112 
Q 3559 1806 3559 1356 
Q 3559 666 3084 287 
Q 2609 -91 1734 -91 
Q 1441 -91 1130 -33 
Q 819 25 488 141 
L 488 750 
Q 750 597 1062 519 
Q 1375 441 1716 441 
Q 2309 441 2620 675 
Q 2931 909 2931 1356 
Q 2931 1769 2642 2001 
Q 2353 2234 1838 2234 
L 1294 2234 
L 1294 2753 
L 1863 2753 
Q 2328 2753 2575 2939 
Q 2822 3125 2822 3475 
Q 2822 3834 2567 4026 
Q 2313 4219 1838 4219 
Q 1578 4219 1281 4162 
Q 984 4106 628 3988 
L 628 4550 
Q 988 4650 1302 4700 
Q 1616 4750 1894 4750 
Q 2613 4750 3031 4423 
Q 3450 4097 3450 3541 
Q 3450 3153 3228 2886 
Q 3006 2619 2597 2516 
z
" transform="scale(0.015625)"/>
       </defs>
       <use xlink:href="#DejaVuSans-32"/>
       <use xlink:href="#DejaVuSans-30" x="63.623047"/>
       <use xlink:href="#DejaVuSans-32" x="127.246094"/>
       <use xlink:href="#DejaVuSans-33" x="190.869141"/>
       <use xlink:href="#DejaVuSans-2d" x="254.492188"/>
       <use xlink:href="#DejaVuSans-30" x="290.576172"/>
       <use xlink:href="#DejaVuSans-31" x="354.199219"/>
      </g>
     </g>
    </g>
    <g id="xtick_6">
     <g id="line2d_11">
      <path d="M 543.418669 320.4 
L 543.418669 43.2 
" clip-path="url(#pe0f0ca8a27)" style="fill: none; stroke-dasharray: 5.12,1.28,0.8,1.28; stroke-dashoffset: 0; stroke: #b0b0b0; stroke-width: 0.8"/>
     </g>
     <g id="line2d_12">
      <g>
       <use xlink:href="#m22c5c0735e" x="543.418669" y="320.4" style="fill: #a9a9a9; stroke: #a9a9a9; stroke-width: 0.8"/>
      </g>
     </g>
     <g id="text_6">
      <!-- 2023-05 -->
      <g style="fill: #a9a9a9" transform="translate(522.527262 334.998438) scale(0.1 -0.1)">
       <use xlink:href="#DejaVuSans-32"/>
       <use xlink:href="#DejaVuSans-30" x="63.623047"/>
       <use xlink:href="#DejaVuSans-32" x="127.246094"/>
       <use xlink:href="#DejaVuSans-33" x="190.869141"/>
       <use xlink:href="#DejaVuSans-2d" x="254.492188"/>
       <use xlink:href="#DejaVuSans-30" x="290.576172"/>
       <use xlink:href="#DejaVuSans-35" x="354.199219"/>
      </g>
     </g>
    </g>
    <g id="xtick_7">
     <g id="line2d_13">
      <path d="M 620.528303 320.4 
L 620.528303 43.2 
" clip-path="url(#pe0f0ca8a27)" style="fill: none; stroke-dasharray: 5.12,1.28,0.8,1.28; stroke-dashoffset: 0; stroke: #b0b0b0; stroke-width: 0.8"/>
     </g>
     <g id="line2d_14">
      <g>
       <use xlink:href="#m22c5c0735e" x="620.528303" y="320.4" style="fill: #a9a9a9; stroke: #a9a9a9; stroke-width: 0.8"/>
      </g>
     </g>
     <g id="text_7">
      <!-- 2023-09 -->
      <g style="fill: #a9a9a9" transform="translate(599.636896 334.998438) scale(0.1 -0.1)">
       <use xlink:href="#DejaVuSans-32"/>
       <use xlink:href="#DejaVuSans-30" x="63.623047"/>
       <use xlink:href="#DejaVuSans-32" x="127.246094"/>
       <use xlink:href="#DejaVuSans-33" x="190.869141"/>
       <use xlink:href="#DejaVuSans-2d" x="254.492188"/>
       <use xlink:href="#DejaVuSans-30" x="290.576172"/>
       <use xlink:href="#DejaVuSans-39" x="354.199219"/>
      </g>
     </g>
    </g>
    <g id="xtick_8">
     <g id="line2d_15">
      <path d="M 697.011029 320.4 
L 697.011029 43.2 
" clip-path="url(#pe0f0ca8a27)" style="fill: none; stroke-dasharray: 5.12,1.28,0.8,1.28; stroke-dashoffset: 0; stroke: #b0b0b0; stroke-width: 0.8"/>
     </g>
     <g id="line2d_16">
      <g>
       <use xlink:href="#m22c5c0735e" x="697.011029" y="320.4" style="fill: #a9a9a9; stroke: #a9a9a9; stroke-width: 0.8"/>
      </g>
     </g>
     <g id="text_8">
      <!-- 2024-01 -->
      <g style="fill: #a9a9a9" transform="translate(676.119623 334.998438) scale(0.1 -0.1)">
       <defs>
        <path id="DejaVuSans-34" d="M 2419 4116 
L 825 1625 
L 2419 1625 
L 2419 4116 
z
M 2253 4666 
L 3047 4666 
L 3047 1625 
L 3713 1625 
L 3713 1100 
L 3047 1100 
L 3047 0 
L 2419 0 
L 2419 1100 
L 313 1100 
L 313 1709 
L 2253 4666 
z
" transform="scale(0.015625)"/>
       </defs>
       <use xlink:href="#DejaVuSans-32"/>
       <use xlink:href="#DejaVuSans-30" x="63.623047"/>
       <use xlink:href="#DejaVuSans-32" x="127.246094"/>
       <use xlink:href="#DejaVuSans-34" x="190.869141"/>
       <use xlink:href="#DejaVuSans-2d" x="254.492188"/>
       <use xlink:href="#DejaVuSans-30" x="290.576172"/>
       <use xlink:href="#DejaVuSans-31" x="354.199219"/>
      </g>
     </g>
    </g>
    <g id="xtick_9">
     <g id="line2d_17">
      <path d="M 772.866848 320.4 
L 772.866848 43.2 
" clip-path="url(#pe0f0ca8a27)" style="fill: none; stroke-dasharray: 5.12,1.28,0.8,1.28; stroke-dashoffset: 0; stroke: #b0b0b0; stroke-width: 0.8"/>
     </g>
     <g id="line2d_18">
      <g>
       <use xlink:href="#m22c5c0735e" x="772.866848" y="320.4" style="fill: #a9a9a9; stroke: #a9a9a9; stroke-width: 0.8"/>
      </g>
     </g>
     <g id="text_9">
      <!-- 2024-05 -->
      <g style="fill: #a9a9a9" transform="translate(751.975441 334.998438) scale(0.1 -0.1)">
       <use xlink:href="#DejaVuSans-32"/>
       <use xlink:href="#DejaVuSans-30" x="63.623047"/>
       <use xlink:href="#DejaVuSans-32" x="127.246094"/>
       <use xlink:href="#DejaVuSans-34" x="190.869141"/>
       <use xlink:href="#DejaVuSans-2d" x="254.492188"/>
       <use xlink:href="#DejaVuSans-30" x="290.576172"/>
       <use xlink:href="#DejaVuSans-35" x="354.199219"/>
      </g>
     </g>
    </g>
   </g>
   <g id="matplotlib.axis_2">
    <g id="ytick_1">
     <g id="line2d_19">
      <path d="M 108 307.843501 
L 777.6 307.843501 
" clip-path="url(#pe0f0ca8a27)" style="fill: none; stroke-dasharray: 5.12,1.28,0.8,1.28; stroke-dashoffset: 0; stroke: #b0b0b0; stroke-width: 0.8"/>
     </g>
     <g id="line2d_20">
      <defs>
       <path id="me4d501cb96" d="M 0 0 
L -3.5 0 
" style="stroke: #a9a9a9; stroke-width: 0.8"/>
      </defs>
      <g>
       <use xlink:href="#me4d501cb96" x="108" y="307.843501" style="fill: #a9a9a9; stroke: #a9a9a9; stroke-width: 0.8"/>
      </g>
     </g>
     <g id="text_10">
      <!-- 0 -->
      <g style="fill: #a9a9a9" transform="translate(94.6375 311.64272) scale(0.1 -0.1)">
       <use xlink:href="#DejaVuSans-30"/>
      </g>
     </g>
    </g>
    <g id="ytick_2">
     <g id="line2d_21">
      <path d="M 108 273.042879 
L 777.6 273.042879 
" clip-path="url(#pe0f0ca8a27)" style="fill: none; stroke-dasharray: 5.12,1.28,0.8,1.28; stroke-dashoffset: 0; stroke: #b0b0b0; stroke-width: 0.8"/>
     </g>
     <g id="line2d_22">
      <g>
       <use xlink:href="#me4d501cb96" x="108" y="273.042879" style="fill: #a9a9a9; stroke: #a9a9a9; stroke-width: 0.8"/>
      </g>
     </g>
     <g id="text_11">
      <!-- 800 -->
      <g style="fill: #a9a9a9" transform="translate(81.9125 276.842098) scale(0.1 -0.1)">
       <defs>
        <path id="DejaVuSans-38" d="M 2034 2216 
Q 1584 2216 1326 1975 
Q 1069 1734 1069 1313 
Q 1069 891 1326 650 
Q 1584 409 2034 409 
Q 2484 409 2743 651 
Q 3003 894 3003 1313 
Q 3003 1734 2745 1975 
Q 2488 2216 2034 2216 
z
M 1403 2484 
Q 997 2584 770 2862 
Q 544 3141 544 3541 
Q 544 4100 942 4425 
Q 1341 4750 2034 4750 
Q 2731 4750 3128 4425 
Q 3525 4100 3525 3541 
Q 3525 3141 3298 2862 
Q 3072 2584 2669 2484 
Q 3125 2378 3379 2068 
Q 3634 1759 3634 1313 
Q 3634 634 3220 271 
Q 2806 -91 2034 -91 
Q 1263 -91 848 271 
Q 434 634 434 1313 
Q 434 1759 690 2068 
Q 947 2378 1403 2484 
z
M 1172 3481 
Q 1172 3119 1398 2916 
Q 1625 2713 2034 2713 
Q 2441 2713 2670 2916 
Q 2900 3119 2900 3481 
Q 2900 3844 2670 4047 
Q 2441 4250 2034 4250 
Q 1625 4250 1398 4047 
Q 1172 3844 1172 3481 
z
" transform="scale(0.015625)"/>
       </defs>
       <use xlink:href="#DejaVuSans-38"/>
       <use xlink:href="#DejaVuSans-30" x="63.623047"/>
       <use xlink:href="#DejaVuSans-30" x="127.246094"/>
      </g>
     </g>
    </g>
    <g id="ytick_3">
     <g id="line2d_23">
      <path d="M 108 238.242258 
L 777.6 238.242258 
" clip-path="url(#pe0f0ca8a27)" style="fill: none; stroke-dasharray: 5.12,1.28,0.8,1.28; stroke-dashoffset: 0; stroke: #b0b0b0; stroke-width: 0.8"/>
     </g>
     <g id="line2d_24">
      <g>
       <use xlink:href="#me4d501cb96" x="108" y="238.242258" style="fill: #a9a9a9; stroke: #a9a9a9; stroke-width: 0.8"/>
      </g>
     </g>
     <g id="text_12">
      <!-- 1600 -->
      <g style="fill: #a9a9a9" transform="translate(75.55 242.041477) scale(0.1 -0.1)">
       <defs>
        <path id="DejaVuSans-36" d="M 2113 2584 
Q 1688 2584 1439 2293 
Q 1191 2003 1191 1497 
Q 1191 994 1439 701 
Q 1688 409 2113 409 
Q 2538 409 2786 701 
Q 3034 994 3034 1497 
Q 3034 2003 2786 2293 
Q 2538 2584 2113 2584 
z
M 3366 4563 
L 3366 3988 
Q 3128 4100 2886 4159 
Q 2644 4219 2406 4219 
Q 1781 4219 1451 3797 
Q 1122 3375 1075 2522 
Q 1259 2794 1537 2939 
Q 1816 3084 2150 3084 
Q 2853 3084 3261 2657 
Q 3669 2231 3669 1497 
Q 3669 778 3244 343 
Q 2819 -91 2113 -91 
Q 1303 -91 875 529 
Q 447 1150 447 2328 
Q 447 3434 972 4092 
Q 1497 4750 2381 4750 
Q 2619 4750 2861 4703 
Q 3103 4656 3366 4563 
z
" transform="scale(0.015625)"/>
       </defs>
       <use xlink:href="#DejaVuSans-31"/>
       <use xlink:href="#DejaVuSans-36" x="63.623047"/>
       <use xlink:href="#DejaVuSans-30" x="127.246094"/>
       <use xlink:href="#DejaVuSans-30" x="190.869141"/>
      </g>
     </g>
    </g>
    <g id="ytick_4">
     <g id="line2d_25">
      <path d="M 108 203.441636 
L 777.6 203.441636 
" clip-path="url(#pe0f0ca8a27)" style="fill: none; stroke-dasharray: 5.12,1.28,0.8,1.28; stroke-dashoffset: 0; stroke: #b0b0b0; stroke-width: 0.8"/>
     </g>
     <g id="line2d_26">
      <g>
       <use xlink:href="#me4d501cb96" x="108" y="203.441636" style="fill: #a9a9a9; stroke: #a9a9a9; stroke-width: 0.8"/>
      </g>
     </g>
     <g id="text_13">
      <!-- 2400 -->
      <g style="fill: #a9a9a9" transform="translate(75.55 207.240855) scale(0.1 -0.1)">
       <use xlink:href="#DejaVuSans-32"/>
       <use xlink:href="#DejaVuSans-34" x="63.623047"/>
       <use xlink:href="#DejaVuSans-30" x="127.246094"/>
       <use xlink:href="#DejaVuSans-30" x="190.869141"/>
      </g>
     </g>
    </g>
    <g id="ytick_5">
     <g id="line2d_27">
      <path d="M 108 168.641015 
L 777.6 168.641015 
" clip-path="url(#pe0f0ca8a27)" style="fill: none; stroke-dasharray: 5.12,1.28,0.8,1.28; stroke-dashoffset: 0; stroke: #b0b0b0; stroke-width: 0.8"/>
     </g>
     <g id="line2d_28">
      <g>
       <use xlink:href="#me4d501cb96" x="108" y="168.641015" style="fill: #a9a9a9; stroke: #a9a9a9; stroke-width: 0.8"/>
      </g>
     </g>
     <g id="text_14">
      <!-- 3200 -->
      <g style="fill: #a9a9a9" transform="translate(75.55 172.440234) scale(0.1 -0.1)">
       <use xlink:href="#DejaVuSans-33"/>
       <use xlink:href="#DejaVuSans-32" x="63.623047"/>
       <use xlink:href="#DejaVuSans-30" x="127.246094"/>
       <use xlink:href="#DejaVuSans-30" x="190.869141"/>
      </g>
     </g>
    </g>
    <g id="ytick_6">
     <g id="line2d_29">
      <path d="M 108 133.840394 
L 777.6 133.840394 
" clip-path="url(#pe0f0ca8a27)" style="fill: none; stroke-dasharray: 5.12,1.28,0.8,1.28; stroke-dashoffset: 0; stroke: #b0b0b0; stroke-width: 0.8"/>
     </g>
     <g id="line2d_30">
      <g>
       <use xlink:href="#me4d501cb96" x="108" y="133.840394" style="fill: #a9a9a9; stroke: #a9a9a9; stroke-width: 0.8"/>
      </g>
     </g>
     <g id="text_15">
      <!-- 4000 -->
      <g style="fill: #a9a9a9" transform="translate(75.55 137.639612) scale(0.1 -0.1)">
       <use xlink:href="#DejaVuSans-34"/>
       <use xlink:href="#DejaVuSans-30" x="63.623047"/>
       <use xlink:href="#DejaVuSans-30" x="127.246094"/>
       <use xlink:href="#DejaVuSans-30" x="190.869141"/>
      </g>
     </g>
    </g>
    <g id="ytick_7">
     <g id="line2d_31">
      <path d="M 108 99.039772 
L 777.6 99.039772 
" clip-path="url(#pe0f0ca8a27)" style="fill: none; stroke-dasharray: 5.12,1.28,0.8,1.28; stroke-dashoffset: 0; stroke: #b0b0b0; stroke-width: 0.8"/>
     </g>
     <g id="line2d_32">
      <g>
       <use xlink:href="#me4d501cb96" x="108" y="99.039772" style="fill: #a9a9a9; stroke: #a9a9a9; stroke-width: 0.8"/>
      </g>
     </g>
     <g id="text_16">
      <!-- 4800 -->
      <g style="fill: #a9a9a9" transform="translate(75.55 102.838991) scale(0.1 -0.1)">
       <use xlink:href="#DejaVuSans-34"/>
       <use xlink:href="#DejaVuSans-38" x="63.623047"/>
       <use xlink:href="#DejaVuSans-30" x="127.246094"/>
       <use xlink:href="#DejaVuSans-30" x="190.869141"/>
      </g>
     </g>
    </g>
    <g id="ytick_8">
     <g id="line2d_33">
      <path d="M 108 64.239151 
L 777.6 64.239151 
" clip-path="url(#pe0f0ca8a27)" style="fill: none; stroke-dasharray: 5.12,1.28,0.8,1.28; stroke-dashoffset: 0; stroke: #b0b0b0; stroke-width: 0.8"/>
     </g>
     <g id="line2d_34">
      <g>
       <use xlink:href="#me4d501cb96" x="108" y="64.239151" style="fill: #a9a9a9; stroke: #a9a9a9; stroke-width: 0.8"/>
      </g>
     </g>
     <g id="text_17">
      <!-- 5600 -->
      <g style="fill: #a9a9a9" transform="translate(75.55 68.038369) scale(0.1 -0.1)">
       <use xlink:href="#DejaVuSans-35"/>
       <use xlink:href="#DejaVuSans-36" x="63.623047"/>
       <use xlink:href="#DejaVuSans-30" x="127.246094"/>
       <use xlink:href="#DejaVuSans-30" x="190.869141"/>
      </g>
     </g>
    </g>
   </g>
   <g id="line2d_35">
    <path d="M 138.436364 307.712998 
L 142.197809 307.408493 
L 142.824717 307.147488 
L 144.70544 306.929984 
L 148.466885 306.190471 
L 152.228331 305.885966 
L 152.855238 305.58146 
L 153.482146 305.407457 
L 154.109053 304.624443 
L 154.735961 304.189436 
L 155.362869 302.840911 
L 155.989776 302.75391 
L 156.616684 302.275401 
L 157.870499 301.66639 
L 160.378129 299.752356 
L 161.631945 299.230347 
L 162.258852 298.795339 
L 164.766483 297.70782 
L 165.39339 296.750803 
L 166.647205 295.880787 
L 167.274113 295.576282 
L 173.543189 294.706266 
L 174.170096 294.401761 
L 178.55845 294.053755 
L 180.439172 293.575246 
L 186.081341 292.835733 
L 186.708248 292.487727 
L 187.335156 292.400725 
L 187.962063 292.13972 
L 189.215879 291.922216 
L 189.842786 291.878716 
L 191.096601 291.617711 
L 191.723509 291.57421 
L 194.231139 290.965199 
L 196.111862 290.791196 
L 197.365677 290.660694 
L 197.992585 290.486691 
L 198.619493 290.44319 
L 200.500215 289.87768 
L 204.261661 289.31217 
L 204.888568 289.138167 
L 205.515476 288.311652 
L 207.396199 287.61564 
L 209.276922 287.09363 
L 209.903829 286.789125 
L 210.530737 286.745624 
L 213.665275 285.875608 
L 214.91909 285.788607 
L 215.545998 285.701605 
L 217.42672 285.136095 
L 219.934351 284.527084 
L 220.561258 284.26608 
L 221.188166 284.179078 
L 221.815073 283.874573 
L 228.084149 282.917556 
L 231.218687 282.04754 
L 231.845595 281.656033 
L 234.353225 281.003521 
L 235.607041 280.264008 
L 236.233948 279.829001 
L 238.114671 279.480994 
L 241.876116 278.349974 
L 243.129932 277.958467 
L 243.756839 277.871466 
L 245.010654 277.523459 
L 246.26447 277.218954 
L 246.891377 277.131952 
L 248.145192 276.609943 
L 248.7721 276.479441 
L 249.399008 276.218436 
L 250.025915 276.131434 
L 250.652823 275.826929 
L 251.27973 275.652926 
L 252.533546 275.565924 
L 253.787361 275.130917 
L 255.041176 275.043915 
L 255.668084 274.73941 
L 258.175714 274.304402 
L 260.683344 274.086898 
L 261.310252 273.956396 
L 262.564067 273.347385 
L 269.460051 270.432833 
L 270.086958 270.084827 
L 270.713866 269.388814 
L 271.340773 268.344795 
L 271.967681 267.518281 
L 272.594589 267.344278 
L 273.221496 267.344278 
L 274.475311 266.430761 
L 275.102219 266.256758 
L 275.729126 265.908752 
L 276.356034 265.77825 
L 276.982942 265.21274 
L 277.609849 265.038736 
L 279.490572 264.12522 
L 280.744387 262.385189 
L 281.371295 261.993682 
L 281.998202 260.949663 
L 282.62511 260.297152 
L 283.252018 259.992646 
L 283.878925 259.818643 
L 286.386556 258.339617 
L 287.640371 257.339099 
L 288.267278 256.947592 
L 288.894186 256.034076 
L 289.521094 254.59855 
L 290.148001 253.685034 
L 290.774909 253.206525 
L 291.401816 252.94552 
L 293.909447 250.770482 
L 295.163262 249.769964 
L 295.790169 249.247954 
L 296.417077 248.42144 
L 297.670892 247.33392 
L 300.178523 245.724392 
L 300.80543 245.158881 
L 301.432338 245.028379 
L 302.059245 244.767374 
L 303.939968 243.723356 
L 305.193783 243.114345 
L 306.447599 241.939824 
L 307.074506 241.200311 
L 308.328321 240.330295 
L 308.955229 240.156292 
L 309.582137 239.851787 
L 310.835952 239.025272 
L 311.462859 238.677266 
L 312.089767 238.590264 
L 317.731935 235.197204 
L 318.358843 234.9797 
L 320.239566 233.761678 
L 322.120288 233.196168 
L 322.747196 232.76116 
L 323.374104 232.630658 
L 324.627919 232.19565 
L 326.508642 231.456137 
L 328.389364 230.760124 
L 329.643179 230.54262 
L 330.896995 229.455101 
L 332.15081 228.84609 
L 333.404625 228.150078 
L 334.031533 227.802071 
L 335.285348 227.454065 
L 335.912255 227.062558 
L 336.539163 226.888555 
L 338.419886 225.714034 
L 341.554424 224.974521 
L 343.435147 223.887002 
L 344.062054 223.8 
L 344.688962 223.582496 
L 345.942777 223.321491 
L 347.8235 221.929467 
L 349.704222 221.494459 
L 350.33113 221.276955 
L 350.958038 220.798446 
L 354.719483 219.580425 
L 355.346391 219.536924 
L 355.973298 219.362921 
L 357.227114 218.840911 
L 361.615467 217.318384 
L 362.869282 217.144381 
L 363.496189 216.970378 
L 364.123097 216.665873 
L 364.750005 216.53537 
L 366.630727 215.665355 
L 368.51145 214.751838 
L 369.138358 214.316831 
L 369.765265 214.142828 
L 371.645988 213.14231 
L 372.899803 212.837804 
L 374.153619 212.185293 
L 375.407434 211.837286 
L 376.034341 211.750285 
L 377.288157 211.010772 
L 377.915064 210.880269 
L 379.168879 210.35826 
L 379.795787 210.227758 
L 380.422695 209.879751 
L 382.930325 209.488244 
L 384.18414 208.879234 
L 384.811048 208.357224 
L 385.437955 207.269705 
L 386.69177 207.0087 
L 387.318678 206.878198 
L 389.826308 205.573175 
L 390.453216 205.442672 
L 395.468477 203.050129 
L 397.3492 202.658622 
L 398.603015 202.049612 
L 399.229922 201.788607 
L 399.85683 201.701605 
L 402.36446 200.614086 
L 404.245183 199.439565 
L 404.872091 199.352563 
L 405.498998 199.13506 
L 406.125906 199.091559 
L 409.260444 198.265044 
L 409.887351 197.786535 
L 411.141167 197.351528 
L 413.021889 196.742517 
L 413.648797 196.35101 
L 414.275705 196.177007 
L 414.902612 195.741999 
L 415.52952 195.480994 
L 416.783335 194.828483 
L 419.290965 194.045469 
L 419.917873 193.740963 
L 421.798596 192.305438 
L 422.425503 192.174935 
L 423.679318 191.217918 
L 424.306226 191.087416 
L 424.933134 190.130399 
L 425.560041 189.869394 
L 426.186949 189.390886 
L 426.813856 189.303884 
L 428.067672 188.564371 
L 428.694579 188.433868 
L 429.321487 188.172864 
L 429.948394 187.694355 
L 430.575302 187.476851 
L 432.456025 186.215329 
L 434.963655 184.953806 
L 435.590563 184.866805 
L 436.844378 184.301295 
L 437.471285 183.953288 
L 438.098193 182.90927 
L 438.725101 182.34376 
L 439.352008 181.995753 
L 439.978916 181.865251 
L 441.232731 181.082237 
L 441.859639 180.951735 
L 443.113454 180.342724 
L 444.994177 179.55971 
L 446.247992 178.689694 
L 447.501807 177.384671 
L 450.636345 175.122631 
L 451.89016 174.078612 
L 452.517068 173.817607 
L 453.143975 173.121595 
L 453.770883 172.643086 
L 455.024698 172.208079 
L 456.278513 171.381564 
L 456.905421 171.077059 
L 457.532328 170.903055 
L 458.159236 170.468048 
L 458.786144 170.337545 
L 460.666866 169.337027 
L 461.920682 168.597514 
L 468.189758 166.378975 
L 468.816665 165.813465 
L 470.697388 165.117452 
L 471.951203 164.725945 
L 472.578111 164.247437 
L 475.085741 162.942413 
L 475.712649 162.594407 
L 476.966464 160.158364 
L 478.220279 158.679337 
L 479.474094 157.939824 
L 481.354817 157.200311 
L 481.981725 157.113309 
L 482.608632 156.765303 
L 484.489355 156.199793 
L 486.996985 155.068773 
L 487.623893 154.677266 
L 488.877708 154.242258 
L 492.639154 152.067219 
L 493.266061 151.414707 
L 494.519876 150.762196 
L 495.146784 150.41419 
L 495.773692 150.196686 
L 496.400599 149.761678 
L 497.654414 149.152667 
L 499.535137 148.152149 
L 500.162045 147.978146 
L 500.788952 147.499637 
L 501.41586 147.238633 
L 502.042768 147.108131 
L 503.296583 146.673123 
L 505.177305 145.97711 
L 505.804213 145.542103 
L 507.058028 145.194096 
L 508.311843 144.715588 
L 508.938751 144.237079 
L 510.192566 143.845572 
L 510.819474 143.541067 
L 511.446381 143.367064 
L 512.700197 142.497048 
L 513.954012 141.931538 
L 515.207827 140.974521 
L 516.461642 140.539513 
L 517.08855 140.017504 
L 517.715457 139.930502 
L 518.969273 139.016986 
L 520.223088 138.407975 
L 520.849995 138.14697 
L 521.476903 137.53796 
L 525.238348 136.189436 
L 527.119071 135.362921 
L 528.999794 134.797411 
L 530.253609 134.623408 
L 530.880517 134.362403 
L 531.507424 134.275401 
L 532.76124 133.753392 
L 533.388147 133.709891 
L 535.895778 132.796375 
L 537.7765 131.491352 
L 538.403408 131.230347 
L 539.657223 130.577835 
L 540.284131 130.360331 
L 542.791761 128.881305 
L 543.418669 128.489798 
L 544.672484 128.185293 
L 546.553207 127.141274 
L 548.433929 126.532263 
L 549.060837 126.271258 
L 550.314652 125.966753 
L 553.44919 124.966235 
L 555.329913 124.618229 
L 557.837543 123.835215 
L 558.464451 123.57421 
L 559.091358 123.487209 
L 559.718266 123.182703 
L 560.972081 122.921699 
L 562.225896 122.486691 
L 562.852804 122.269187 
L 564.106619 122.138685 
L 565.360434 121.834179 
L 567.241157 121.529674 
L 567.868065 121.31217 
L 569.12188 121.181668 
L 574.764048 119.528638 
L 575.390956 119.311134 
L 576.017863 119.267633 
L 579.779309 118.136613 
L 581.033124 117.701605 
L 581.660032 117.614604 
L 583.540755 116.962092 
L 584.167662 116.962092 
L 585.421477 116.527084 
L 586.048385 115.918074 
L 586.675293 115.613568 
L 587.929108 115.222061 
L 590.436738 114.265044 
L 591.063646 114.134542 
L 591.690553 113.743035 
L 592.317461 113.612532 
L 592.944369 113.264526 
L 596.078906 112.35101 
L 596.705814 111.959503 
L 597.332722 111.829001 
L 597.959629 111.306991 
L 599.840352 110.958985 
L 601.094167 110.262973 
L 601.721075 109.56696 
L 602.97489 109.305955 
L 607.363243 108.305438 
L 607.990151 108.131434 
L 609.243966 108.087934 
L 609.870874 107.783428 
L 612.378504 107.348421 
L 613.005411 107.043915 
L 614.886134 106.78291 
L 617.393765 105.999896 
L 619.274487 105.564889 
L 621.15521 105.08638 
L 623.662841 104.303366 
L 624.289748 104.172864 
L 624.916656 103.868358 
L 625.543563 103.781357 
L 626.170471 103.563853 
L 626.797379 103.215847 
L 628.678101 102.563335 
L 629.305009 102.084827 
L 630.558824 101.73682 
L 631.185732 101.475816 
L 632.439547 101.127809 
L 634.947177 99.996789 
L 636.8279 99.866287 
L 639.33553 99.083273 
L 639.962438 98.691766 
L 641.216253 98.34376 
L 643.096976 97.386743 
L 643.723884 97.25624 
L 644.350791 96.951735 
L 644.977699 96.908234 
L 651.873682 94.602693 
L 654.381313 93.993682 
L 655.00822 93.819679 
L 656.262035 93.254169 
L 656.888943 93.167167 
L 658.142758 92.819161 
L 658.769666 92.340653 
L 659.396573 92.036147 
L 660.023481 91.296634 
L 660.650389 90.861626 
L 661.904204 90.470119 
L 662.531111 89.94811 
L 669.427095 87.120559 
L 670.68091 86.816054 
L 672.561633 85.946038 
L 673.815448 85.206525 
L 674.442356 85.076023 
L 675.069263 84.597514 
L 676.323078 83.988503 
L 677.576894 83.205489 
L 679.457616 82.335474 
L 680.084524 81.900466 
L 681.338339 81.421958 
L 682.592154 80.682444 
L 683.219062 80.377939 
L 683.845969 79.942931 
L 685.099785 79.507923 
L 685.726692 79.377421 
L 688.234323 78.246401 
L 691.368861 77.158881 
L 691.995768 77.115381 
L 692.622676 76.941378 
L 693.249583 76.549871 
L 693.876491 76.462869 
L 694.503399 76.245365 
L 696.384121 75.897359 
L 699.518659 74.28783 
L 700.772474 73.591818 
L 701.399382 73.504816 
L 703.280105 72.504298 
L 705.160828 71.808286 
L 707.04155 70.981771 
L 709.549181 69.981253 
L 710.176088 69.80725 
L 710.802996 69.415743 
L 712.056811 69.24174 
L 712.683719 68.850233 
L 713.310626 68.806732 
L 714.564442 68.415225 
L 715.818257 67.806214 
L 716.445164 67.719213 
L 717.072072 67.458208 
L 717.698979 67.327706 
L 719.579702 66.501191 
L 720.20661 66.370689 
L 720.833517 66.109684 
L 723.968055 65.370171 
L 725.848778 64.630658 
L 728.356409 63.195132 
L 729.610224 62.716624 
L 730.237131 62.325117 
L 731.490947 62.064112 
L 732.117854 61.716106 
L 732.744762 61.585603 
L 733.998577 60.889591 
L 737.760022 59.14956 
L 741.521468 57.844537 
L 742.775283 57.192025 
L 744.029098 56.800518 
L 744.656006 56.670016 
L 746.536729 55.8 
L 747.163636 55.8 
L 747.163636 55.8 
" clip-path="url(#pe0f0ca8a27)" style="fill: none; stroke: #1f77b4; stroke-width: 1.5; stroke-linecap: square"/>
   </g>
   <g id="line2d_36">
    <path d="M 139.063271 307.8 
L 140.943994 307.712998 
L 142.824717 307.669498 
L 146.586162 307.582496 
L 149.7207 307.451994 
L 152.228331 307.451994 
L 152.855238 307.277991 
L 155.362869 307.190989 
L 157.243591 306.973485 
L 159.124314 306.799482 
L 162.88576 306.625479 
L 163.512667 306.625479 
L 164.139575 306.494977 
L 166.647205 306.407975 
L 167.901021 306.320974 
L 172.916281 306.233972 
L 176.050819 306.10347 
L 183.57371 306.016468 
L 186.708248 305.885966 
L 190.469694 305.798964 
L 192.977324 305.711963 
L 198.619493 305.624961 
L 200.500215 305.58146 
L 202.380938 305.53796 
L 204.261661 305.320456 
L 208.023106 305.276955 
L 209.276922 305.189953 
L 213.665275 305.102952 
L 220.561258 304.711445 
L 224.949611 304.624443 
L 226.203427 304.537442 
L 228.084149 304.45044 
L 231.845595 304.276437 
L 234.353225 304.232936 
L 236.233948 304.058933 
L 246.26447 303.449922 
L 248.7721 303.362921 
L 253.160453 303.145417 
L 255.041176 303.058415 
L 261.310252 302.710409 
L 268.206235 302.623408 
L 270.713866 302.362403 
L 271.967681 302.275401 
L 280.11748 301.62289 
L 283.878925 301.144381 
L 286.386556 301.05738 
L 291.401816 300.404868 
L 294.536354 300.317866 
L 302.686153 299.665355 
L 305.820691 299.317349 
L 308.328321 299.230347 
L 309.582137 299.143345 
L 312.089767 299.056344 
L 313.343582 298.969342 
L 316.47812 298.664837 
L 317.105028 298.490834 
L 320.866473 298.316831 
L 324.001011 298.229829 
L 332.15081 297.751321 
L 334.031533 297.664319 
L 342.181331 297.18581 
L 346.569684 297.098809 
L 347.196592 296.968307 
L 352.211853 296.881305 
L 356.600206 296.663801 
L 363.496189 296.5768 
L 367.884543 296.359296 
L 372.899803 296.272294 
L 377.915064 296.011289 
L 382.303417 295.924288 
L 394.214662 295.184775 
L 399.229922 295.097773 
L 415.52952 294.053755 
L 419.290965 293.966753 
L 421.171688 293.923252 
L 423.052411 293.879751 
L 424.933134 293.705748 
L 429.948394 293.618747 
L 431.20221 293.401243 
L 432.456025 293.314241 
L 435.590563 293.183739 
L 436.844378 293.096737 
L 438.098193 293.009736 
L 443.740361 292.922734 
L 444.994177 292.792232 
L 447.501807 292.748731 
L 448.128715 292.618229 
L 449.38253 292.531227 
L 450.009437 292.400725 
L 451.89016 292.313723 
L 462.547589 291.661212 
L 464.428312 291.57421 
L 467.56285 291.443708 
L 476.339556 291.356706 
L 480.727909 291.139202 
L 485.74317 291.052201 
L 488.2508 290.965199 
L 490.758431 290.921699 
L 492.012246 290.791196 
L 494.519876 290.704195 
L 500.788952 290.356189 
L 504.550398 290.312688 
L 506.431121 290.138685 
L 508.311843 290.095184 
L 512.700197 290.008182 
L 515.207827 289.921181 
L 522.730718 289.834179 
L 525.865256 289.703677 
L 529.626702 289.616675 
L 531.507424 289.399171 
L 535.26887 289.355671 
L 537.149593 289.181668 
L 539.657223 289.094666 
L 547.180114 289.007664 
L 550.314652 288.877162 
L 560.972081 288.833661 
L 562.225896 288.74666 
L 564.106619 288.703159 
L 572.256418 288.616157 
L 573.510233 288.529156 
L 580.406217 288.442154 
L 582.913847 288.355153 
L 590.436738 288.311652 
L 591.690553 288.22465 
L 601.094167 288.18115 
L 602.97489 288.007147 
L 618.64758 287.920145 
L 620.528303 287.876644 
L 637.454808 287.789643 
L 639.962438 287.702641 
L 650.619867 287.61564 
L 651.873682 287.528638 
L 655.00822 287.441636 
L 656.888943 287.267633 
L 660.023481 287.180632 
L 662.531111 287.09363 
L 666.292557 287.006629 
L 668.17328 286.963128 
L 670.68091 286.876126 
L 672.561633 286.832626 
L 675.696171 286.745624 
L 676.949986 286.658622 
L 680.711432 286.571621 
L 683.845969 286.441119 
L 685.099785 286.397618 
L 686.980507 286.223615 
L 690.741953 286.136613 
L 693.249583 286.049612 
L 699.518659 285.96261 
L 702.653197 285.832108 
L 708.922273 285.745106 
L 713.310626 285.527602 
L 718.952795 285.440601 
L 720.20661 285.353599 
L 727.729501 285.266598 
L 729.610224 285.223097 
L 736.506207 285.136095 
L 739.013838 284.875091 
L 740.89456 284.83159 
L 744.656006 284.744588 
L 747.163636 284.657587 
L 747.163636 284.657587 
" clip-path="url(#pe0f0ca8a27)" style="fill: none; stroke: #ff7f0e; stroke-width: 1.5; stroke-linecap: square"/>
   </g>
   <g id="patch_3">
    <path d="M 108 320.4 
L 108 43.2 
" style="fill: none; stroke: #a9a9a9; stroke-width: 0.8; stroke-linejoin: miter; stroke-linecap: square"/>
   </g>
   <g id="patch_4">
    <path d="M 777.6 320.4 
L 777.6 43.2 
" style="fill: none"/>
   </g>
   <g id="patch_5">
    <path d="M 108 320.4 
L 777.6 320.4 
" style="fill: none; stroke: #a9a9a9; stroke-width: 0.8; stroke-linejoin: miter; stroke-linecap: square"/>
   </g>
   <g id="patch_6">
    <path d="M 108 43.2 
L 777.6 43.2 
" style="fill: none"/>
   </g>
   <g id="text_18">
    <!-- get_subscribe history -->
    <g style="fill: #a9a9a9" transform="translate(378.6075 37.2) scale(0.12 -0.12)">
     <defs>
      <path id="DejaVuSans-67" d="M 2906 1791 
Q 2906 2416 2648 2759 
Q 2391 3103 1925 3103 
Q 1463 3103 1205 2759 
Q 947 2416 947 1791 
Q 947 1169 1205 825 
Q 1463 481 1925 481 
Q 2391 481 2648 825 
Q 2906 1169 2906 1791 
z
M 3481 434 
Q 3481 -459 3084 -895 
Q 2688 -1331 1869 -1331 
Q 1566 -1331 1297 -1286 
Q 1028 -1241 775 -1147 
L 775 -588 
Q 1028 -725 1275 -790 
Q 1522 -856 1778 -856 
Q 2344 -856 2625 -561 
Q 2906 -266 2906 331 
L 2906 616 
Q 2728 306 2450 153 
Q 2172 0 1784 0 
Q 1141 0 747 490 
Q 353 981 353 1791 
Q 353 2603 747 3093 
Q 1141 3584 1784 3584 
Q 2172 3584 2450 3431 
Q 2728 3278 2906 2969 
L 2906 3500 
L 3481 3500 
L 3481 434 
z
" transform="scale(0.015625)"/>
      <path id="DejaVuSans-65" d="M 3597 1894 
L 3597 1613 
L 953 1613 
Q 991 1019 1311 708 
Q 1631 397 2203 397 
Q 2534 397 2845 478 
Q 3156 559 3463 722 
L 3463 178 
Q 3153 47 2828 -22 
Q 2503 -91 2169 -91 
Q 1331 -91 842 396 
Q 353 884 353 1716 
Q 353 2575 817 3079 
Q 1281 3584 2069 3584 
Q 2775 3584 3186 3129 
Q 3597 2675 3597 1894 
z
M 3022 2063 
Q 3016 2534 2758 2815 
Q 2500 3097 2075 3097 
Q 1594 3097 1305 2825 
Q 1016 2553 972 2059 
L 3022 2063 
z
" transform="scale(0.015625)"/>
      <path id="DejaVuSans-74" d="M 1172 4494 
L 1172 3500 
L 2356 3500 
L 2356 3053 
L 1172 3053 
L 1172 1153 
Q 1172 725 1289 603 
Q 1406 481 1766 481 
L 2356 481 
L 2356 0 
L 1766 0 
Q 1100 0 847 248 
Q 594 497 594 1153 
L 594 3053 
L 172 3053 
L 172 3500 
L 594 3500 
L 594 4494 
L 1172 4494 
z
" transform="scale(0.015625)"/>
      <path id="DejaVuSans-5f" d="M 3263 -1063 
L 3263 -1509 
L -63 -1509 
L -63 -1063 
L 3263 -1063 
z
" transform="scale(0.015625)"/>
      <path id="DejaVuSans-73" d="M 2834 3397 
L 2834 2853 
Q 2591 2978 2328 3040 
Q 2066 3103 1784 3103 
Q 1356 3103 1142 2972 
Q 928 2841 928 2578 
Q 928 2378 1081 2264 
Q 1234 2150 1697 2047 
L 1894 2003 
Q 2506 1872 2764 1633 
Q 3022 1394 3022 966 
Q 3022 478 2636 193 
Q 2250 -91 1575 -91 
Q 1294 -91 989 -36 
Q 684 19 347 128 
L 347 722 
Q 666 556 975 473 
Q 1284 391 1588 391 
Q 1994 391 2212 530 
Q 2431 669 2431 922 
Q 2431 1156 2273 1281 
Q 2116 1406 1581 1522 
L 1381 1569 
Q 847 1681 609 1914 
Q 372 2147 372 2553 
Q 372 3047 722 3315 
Q 1072 3584 1716 3584 
Q 2034 3584 2315 3537 
Q 2597 3491 2834 3397 
z
" transform="scale(0.015625)"/>
      <path id="DejaVuSans-75" d="M 544 1381 
L 544 3500 
L 1119 3500 
L 1119 1403 
Q 1119 906 1312 657 
Q 1506 409 1894 409 
Q 2359 409 2629 706 
Q 2900 1003 2900 1516 
L 2900 3500 
L 3475 3500 
L 3475 0 
L 2900 0 
L 2900 538 
Q 2691 219 2414 64 
Q 2138 -91 1772 -91 
Q 1169 -91 856 284 
Q 544 659 544 1381 
z
M 1991 3584 
L 1991 3584 
z
" transform="scale(0.015625)"/>
      <path id="DejaVuSans-62" d="M 3116 1747 
Q 3116 2381 2855 2742 
Q 2594 3103 2138 3103 
Q 1681 3103 1420 2742 
Q 1159 2381 1159 1747 
Q 1159 1113 1420 752 
Q 1681 391 2138 391 
Q 2594 391 2855 752 
Q 3116 1113 3116 1747 
z
M 1159 2969 
Q 1341 3281 1617 3432 
Q 1894 3584 2278 3584 
Q 2916 3584 3314 3078 
Q 3713 2572 3713 1747 
Q 3713 922 3314 415 
Q 2916 -91 2278 -91 
Q 1894 -91 1617 61 
Q 1341 213 1159 525 
L 1159 0 
L 581 0 
L 581 4863 
L 1159 4863 
L 1159 2969 
z
" transform="scale(0.015625)"/>
      <path id="DejaVuSans-63" d="M 3122 3366 
L 3122 2828 
Q 2878 2963 2633 3030 
Q 2388 3097 2138 3097 
Q 1578 3097 1268 2742 
Q 959 2388 959 1747 
Q 959 1106 1268 751 
Q 1578 397 2138 397 
Q 2388 397 2633 464 
Q 2878 531 3122 666 
L 3122 134 
Q 2881 22 2623 -34 
Q 2366 -91 2075 -91 
Q 1284 -91 818 406 
Q 353 903 353 1747 
Q 353 2603 823 3093 
Q 1294 3584 2113 3584 
Q 2378 3584 2631 3529 
Q 2884 3475 3122 3366 
z
" transform="scale(0.015625)"/>
      <path id="DejaVuSans-72" d="M 2631 2963 
Q 2534 3019 2420 3045 
Q 2306 3072 2169 3072 
Q 1681 3072 1420 2755 
Q 1159 2438 1159 1844 
L 1159 0 
L 581 0 
L 581 3500 
L 1159 3500 
L 1159 2956 
Q 1341 3275 1631 3429 
Q 1922 3584 2338 3584 
Q 2397 3584 2469 3576 
Q 2541 3569 2628 3553 
L 2631 2963 
z
" transform="scale(0.015625)"/>
      <path id="DejaVuSans-69" d="M 603 3500 
L 1178 3500 
L 1178 0 
L 603 0 
L 603 3500 
z
M 603 4863 
L 1178 4863 
L 1178 4134 
L 603 4134 
L 603 4863 
z
" transform="scale(0.015625)"/>
      <path id="DejaVuSans-20" transform="scale(0.015625)"/>
      <path id="DejaVuSans-68" d="M 3513 2113 
L 3513 0 
L 2938 0 
L 2938 2094 
Q 2938 2591 2744 2837 
Q 2550 3084 2163 3084 
Q 1697 3084 1428 2787 
Q 1159 2491 1159 1978 
L 1159 0 
L 581 0 
L 581 4863 
L 1159 4863 
L 1159 2956 
Q 1366 3272 1645 3428 
Q 1925 3584 2291 3584 
Q 2894 3584 3203 3211 
Q 3513 2838 3513 2113 
z
" transform="scale(0.015625)"/>
      <path id="DejaVuSans-6f" d="M 1959 3097 
Q 1497 3097 1228 2736 
Q 959 2375 959 1747 
Q 959 1119 1226 758 
Q 1494 397 1959 397 
Q 2419 397 2687 759 
Q 2956 1122 2956 1747 
Q 2956 2369 2687 2733 
Q 2419 3097 1959 3097 
z
M 1959 3584 
Q 2709 3584 3137 3096 
Q 3566 2609 3566 1747 
Q 3566 888 3137 398 
Q 2709 -91 1959 -91 
Q 1206 -91 779 398 
Q 353 888 353 1747 
Q 353 2609 779 3096 
Q 1206 3584 1959 3584 
z
" transform="scale(0.015625)"/>
      <path id="DejaVuSans-79" d="M 2059 -325 
Q 1816 -950 1584 -1140 
Q 1353 -1331 966 -1331 
L 506 -1331 
L 506 -850 
L 844 -850 
Q 1081 -850 1212 -737 
Q 1344 -625 1503 -206 
L 1606 56 
L 191 3500 
L 800 3500 
L 1894 763 
L 2988 3500 
L 3597 3500 
L 2059 -325 
z
" transform="scale(0.015625)"/>
     </defs>
     <use xlink:href="#DejaVuSans-67"/>
     <use xlink:href="#DejaVuSans-65" x="63.476562"/>
     <use xlink:href="#DejaVuSans-74" x="125"/>
     <use xlink:href="#DejaVuSans-5f" x="164.208984"/>
     <use xlink:href="#DejaVuSans-73" x="214.208984"/>
     <use xlink:href="#DejaVuSans-75" x="266.308594"/>
     <use xlink:href="#DejaVuSans-62" x="329.6875"/>
     <use xlink:href="#DejaVuSans-73" x="393.164062"/>
     <use xlink:href="#DejaVuSans-63" x="445.263672"/>
     <use xlink:href="#DejaVuSans-72" x="500.244141"/>
     <use xlink:href="#DejaVuSans-69" x="541.357422"/>
     <use xlink:href="#DejaVuSans-62" x="569.140625"/>
     <use xlink:href="#DejaVuSans-65" x="632.617188"/>
     <use xlink:href="#DejaVuSans-20" x="694.140625"/>
     <use xlink:href="#DejaVuSans-68" x="725.927734"/>
     <use xlink:href="#DejaVuSans-69" x="789.306641"/>
     <use xlink:href="#DejaVuSans-73" x="817.089844"/>
     <use xlink:href="#DejaVuSans-74" x="869.189453"/>
     <use xlink:href="#DejaVuSans-6f" x="908.398438"/>
     <use xlink:href="#DejaVuSans-72" x="969.580078"/>
     <use xlink:href="#DejaVuSans-79" x="1010.693359"/>
    </g>
   </g>
   <g id="legend_1">
    <g id="line2d_37">
     <path d="M 815.08 328.498438 
L 825.08 328.498438 
L 835.08 328.498438 
" style="fill: none; stroke: #1f77b4; stroke-width: 1.5; stroke-linecap: square"/>
    </g>
    <g id="text_19">
     <!-- star -->
     <g style="fill: #a9a9a9" transform="translate(843.08 331.998438) scale(0.1 -0.1)">
      <defs>
       <path id="DejaVuSans-61" d="M 2194 1759 
Q 1497 1759 1228 1600 
Q 959 1441 959 1056 
Q 959 750 1161 570 
Q 1363 391 1709 391 
Q 2188 391 2477 730 
Q 2766 1069 2766 1631 
L 2766 1759 
L 2194 1759 
z
M 3341 1997 
L 3341 0 
L 2766 0 
L 2766 531 
Q 2569 213 2275 61 
Q 1981 -91 1556 -91 
Q 1019 -91 701 211 
Q 384 513 384 1019 
Q 384 1609 779 1909 
Q 1175 2209 1959 2209 
L 2766 2209 
L 2766 2266 
Q 2766 2663 2505 2880 
Q 2244 3097 1772 3097 
Q 1472 3097 1187 3025 
Q 903 2953 641 2809 
L 641 3341 
Q 956 3463 1253 3523 
Q 1550 3584 1831 3584 
Q 2591 3584 2966 3190 
Q 3341 2797 3341 1997 
z
" transform="scale(0.015625)"/>
      </defs>
      <use xlink:href="#DejaVuSans-73"/>
      <use xlink:href="#DejaVuSans-74" x="52.099609"/>
      <use xlink:href="#DejaVuSans-61" x="91.308594"/>
      <use xlink:href="#DejaVuSans-72" x="152.587891"/>
     </g>
    </g>
    <g id="line2d_38">
     <path d="M 815.08 343.176562 
L 825.08 343.176562 
L 835.08 343.176562 
" style="fill: none; stroke: #ff7f0e; stroke-width: 1.5; stroke-linecap: square"/>
    </g>
    <g id="text_20">
     <!-- fork -->
     <g style="fill: #a9a9a9" transform="translate(843.08 346.676562) scale(0.1 -0.1)">
      <defs>
       <path id="DejaVuSans-66" d="M 2375 4863 
L 2375 4384 
L 1825 4384 
Q 1516 4384 1395 4259 
Q 1275 4134 1275 3809 
L 1275 3500 
L 2222 3500 
L 2222 3053 
L 1275 3053 
L 1275 0 
L 697 0 
L 697 3053 
L 147 3053 
L 147 3500 
L 697 3500 
L 697 3744 
Q 697 4328 969 4595 
Q 1241 4863 1831 4863 
L 2375 4863 
z
" transform="scale(0.015625)"/>
       <path id="DejaVuSans-6b" d="M 581 4863 
L 1159 4863 
L 1159 1991 
L 2875 3500 
L 3609 3500 
L 1753 1863 
L 3688 0 
L 2938 0 
L 1159 1709 
L 1159 0 
L 581 0 
L 581 4863 
z
" transform="scale(0.015625)"/>
      </defs>
      <use xlink:href="#DejaVuSans-66"/>
      <use xlink:href="#DejaVuSans-6f" x="35.205078"/>
      <use xlink:href="#DejaVuSans-72" x="96.386719"/>
      <use xlink:href="#DejaVuSans-6b" x="137.5"/>
     </g>
    </g>
   </g>
  </g>
 </g>
 <defs>
  <clipPath id="pe0f0ca8a27">
   <rect x="108" y="43.2" width="669.6" height="277.2"/>
  </clipPath>
 </defs>
</svg>
