<?xml version="1.0" encoding="utf-8" standalone="no"?>
<!DOCTYPE svg PUBLIC "-//W3C//DTD SVG 1.1//EN"
  "http://www.w3.org/Graphics/SVG/1.1/DTD/svg11.dtd">
<svg xmlns:xlink="http://www.w3.org/1999/xlink" width="864pt" height="360pt" viewBox="0 0 864 360" xmlns="http://www.w3.org/2000/svg" version="1.1">
 <metadata>
  <rdf:RDF xmlns:dc="http://purl.org/dc/elements/1.1/" xmlns:cc="http://creativecommons.org/ns#" xmlns:rdf="http://www.w3.org/1999/02/22-rdf-syntax-ns#">
   <cc:Work>
    <dc:type rdf:resource="http://purl.org/dc/dcmitype/StillImage"/>
    <dc:date>2024-03-18T20:05:32.597700</dc:date>
    <dc:format>image/svg+xml</dc:format>
    <dc:creator>
     <cc:Agent>
      <dc:title>Matplotlib v3.8.3, https://matplotlib.org/</dc:title>
     </cc:Agent>
    </dc:creator>
   </cc:Work>
  </rdf:RDF>
 </metadata>
 <defs>
  <style type="text/css">*{stroke-linejoin: round; stroke-linecap: butt}</style>
 </defs>
 <g id="figure_1">
  <g id="patch_1">
   <path d="M 0 360 
L 864 360 
L 864 0 
L 0 0 
L 0 360 
z
" style="fill: none; opacity: 0"/>
  </g>
  <g id="axes_1">
   <g id="patch_2">
    <path d="M 108 320.4 
L 777.6 320.4 
L 777.6 43.2 
L 108 43.2 
L 108 320.4 
z
" style="fill: none; opacity: 0"/>
   </g>
   <g id="matplotlib.axis_1">
    <g id="xtick_1">
     <g id="line2d_1">
      <path d="M 162.961533 320.4 
L 162.961533 43.2 
" clip-path="url(#p0d6c2cab66)" style="fill: none; stroke-dasharray: 5.12,1.28,0.8,1.28; stroke-dashoffset: 0; stroke: #b0b0b0; stroke-width: 0.8"/>
     </g>
     <g id="line2d_2">
      <defs>
       <path id="mbf5a4fb71d" d="M 0 0 
L 0 3.5 
" style="stroke: #a9a9a9; stroke-width: 0.8"/>
      </defs>
      <g>
       <use xlink:href="#mbf5a4fb71d" x="162.961533" y="320.4" style="fill: #a9a9a9; stroke: #a9a9a9; stroke-width: 0.8"/>
      </g>
     </g>
     <g id="text_1">
      <!-- 2021-09 -->
      <g style="fill: #a9a9a9" transform="translate(142.070126 334.998438) scale(0.1 -0.1)">
       <defs>
        <path id="DejaVuSans-32" d="M 1228 531 
L 3431 531 
L 3431 0 
L 469 0 
L 469 531 
Q 828 903 1448 1529 
Q 2069 2156 2228 2338 
Q 2531 2678 2651 2914 
Q 2772 3150 2772 3378 
Q 2772 3750 2511 3984 
Q 2250 4219 1831 4219 
Q 1534 4219 1204 4116 
Q 875 4013 500 3803 
L 500 4441 
Q 881 4594 1212 4672 
Q 1544 4750 1819 4750 
Q 2544 4750 2975 4387 
Q 3406 4025 3406 3419 
Q 3406 3131 3298 2873 
Q 3191 2616 2906 2266 
Q 2828 2175 2409 1742 
Q 1991 1309 1228 531 
z
" transform="scale(0.015625)"/>
        <path id="DejaVuSans-30" d="M 2034 4250 
Q 1547 4250 1301 3770 
Q 1056 3291 1056 2328 
Q 1056 1369 1301 889 
Q 1547 409 2034 409 
Q 2525 409 2770 889 
Q 3016 1369 3016 2328 
Q 3016 3291 2770 3770 
Q 2525 4250 2034 4250 
z
M 2034 4750 
Q 2819 4750 3233 4129 
Q 3647 3509 3647 2328 
Q 3647 1150 3233 529 
Q 2819 -91 2034 -91 
Q 1250 -91 836 529 
Q 422 1150 422 2328 
Q 422 3509 836 4129 
Q 1250 4750 2034 4750 
z
" transform="scale(0.015625)"/>
        <path id="DejaVuSans-31" d="M 794 531 
L 1825 531 
L 1825 4091 
L 703 3866 
L 703 4441 
L 1819 4666 
L 2450 4666 
L 2450 531 
L 3481 531 
L 3481 0 
L 794 0 
L 794 531 
z
" transform="scale(0.015625)"/>
        <path id="DejaVuSans-2d" d="M 313 2009 
L 1997 2009 
L 1997 1497 
L 313 1497 
L 313 2009 
z
" transform="scale(0.015625)"/>
        <path id="DejaVuSans-39" d="M 703 97 
L 703 672 
Q 941 559 1184 500 
Q 1428 441 1663 441 
Q 2288 441 2617 861 
Q 2947 1281 2994 2138 
Q 2813 1869 2534 1725 
Q 2256 1581 1919 1581 
Q 1219 1581 811 2004 
Q 403 2428 403 3163 
Q 403 3881 828 4315 
Q 1253 4750 1959 4750 
Q 2769 4750 3195 4129 
Q 3622 3509 3622 2328 
Q 3622 1225 3098 567 
Q 2575 -91 1691 -91 
Q 1453 -91 1209 -44 
Q 966 3 703 97 
z
M 1959 2075 
Q 2384 2075 2632 2365 
Q 2881 2656 2881 3163 
Q 2881 3666 2632 3958 
Q 2384 4250 1959 4250 
Q 1534 4250 1286 3958 
Q 1038 3666 1038 3163 
Q 1038 2656 1286 2365 
Q 1534 2075 1959 2075 
z
" transform="scale(0.015625)"/>
       </defs>
       <use xlink:href="#DejaVuSans-32"/>
       <use xlink:href="#DejaVuSans-30" x="63.623047"/>
       <use xlink:href="#DejaVuSans-32" x="127.246094"/>
       <use xlink:href="#DejaVuSans-31" x="190.869141"/>
       <use xlink:href="#DejaVuSans-2d" x="254.492188"/>
       <use xlink:href="#DejaVuSans-30" x="290.576172"/>
       <use xlink:href="#DejaVuSans-39" x="354.199219"/>
      </g>
     </g>
    </g>
    <g id="xtick_2">
     <g id="line2d_3">
      <path d="M 239.681292 320.4 
L 239.681292 43.2 
" clip-path="url(#p0d6c2cab66)" style="fill: none; stroke-dasharray: 5.12,1.28,0.8,1.28; stroke-dashoffset: 0; stroke: #b0b0b0; stroke-width: 0.8"/>
     </g>
     <g id="line2d_4">
      <g>
       <use xlink:href="#mbf5a4fb71d" x="239.681292" y="320.4" style="fill: #a9a9a9; stroke: #a9a9a9; stroke-width: 0.8"/>
      </g>
     </g>
     <g id="text_2">
      <!-- 2022-01 -->
      <g style="fill: #a9a9a9" transform="translate(218.789886 334.998438) scale(0.1 -0.1)">
       <use xlink:href="#DejaVuSans-32"/>
       <use xlink:href="#DejaVuSans-30" x="63.623047"/>
       <use xlink:href="#DejaVuSans-32" x="127.246094"/>
       <use xlink:href="#DejaVuSans-32" x="190.869141"/>
       <use xlink:href="#DejaVuSans-2d" x="254.492188"/>
       <use xlink:href="#DejaVuSans-30" x="290.576172"/>
       <use xlink:href="#DejaVuSans-31" x="354.199219"/>
      </g>
     </g>
    </g>
    <g id="xtick_3">
     <g id="line2d_5">
      <path d="M 315.143351 320.4 
L 315.143351 43.2 
" clip-path="url(#p0d6c2cab66)" style="fill: none; stroke-dasharray: 5.12,1.28,0.8,1.28; stroke-dashoffset: 0; stroke: #b0b0b0; stroke-width: 0.8"/>
     </g>
     <g id="line2d_6">
      <g>
       <use xlink:href="#mbf5a4fb71d" x="315.143351" y="320.4" style="fill: #a9a9a9; stroke: #a9a9a9; stroke-width: 0.8"/>
      </g>
     </g>
     <g id="text_3">
      <!-- 2022-05 -->
      <g style="fill: #a9a9a9" transform="translate(294.251945 334.998438) scale(0.1 -0.1)">
       <defs>
        <path id="DejaVuSans-35" d="M 691 4666 
L 3169 4666 
L 3169 4134 
L 1269 4134 
L 1269 2991 
Q 1406 3038 1543 3061 
Q 1681 3084 1819 3084 
Q 2600 3084 3056 2656 
Q 3513 2228 3513 1497 
Q 3513 744 3044 326 
Q 2575 -91 1722 -91 
Q 1428 -91 1123 -41 
Q 819 9 494 109 
L 494 744 
Q 775 591 1075 516 
Q 1375 441 1709 441 
Q 2250 441 2565 725 
Q 2881 1009 2881 1497 
Q 2881 1984 2565 2268 
Q 2250 2553 1709 2553 
Q 1456 2553 1204 2497 
Q 953 2441 691 2322 
L 691 4666 
z
" transform="scale(0.015625)"/>
       </defs>
       <use xlink:href="#DejaVuSans-32"/>
       <use xlink:href="#DejaVuSans-30" x="63.623047"/>
       <use xlink:href="#DejaVuSans-32" x="127.246094"/>
       <use xlink:href="#DejaVuSans-32" x="190.869141"/>
       <use xlink:href="#DejaVuSans-2d" x="254.492188"/>
       <use xlink:href="#DejaVuSans-30" x="290.576172"/>
       <use xlink:href="#DejaVuSans-35" x="354.199219"/>
      </g>
     </g>
    </g>
    <g id="xtick_4">
     <g id="line2d_7">
      <path d="M 392.491961 320.4 
L 392.491961 43.2 
" clip-path="url(#p0d6c2cab66)" style="fill: none; stroke-dasharray: 5.12,1.28,0.8,1.28; stroke-dashoffset: 0; stroke: #b0b0b0; stroke-width: 0.8"/>
     </g>
     <g id="line2d_8">
      <g>
       <use xlink:href="#mbf5a4fb71d" x="392.491961" y="320.4" style="fill: #a9a9a9; stroke: #a9a9a9; stroke-width: 0.8"/>
      </g>
     </g>
     <g id="text_4">
      <!-- 2022-09 -->
      <g style="fill: #a9a9a9" transform="translate(371.600555 334.998438) scale(0.1 -0.1)">
       <use xlink:href="#DejaVuSans-32"/>
       <use xlink:href="#DejaVuSans-30" x="63.623047"/>
       <use xlink:href="#DejaVuSans-32" x="127.246094"/>
       <use xlink:href="#DejaVuSans-32" x="190.869141"/>
       <use xlink:href="#DejaVuSans-2d" x="254.492188"/>
       <use xlink:href="#DejaVuSans-30" x="290.576172"/>
       <use xlink:href="#DejaVuSans-39" x="354.199219"/>
      </g>
     </g>
    </g>
    <g id="xtick_5">
     <g id="line2d_9">
      <path d="M 469.211721 320.4 
L 469.211721 43.2 
" clip-path="url(#p0d6c2cab66)" style="fill: none; stroke-dasharray: 5.12,1.28,0.8,1.28; stroke-dashoffset: 0; stroke: #b0b0b0; stroke-width: 0.8"/>
     </g>
     <g id="line2d_10">
      <g>
       <use xlink:href="#mbf5a4fb71d" x="469.211721" y="320.4" style="fill: #a9a9a9; stroke: #a9a9a9; stroke-width: 0.8"/>
      </g>
     </g>
     <g id="text_5">
      <!-- 2023-01 -->
      <g style="fill: #a9a9a9" transform="translate(448.320314 334.998438) scale(0.1 -0.1)">
       <defs>
        <path id="DejaVuSans-33" d="M 2597 2516 
Q 3050 2419 3304 2112 
Q 3559 1806 3559 1356 
Q 3559 666 3084 287 
Q 2609 -91 1734 -91 
Q 1441 -91 1130 -33 
Q 819 25 488 141 
L 488 750 
Q 750 597 1062 519 
Q 1375 441 1716 441 
Q 2309 441 2620 675 
Q 2931 909 2931 1356 
Q 2931 1769 2642 2001 
Q 2353 2234 1838 2234 
L 1294 2234 
L 1294 2753 
L 1863 2753 
Q 2328 2753 2575 2939 
Q 2822 3125 2822 3475 
Q 2822 3834 2567 4026 
Q 2313 4219 1838 4219 
Q 1578 4219 1281 4162 
Q 984 4106 628 3988 
L 628 4550 
Q 988 4650 1302 4700 
Q 1616 4750 1894 4750 
Q 2613 4750 3031 4423 
Q 3450 4097 3450 3541 
Q 3450 3153 3228 2886 
Q 3006 2619 2597 2516 
z
" transform="scale(0.015625)"/>
       </defs>
       <use xlink:href="#DejaVuSans-32"/>
       <use xlink:href="#DejaVuSans-30" x="63.623047"/>
       <use xlink:href="#DejaVuSans-32" x="127.246094"/>
       <use xlink:href="#DejaVuSans-33" x="190.869141"/>
       <use xlink:href="#DejaVuSans-2d" x="254.492188"/>
       <use xlink:href="#DejaVuSans-30" x="290.576172"/>
       <use xlink:href="#DejaVuSans-31" x="354.199219"/>
      </g>
     </g>
    </g>
    <g id="xtick_6">
     <g id="line2d_11">
      <path d="M 544.673779 320.4 
L 544.673779 43.2 
" clip-path="url(#p0d6c2cab66)" style="fill: none; stroke-dasharray: 5.12,1.28,0.8,1.28; stroke-dashoffset: 0; stroke: #b0b0b0; stroke-width: 0.8"/>
     </g>
     <g id="line2d_12">
      <g>
       <use xlink:href="#mbf5a4fb71d" x="544.673779" y="320.4" style="fill: #a9a9a9; stroke: #a9a9a9; stroke-width: 0.8"/>
      </g>
     </g>
     <g id="text_6">
      <!-- 2023-05 -->
      <g style="fill: #a9a9a9" transform="translate(523.782373 334.998438) scale(0.1 -0.1)">
       <use xlink:href="#DejaVuSans-32"/>
       <use xlink:href="#DejaVuSans-30" x="63.623047"/>
       <use xlink:href="#DejaVuSans-32" x="127.246094"/>
       <use xlink:href="#DejaVuSans-33" x="190.869141"/>
       <use xlink:href="#DejaVuSans-2d" x="254.492188"/>
       <use xlink:href="#DejaVuSans-30" x="290.576172"/>
       <use xlink:href="#DejaVuSans-35" x="354.199219"/>
      </g>
     </g>
    </g>
    <g id="xtick_7">
     <g id="line2d_13">
      <path d="M 622.022389 320.4 
L 622.022389 43.2 
" clip-path="url(#p0d6c2cab66)" style="fill: none; stroke-dasharray: 5.12,1.28,0.8,1.28; stroke-dashoffset: 0; stroke: #b0b0b0; stroke-width: 0.8"/>
     </g>
     <g id="line2d_14">
      <g>
       <use xlink:href="#mbf5a4fb71d" x="622.022389" y="320.4" style="fill: #a9a9a9; stroke: #a9a9a9; stroke-width: 0.8"/>
      </g>
     </g>
     <g id="text_7">
      <!-- 2023-09 -->
      <g style="fill: #a9a9a9" transform="translate(601.130983 334.998438) scale(0.1 -0.1)">
       <use xlink:href="#DejaVuSans-32"/>
       <use xlink:href="#DejaVuSans-30" x="63.623047"/>
       <use xlink:href="#DejaVuSans-32" x="127.246094"/>
       <use xlink:href="#DejaVuSans-33" x="190.869141"/>
       <use xlink:href="#DejaVuSans-2d" x="254.492188"/>
       <use xlink:href="#DejaVuSans-30" x="290.576172"/>
       <use xlink:href="#DejaVuSans-39" x="354.199219"/>
      </g>
     </g>
    </g>
    <g id="xtick_8">
     <g id="line2d_15">
      <path d="M 698.742149 320.4 
L 698.742149 43.2 
" clip-path="url(#p0d6c2cab66)" style="fill: none; stroke-dasharray: 5.12,1.28,0.8,1.28; stroke-dashoffset: 0; stroke: #b0b0b0; stroke-width: 0.8"/>
     </g>
     <g id="line2d_16">
      <g>
       <use xlink:href="#mbf5a4fb71d" x="698.742149" y="320.4" style="fill: #a9a9a9; stroke: #a9a9a9; stroke-width: 0.8"/>
      </g>
     </g>
     <g id="text_8">
      <!-- 2024-01 -->
      <g style="fill: #a9a9a9" transform="translate(677.850743 334.998438) scale(0.1 -0.1)">
       <defs>
        <path id="DejaVuSans-34" d="M 2419 4116 
L 825 1625 
L 2419 1625 
L 2419 4116 
z
M 2253 4666 
L 3047 4666 
L 3047 1625 
L 3713 1625 
L 3713 1100 
L 3047 1100 
L 3047 0 
L 2419 0 
L 2419 1100 
L 313 1100 
L 313 1709 
L 2253 4666 
z
" transform="scale(0.015625)"/>
       </defs>
       <use xlink:href="#DejaVuSans-32"/>
       <use xlink:href="#DejaVuSans-30" x="63.623047"/>
       <use xlink:href="#DejaVuSans-32" x="127.246094"/>
       <use xlink:href="#DejaVuSans-34" x="190.869141"/>
       <use xlink:href="#DejaVuSans-2d" x="254.492188"/>
       <use xlink:href="#DejaVuSans-30" x="290.576172"/>
       <use xlink:href="#DejaVuSans-31" x="354.199219"/>
      </g>
     </g>
    </g>
    <g id="xtick_9">
     <g id="line2d_17">
      <path d="M 774.833058 320.4 
L 774.833058 43.2 
" clip-path="url(#p0d6c2cab66)" style="fill: none; stroke-dasharray: 5.12,1.28,0.8,1.28; stroke-dashoffset: 0; stroke: #b0b0b0; stroke-width: 0.8"/>
     </g>
     <g id="line2d_18">
      <g>
       <use xlink:href="#mbf5a4fb71d" x="774.833058" y="320.4" style="fill: #a9a9a9; stroke: #a9a9a9; stroke-width: 0.8"/>
      </g>
     </g>
     <g id="text_9">
      <!-- 2024-05 -->
      <g style="fill: #a9a9a9" transform="translate(753.941652 334.998438) scale(0.1 -0.1)">
       <use xlink:href="#DejaVuSans-32"/>
       <use xlink:href="#DejaVuSans-30" x="63.623047"/>
       <use xlink:href="#DejaVuSans-32" x="127.246094"/>
       <use xlink:href="#DejaVuSans-34" x="190.869141"/>
       <use xlink:href="#DejaVuSans-2d" x="254.492188"/>
       <use xlink:href="#DejaVuSans-30" x="290.576172"/>
       <use xlink:href="#DejaVuSans-35" x="354.199219"/>
      </g>
     </g>
    </g>
   </g>
   <g id="matplotlib.axis_2">
    <g id="ytick_1">
     <g id="line2d_19">
      <path d="M 108 307.843584 
L 777.6 307.843584 
" clip-path="url(#p0d6c2cab66)" style="fill: none; stroke-dasharray: 5.12,1.28,0.8,1.28; stroke-dashoffset: 0; stroke: #b0b0b0; stroke-width: 0.8"/>
     </g>
     <g id="line2d_20">
      <defs>
       <path id="m1cd1030b77" d="M 0 0 
L -3.5 0 
" style="stroke: #a9a9a9; stroke-width: 0.8"/>
      </defs>
      <g>
       <use xlink:href="#m1cd1030b77" x="108" y="307.843584" style="fill: #a9a9a9; stroke: #a9a9a9; stroke-width: 0.8"/>
      </g>
     </g>
     <g id="text_10">
      <!-- 0 -->
      <g style="fill: #a9a9a9" transform="translate(94.6375 311.642802) scale(0.1 -0.1)">
       <use xlink:href="#DejaVuSans-30"/>
      </g>
     </g>
    </g>
    <g id="ytick_2">
     <g id="line2d_21">
      <path d="M 108 272.976755 
L 777.6 272.976755 
" clip-path="url(#p0d6c2cab66)" style="fill: none; stroke-dasharray: 5.12,1.28,0.8,1.28; stroke-dashoffset: 0; stroke: #b0b0b0; stroke-width: 0.8"/>
     </g>
     <g id="line2d_22">
      <g>
       <use xlink:href="#m1cd1030b77" x="108" y="272.976755" style="fill: #a9a9a9; stroke: #a9a9a9; stroke-width: 0.8"/>
      </g>
     </g>
     <g id="text_11">
      <!-- 800 -->
      <g style="fill: #a9a9a9" transform="translate(81.9125 276.775974) scale(0.1 -0.1)">
       <defs>
        <path id="DejaVuSans-38" d="M 2034 2216 
Q 1584 2216 1326 1975 
Q 1069 1734 1069 1313 
Q 1069 891 1326 650 
Q 1584 409 2034 409 
Q 2484 409 2743 651 
Q 3003 894 3003 1313 
Q 3003 1734 2745 1975 
Q 2488 2216 2034 2216 
z
M 1403 2484 
Q 997 2584 770 2862 
Q 544 3141 544 3541 
Q 544 4100 942 4425 
Q 1341 4750 2034 4750 
Q 2731 4750 3128 4425 
Q 3525 4100 3525 3541 
Q 3525 3141 3298 2862 
Q 3072 2584 2669 2484 
Q 3125 2378 3379 2068 
Q 3634 1759 3634 1313 
Q 3634 634 3220 271 
Q 2806 -91 2034 -91 
Q 1263 -91 848 271 
Q 434 634 434 1313 
Q 434 1759 690 2068 
Q 947 2378 1403 2484 
z
M 1172 3481 
Q 1172 3119 1398 2916 
Q 1625 2713 2034 2713 
Q 2441 2713 2670 2916 
Q 2900 3119 2900 3481 
Q 2900 3844 2670 4047 
Q 2441 4250 2034 4250 
Q 1625 4250 1398 4047 
Q 1172 3844 1172 3481 
z
" transform="scale(0.015625)"/>
       </defs>
       <use xlink:href="#DejaVuSans-38"/>
       <use xlink:href="#DejaVuSans-30" x="63.623047"/>
       <use xlink:href="#DejaVuSans-30" x="127.246094"/>
      </g>
     </g>
    </g>
    <g id="ytick_3">
     <g id="line2d_23">
      <path d="M 108 238.109927 
L 777.6 238.109927 
" clip-path="url(#p0d6c2cab66)" style="fill: none; stroke-dasharray: 5.12,1.28,0.8,1.28; stroke-dashoffset: 0; stroke: #b0b0b0; stroke-width: 0.8"/>
     </g>
     <g id="line2d_24">
      <g>
       <use xlink:href="#m1cd1030b77" x="108" y="238.109927" style="fill: #a9a9a9; stroke: #a9a9a9; stroke-width: 0.8"/>
      </g>
     </g>
     <g id="text_12">
      <!-- 1600 -->
      <g style="fill: #a9a9a9" transform="translate(75.55 241.909146) scale(0.1 -0.1)">
       <defs>
        <path id="DejaVuSans-36" d="M 2113 2584 
Q 1688 2584 1439 2293 
Q 1191 2003 1191 1497 
Q 1191 994 1439 701 
Q 1688 409 2113 409 
Q 2538 409 2786 701 
Q 3034 994 3034 1497 
Q 3034 2003 2786 2293 
Q 2538 2584 2113 2584 
z
M 3366 4563 
L 3366 3988 
Q 3128 4100 2886 4159 
Q 2644 4219 2406 4219 
Q 1781 4219 1451 3797 
Q 1122 3375 1075 2522 
Q 1259 2794 1537 2939 
Q 1816 3084 2150 3084 
Q 2853 3084 3261 2657 
Q 3669 2231 3669 1497 
Q 3669 778 3244 343 
Q 2819 -91 2113 -91 
Q 1303 -91 875 529 
Q 447 1150 447 2328 
Q 447 3434 972 4092 
Q 1497 4750 2381 4750 
Q 2619 4750 2861 4703 
Q 3103 4656 3366 4563 
z
" transform="scale(0.015625)"/>
       </defs>
       <use xlink:href="#DejaVuSans-31"/>
       <use xlink:href="#DejaVuSans-36" x="63.623047"/>
       <use xlink:href="#DejaVuSans-30" x="127.246094"/>
       <use xlink:href="#DejaVuSans-30" x="190.869141"/>
      </g>
     </g>
    </g>
    <g id="ytick_4">
     <g id="line2d_25">
      <path d="M 108 203.243099 
L 777.6 203.243099 
" clip-path="url(#p0d6c2cab66)" style="fill: none; stroke-dasharray: 5.12,1.28,0.8,1.28; stroke-dashoffset: 0; stroke: #b0b0b0; stroke-width: 0.8"/>
     </g>
     <g id="line2d_26">
      <g>
       <use xlink:href="#m1cd1030b77" x="108" y="203.243099" style="fill: #a9a9a9; stroke: #a9a9a9; stroke-width: 0.8"/>
      </g>
     </g>
     <g id="text_13">
      <!-- 2400 -->
      <g style="fill: #a9a9a9" transform="translate(75.55 207.042318) scale(0.1 -0.1)">
       <use xlink:href="#DejaVuSans-32"/>
       <use xlink:href="#DejaVuSans-34" x="63.623047"/>
       <use xlink:href="#DejaVuSans-30" x="127.246094"/>
       <use xlink:href="#DejaVuSans-30" x="190.869141"/>
      </g>
     </g>
    </g>
    <g id="ytick_5">
     <g id="line2d_27">
      <path d="M 108 168.376271 
L 777.6 168.376271 
" clip-path="url(#p0d6c2cab66)" style="fill: none; stroke-dasharray: 5.12,1.28,0.8,1.28; stroke-dashoffset: 0; stroke: #b0b0b0; stroke-width: 0.8"/>
     </g>
     <g id="line2d_28">
      <g>
       <use xlink:href="#m1cd1030b77" x="108" y="168.376271" style="fill: #a9a9a9; stroke: #a9a9a9; stroke-width: 0.8"/>
      </g>
     </g>
     <g id="text_14">
      <!-- 3200 -->
      <g style="fill: #a9a9a9" transform="translate(75.55 172.17549) scale(0.1 -0.1)">
       <use xlink:href="#DejaVuSans-33"/>
       <use xlink:href="#DejaVuSans-32" x="63.623047"/>
       <use xlink:href="#DejaVuSans-30" x="127.246094"/>
       <use xlink:href="#DejaVuSans-30" x="190.869141"/>
      </g>
     </g>
    </g>
    <g id="ytick_6">
     <g id="line2d_29">
      <path d="M 108 133.509443 
L 777.6 133.509443 
" clip-path="url(#p0d6c2cab66)" style="fill: none; stroke-dasharray: 5.12,1.28,0.8,1.28; stroke-dashoffset: 0; stroke: #b0b0b0; stroke-width: 0.8"/>
     </g>
     <g id="line2d_30">
      <g>
       <use xlink:href="#m1cd1030b77" x="108" y="133.509443" style="fill: #a9a9a9; stroke: #a9a9a9; stroke-width: 0.8"/>
      </g>
     </g>
     <g id="text_15">
      <!-- 4000 -->
      <g style="fill: #a9a9a9" transform="translate(75.55 137.308662) scale(0.1 -0.1)">
       <use xlink:href="#DejaVuSans-34"/>
       <use xlink:href="#DejaVuSans-30" x="63.623047"/>
       <use xlink:href="#DejaVuSans-30" x="127.246094"/>
       <use xlink:href="#DejaVuSans-30" x="190.869141"/>
      </g>
     </g>
    </g>
    <g id="ytick_7">
     <g id="line2d_31">
      <path d="M 108 98.642615 
L 777.6 98.642615 
" clip-path="url(#p0d6c2cab66)" style="fill: none; stroke-dasharray: 5.12,1.28,0.8,1.28; stroke-dashoffset: 0; stroke: #b0b0b0; stroke-width: 0.8"/>
     </g>
     <g id="line2d_32">
      <g>
       <use xlink:href="#m1cd1030b77" x="108" y="98.642615" style="fill: #a9a9a9; stroke: #a9a9a9; stroke-width: 0.8"/>
      </g>
     </g>
     <g id="text_16">
      <!-- 4800 -->
      <g style="fill: #a9a9a9" transform="translate(75.55 102.441834) scale(0.1 -0.1)">
       <use xlink:href="#DejaVuSans-34"/>
       <use xlink:href="#DejaVuSans-38" x="63.623047"/>
       <use xlink:href="#DejaVuSans-30" x="127.246094"/>
       <use xlink:href="#DejaVuSans-30" x="190.869141"/>
      </g>
     </g>
    </g>
    <g id="ytick_8">
     <g id="line2d_33">
      <path d="M 108 63.775787 
L 777.6 63.775787 
" clip-path="url(#p0d6c2cab66)" style="fill: none; stroke-dasharray: 5.12,1.28,0.8,1.28; stroke-dashoffset: 0; stroke: #b0b0b0; stroke-width: 0.8"/>
     </g>
     <g id="line2d_34">
      <g>
       <use xlink:href="#m1cd1030b77" x="108" y="63.775787" style="fill: #a9a9a9; stroke: #a9a9a9; stroke-width: 0.8"/>
      </g>
     </g>
     <g id="text_17">
      <!-- 5600 -->
      <g style="fill: #a9a9a9" transform="translate(75.55 67.575006) scale(0.1 -0.1)">
       <use xlink:href="#DejaVuSans-35"/>
       <use xlink:href="#DejaVuSans-36" x="63.623047"/>
       <use xlink:href="#DejaVuSans-30" x="127.246094"/>
       <use xlink:href="#DejaVuSans-30" x="190.869141"/>
      </g>
     </g>
    </g>
   </g>
   <g id="line2d_35">
    <path d="M 138.436364 307.712833 
L 142.209467 307.407748 
L 142.838317 307.146247 
L 144.724869 306.928329 
L 148.497971 306.187409 
L 152.271074 305.882324 
L 152.899925 305.57724 
L 153.528775 305.402906 
L 154.157626 304.618402 
L 154.786476 304.182567 
L 155.415327 302.831477 
L 156.044177 302.74431 
L 156.673028 302.264891 
L 157.930729 301.654722 
L 160.446131 299.737046 
L 161.703832 299.214044 
L 162.332682 298.778208 
L 164.848084 297.68862 
L 165.476935 296.729782 
L 166.734636 295.814528 
L 167.363486 295.509443 
L 173.651991 294.637772 
L 174.280841 294.332688 
L 178.682795 293.984019 
L 180.569346 293.5046 
L 186.229001 292.76368 
L 186.857851 292.415012 
L 187.486702 292.327845 
L 188.115552 292.066344 
L 189.373253 291.848426 
L 190.002104 291.804843 
L 191.259805 291.543341 
L 191.888655 291.499758 
L 194.404057 290.889588 
L 196.290609 290.715254 
L 197.54831 290.584504 
L 198.17716 290.410169 
L 198.806011 290.366586 
L 200.692562 289.8 
L 204.465665 289.233414 
L 205.094515 289.05908 
L 205.723366 288.187409 
L 207.609917 287.490073 
L 209.496469 286.96707 
L 210.125319 286.661985 
L 210.75417 286.618402 
L 213.898422 285.746731 
L 215.156123 285.659564 
L 215.784974 285.572397 
L 217.671525 285.005811 
L 220.186927 284.395642 
L 220.815778 284.13414 
L 221.444628 284.046973 
L 222.073479 283.741889 
L 228.361983 282.783051 
L 231.506236 281.91138 
L 232.135086 281.519128 
L 234.650488 280.865375 
L 235.908189 280.124455 
L 236.53704 279.68862 
L 238.423591 279.339952 
L 242.196694 278.20678 
L 243.454395 277.814528 
L 244.083246 277.727361 
L 245.340947 277.378692 
L 246.598648 277.073608 
L 247.227498 276.986441 
L 248.485199 276.463438 
L 249.11405 276.332688 
L 249.7429 276.071186 
L 250.371751 275.984019 
L 251.000601 275.678935 
L 251.629452 275.5046 
L 252.887153 275.417433 
L 254.144853 274.981598 
L 255.402554 274.894431 
L 256.031405 274.589346 
L 258.546807 274.153511 
L 261.062209 273.935593 
L 261.691059 273.804843 
L 262.94876 273.194673 
L 269.866116 270.274576 
L 270.494966 269.925908 
L 271.123817 269.228571 
L 271.752667 268.182567 
L 272.381518 267.354479 
L 273.010368 267.180145 
L 273.639219 267.180145 
L 274.89692 266.264891 
L 275.52577 266.090557 
L 276.154621 265.741889 
L 276.783471 265.611138 
L 277.412322 265.044552 
L 278.041172 264.870218 
L 279.927724 263.954964 
L 281.185424 262.211622 
L 281.814275 261.81937 
L 282.443125 260.773366 
L 283.071976 260.119613 
L 283.700826 259.814528 
L 284.329677 259.640194 
L 286.845079 258.158354 
L 288.10278 257.155932 
L 288.73163 256.76368 
L 289.360481 255.848426 
L 289.989331 254.410169 
L 290.618182 253.494915 
L 291.247032 253.015496 
L 291.875883 252.753995 
L 294.391285 250.574818 
L 295.648986 249.572397 
L 296.277836 249.049395 
L 296.906687 248.221308 
L 298.164388 247.131719 
L 300.67979 245.519128 
L 301.30864 244.952542 
L 301.937491 244.821792 
L 302.566341 244.560291 
L 304.452893 243.514286 
L 305.710594 242.904116 
L 306.968295 241.727361 
L 307.597145 240.986441 
L 308.854846 240.11477 
L 309.483696 239.940436 
L 310.112547 239.635351 
L 311.370248 238.807264 
L 311.999098 238.458596 
L 312.627949 238.371429 
L 318.287603 234.971913 
L 318.916454 234.753995 
L 320.803005 233.533656 
L 322.689557 232.96707 
L 323.318407 232.531235 
L 323.947258 232.400484 
L 325.204959 231.964649 
L 327.09151 231.223729 
L 328.978062 230.526392 
L 330.235763 230.308475 
L 331.493464 229.218886 
L 332.751165 228.608717 
L 334.008866 227.91138 
L 334.637716 227.562712 
L 335.895417 227.214044 
L 336.524267 226.821792 
L 337.153118 226.647458 
L 339.039669 225.470702 
L 342.183922 224.729782 
L 344.070473 223.640194 
L 344.699324 223.553027 
L 345.328174 223.335109 
L 346.585875 223.073608 
L 348.472427 221.678935 
L 350.358978 221.243099 
L 350.987829 221.025182 
L 351.616679 220.545763 
L 355.389782 219.325424 
L 356.018633 219.28184 
L 356.647483 219.107506 
L 357.905184 218.584504 
L 362.307137 217.05908 
L 363.564838 216.884746 
L 364.193689 216.710412 
L 364.822539 216.405327 
L 365.45139 216.274576 
L 367.337941 215.402906 
L 369.224493 214.487651 
L 369.853343 214.051816 
L 370.482194 213.877482 
L 372.368745 212.875061 
L 373.626446 212.569976 
L 374.884147 211.916223 
L 376.141848 211.567554 
L 376.770699 211.480387 
L 378.0284 210.739467 
L 378.65725 210.608717 
L 379.914951 210.085714 
L 380.543802 209.954964 
L 381.172652 209.606295 
L 383.688054 209.214044 
L 384.945755 208.603874 
L 385.574606 208.080872 
L 386.203456 206.991283 
L 387.461157 206.729782 
L 388.090008 206.599031 
L 390.605409 205.291525 
L 391.23426 205.160775 
L 396.265064 202.76368 
L 398.151615 202.371429 
L 398.780466 202.02276 
L 402.553569 200.715254 
L 403.81127 199.930751 
L 405.068971 199.189831 
L 405.697821 199.102663 
L 406.326672 198.884746 
L 406.955522 198.841162 
L 410.099775 198.013075 
L 410.728625 197.533656 
L 411.986326 197.097821 
L 413.872878 196.487651 
L 414.501728 196.0954 
L 415.130579 195.921065 
L 415.759429 195.48523 
L 416.388279 195.223729 
L 417.64598 194.569976 
L 420.161382 193.785472 
L 420.790233 193.480387 
L 422.676784 192.042131 
L 423.305635 191.91138 
L 424.563336 190.952542 
L 425.192186 190.821792 
L 425.821037 189.862954 
L 426.449887 189.601453 
L 427.078738 189.122034 
L 427.707588 189.034867 
L 428.965289 188.293947 
L 429.59414 188.163196 
L 430.22299 187.901695 
L 430.851841 187.422276 
L 431.480691 187.204358 
L 433.367243 185.940436 
L 435.882645 184.676513 
L 436.511495 184.589346 
L 437.769196 184.02276 
L 438.398047 183.674092 
L 439.026897 182.628087 
L 439.655748 182.061501 
L 440.284598 181.712833 
L 440.913449 181.582082 
L 442.17115 180.797579 
L 442.8 180.666828 
L 444.057701 180.056659 
L 445.944252 179.272155 
L 447.201953 178.400484 
L 448.459654 177.092978 
L 451.603907 174.826634 
L 452.861608 173.78063 
L 453.490458 173.519128 
L 454.119309 172.821792 
L 454.748159 172.342373 
L 456.00586 171.906538 
L 456.634711 171.383535 
L 457.892412 170.729782 
L 458.521262 170.555448 
L 459.150113 170.119613 
L 459.778963 169.988862 
L 461.665515 168.986441 
L 462.923216 168.245521 
L 469.211721 166.02276 
L 469.840571 165.456174 
L 471.727122 164.758838 
L 472.984823 164.366586 
L 473.613674 163.887167 
L 476.129076 162.579661 
L 476.757926 162.230993 
L 478.015627 159.746731 
L 479.273328 158.264891 
L 480.531029 157.523971 
L 482.417581 156.783051 
L 483.046431 156.695884 
L 483.675282 156.347215 
L 485.561833 155.78063 
L 488.077235 154.647458 
L 488.706086 154.255206 
L 489.963787 153.81937 
L 493.73689 151.640194 
L 494.36574 150.986441 
L 495.623441 150.332688 
L 496.252292 149.984019 
L 496.881142 149.766102 
L 497.509992 149.330266 
L 498.767693 148.720097 
L 500.654245 147.717676 
L 501.283095 147.543341 
L 501.911946 147.063923 
L 502.540796 146.802421 
L 503.169647 146.671671 
L 504.427348 146.235835 
L 506.313899 145.538499 
L 506.94275 145.102663 
L 508.200451 144.753995 
L 509.458152 144.274576 
L 510.087002 143.795157 
L 511.344703 143.402906 
L 511.973554 143.097821 
L 512.602404 142.923487 
L 513.860105 142.051816 
L 515.117806 141.48523 
L 516.375507 140.526392 
L 517.633208 140.090557 
L 518.262059 139.567554 
L 518.890909 139.480387 
L 520.14861 138.565133 
L 521.406311 137.954964 
L 522.035162 137.693462 
L 522.664012 137.083293 
L 526.437115 135.732203 
L 528.323666 134.904116 
L 530.210218 134.33753 
L 531.467919 134.163196 
L 532.096769 133.901695 
L 532.72562 133.814528 
L 533.983321 133.291525 
L 534.612171 133.247942 
L 537.127573 132.332688 
L 539.014125 131.025182 
L 539.642975 130.76368 
L 540.900676 130.109927 
L 541.529527 129.89201 
L 544.044929 128.410169 
L 544.673779 128.017918 
L 545.93148 127.712833 
L 547.818032 126.666828 
L 549.704583 126.056659 
L 550.333434 125.795157 
L 551.591134 125.490073 
L 554.735387 124.487651 
L 556.621938 124.138983 
L 559.13734 123.354479 
L 559.766191 123.092978 
L 560.395041 123.005811 
L 561.023892 122.700726 
L 562.281593 122.439225 
L 563.539294 122.00339 
L 564.168144 121.785472 
L 565.425845 121.654722 
L 566.683546 121.349637 
L 568.570098 121.044552 
L 569.198948 120.826634 
L 570.456649 120.695884 
L 576.116304 119.039709 
L 576.745154 118.821792 
L 577.374005 118.778208 
L 581.147107 117.645036 
L 582.404808 117.209201 
L 583.033659 117.122034 
L 584.92021 116.468281 
L 585.549061 116.468281 
L 586.806762 116.032446 
L 587.435612 115.422276 
L 588.064463 115.117191 
L 589.322164 114.724939 
L 591.837566 113.766102 
L 592.466416 113.635351 
L 593.095267 113.243099 
L 593.724117 113.112349 
L 594.352968 112.76368 
L 597.49722 111.848426 
L 598.126071 111.456174 
L 598.754921 111.325424 
L 599.383772 110.802421 
L 601.270323 110.453753 
L 602.528024 109.756416 
L 603.156875 109.05908 
L 604.414576 108.797579 
L 608.816529 107.795157 
L 609.445379 107.620823 
L 610.70308 107.57724 
L 611.331931 107.272155 
L 613.847333 106.83632 
L 614.476183 106.531235 
L 616.362735 106.269734 
L 618.878137 105.48523 
L 620.764688 105.049395 
L 622.65124 104.569976 
L 625.166642 103.785472 
L 625.795492 103.654722 
L 626.424343 103.349637 
L 627.053193 103.26247 
L 627.682044 103.044552 
L 628.310894 102.695884 
L 630.197446 102.042131 
L 630.826296 101.562712 
L 632.083997 101.214044 
L 632.712847 100.952542 
L 633.970548 100.603874 
L 636.48595 99.470702 
L 638.372502 99.339952 
L 640.887904 98.555448 
L 641.516754 98.163196 
L 642.774455 97.814528 
L 644.661007 96.85569 
L 645.289857 96.724939 
L 645.918708 96.419855 
L 646.547558 96.376271 
L 653.464914 94.066344 
L 655.980316 93.456174 
L 656.609166 93.28184 
L 657.866867 92.715254 
L 658.495718 92.628087 
L 659.753418 92.279419 
L 660.382269 91.8 
L 661.011119 91.494915 
L 661.63997 90.753995 
L 662.26882 90.31816 
L 663.526521 89.925908 
L 664.155372 89.402906 
L 671.072727 86.569976 
L 672.330428 86.264891 
L 674.21698 85.39322 
L 675.474681 84.6523 
L 676.103531 84.52155 
L 676.732382 84.042131 
L 677.990083 83.431961 
L 679.247784 82.647458 
L 681.134335 81.775787 
L 681.763186 81.339952 
L 683.020887 80.860533 
L 684.278588 80.119613 
L 684.907438 79.814528 
L 685.536289 79.378692 
L 686.793989 78.942857 
L 687.42284 78.812107 
L 689.938242 77.678935 
L 693.082494 76.589346 
L 693.711345 76.545763 
L 694.340195 76.371429 
L 694.969046 75.979177 
L 695.597896 75.89201 
L 696.226747 75.674092 
L 698.113298 75.325424 
L 701.257551 73.712833 
L 702.515252 73.015496 
L 703.144102 72.928329 
L 705.030654 71.925908 
L 706.917205 71.228571 
L 708.803757 70.400484 
L 711.319159 69.398063 
L 711.948009 69.223729 
L 712.57686 68.831477 
L 713.83456 68.657143 
L 714.463411 68.264891 
L 715.092261 68.221308 
L 716.349962 67.829056 
L 717.607663 67.218886 
L 718.236514 67.131719 
L 718.865364 66.870218 
L 719.494215 66.739467 
L 721.380766 65.91138 
L 722.009617 65.78063 
L 722.638467 65.519128 
L 725.78272 64.778208 
L 727.669271 64.037288 
L 730.184673 62.599031 
L 731.442374 62.119613 
L 732.071225 61.727361 
L 733.328926 61.46586 
L 733.957776 61.117191 
L 734.586627 60.986441 
L 735.844328 60.289104 
L 739.617431 58.545763 
L 743.390533 57.238257 
L 744.648234 56.584504 
L 745.905935 56.192252 
L 746.534786 56.061501 
L 747.163636 55.8 
L 747.163636 55.8 
" clip-path="url(#p0d6c2cab66)" style="fill: none; stroke: #1f77b4; stroke-width: 1.5; stroke-linecap: square"/>
   </g>
   <g id="line2d_36">
    <path d="M 139.065214 307.8 
L 140.951766 307.712833 
L 142.838317 307.669249 
L 146.61142 307.582082 
L 149.755672 307.451332 
L 152.271074 307.451332 
L 152.899925 307.276998 
L 155.415327 307.189831 
L 157.301878 306.971913 
L 159.18843 306.797579 
L 162.961533 306.623245 
L 163.590383 306.623245 
L 164.219234 306.492494 
L 166.734636 306.405327 
L 167.992337 306.31816 
L 173.02314 306.230993 
L 176.167393 306.100242 
L 183.713599 306.013075 
L 186.857851 305.882324 
L 190.630954 305.795157 
L 193.146356 305.70799 
L 198.806011 305.620823 
L 200.692562 305.57724 
L 202.579113 305.533656 
L 204.465665 305.315738 
L 208.238768 305.272155 
L 209.496469 305.184988 
L 213.898422 305.097821 
L 220.815778 304.705569 
L 225.217731 304.618402 
L 226.475432 304.531235 
L 228.361983 304.444068 
L 232.135086 304.269734 
L 234.650488 304.22615 
L 236.53704 304.051816 
L 246.598648 303.441646 
L 249.11405 303.354479 
L 253.516003 303.136562 
L 255.402554 303.049395 
L 261.691059 302.700726 
L 268.608415 302.613559 
L 271.123817 302.352058 
L 272.381518 302.264891 
L 280.556574 301.611138 
L 284.329677 301.131719 
L 286.845079 301.044552 
L 291.875883 300.390799 
L 295.020135 300.303632 
L 303.195192 299.649879 
L 306.339444 299.301211 
L 308.854846 299.214044 
L 310.112547 299.126877 
L 312.627949 299.039709 
L 313.88565 298.952542 
L 317.029902 298.647458 
L 317.658753 298.473123 
L 321.431856 298.298789 
L 324.576108 298.211622 
L 332.751165 297.732203 
L 334.637716 297.645036 
L 342.812772 297.165617 
L 347.214726 297.07845 
L 347.843576 296.9477 
L 352.87438 296.860533 
L 357.276334 296.642615 
L 364.193689 296.555448 
L 368.595642 296.33753 
L 373.626446 296.250363 
L 378.65725 295.988862 
L 383.059204 295.901695 
L 395.007363 295.160775 
L 400.038167 295.073608 
L 416.388279 294.027603 
L 420.161382 293.940436 
L 422.047934 293.896852 
L 423.934485 293.853269 
L 425.821037 293.678935 
L 430.851841 293.591768 
L 432.109542 293.37385 
L 433.367243 293.286683 
L 436.511495 293.155932 
L 437.769196 293.068765 
L 439.026897 292.981598 
L 444.686551 292.894431 
L 445.944252 292.76368 
L 448.459654 292.720097 
L 449.088505 292.589346 
L 450.346206 292.502179 
L 450.975056 292.371429 
L 452.861608 292.284262 
L 463.552066 291.630508 
L 465.438618 291.543341 
L 468.58287 291.412591 
L 477.386777 291.325424 
L 481.78873 291.107506 
L 486.819534 291.020339 
L 489.334936 290.933172 
L 491.850338 290.889588 
L 493.108039 290.758838 
L 495.623441 290.671671 
L 501.911946 290.323002 
L 505.685049 290.279419 
L 507.5716 290.105085 
L 509.458152 290.061501 
L 513.860105 289.974334 
L 516.375507 289.887167 
L 523.921713 289.8 
L 527.065965 289.669249 
L 530.839068 289.582082 
L 532.72562 289.364165 
L 536.498723 289.320581 
L 538.385274 289.146247 
L 540.900676 289.05908 
L 548.446882 288.971913 
L 551.591134 288.841162 
L 562.281593 288.797579 
L 563.539294 288.710412 
L 565.425845 288.666828 
L 573.600902 288.579661 
L 574.858603 288.492494 
L 581.775958 288.405327 
L 584.29136 288.31816 
L 591.837566 288.274576 
L 593.095267 288.187409 
L 602.528024 288.143826 
L 604.414576 287.969492 
L 615.105034 287.882324 
L 616.991585 287.838741 
L 633.341698 287.751574 
L 635.228249 287.70799 
L 647.176409 287.620823 
L 649.691811 287.533656 
L 654.093764 287.446489 
L 659.124568 287.184988 
L 661.63997 287.097821 
L 664.155372 287.010654 
L 667.928475 286.923487 
L 669.815026 286.879903 
L 672.330428 286.792736 
L 674.21698 286.749153 
L 677.361232 286.661985 
L 678.618933 286.574818 
L 682.392036 286.487651 
L 685.536289 286.356901 
L 686.793989 286.313317 
L 688.680541 286.138983 
L 692.453644 286.051816 
L 694.969046 285.964649 
L 701.257551 285.877482 
L 704.401803 285.746731 
L 710.690308 285.659564 
L 715.092261 285.441646 
L 720.751916 285.354479 
L 722.009617 285.267312 
L 729.555823 285.180145 
L 731.442374 285.136562 
L 738.35973 285.049395 
L 740.875131 284.787893 
L 742.761683 284.74431 
L 746.534786 284.657143 
L 747.163636 284.613559 
L 747.163636 284.613559 
" clip-path="url(#p0d6c2cab66)" style="fill: none; stroke: #ff7f0e; stroke-width: 1.5; stroke-linecap: square"/>
   </g>
   <g id="patch_3">
    <path d="M 108 320.4 
L 108 43.2 
" style="fill: none; stroke: #a9a9a9; stroke-width: 0.8; stroke-linejoin: miter; stroke-linecap: square"/>
   </g>
   <g id="patch_4">
    <path d="M 777.6 320.4 
L 777.6 43.2 
" style="fill: none"/>
   </g>
   <g id="patch_5">
    <path d="M 108 320.4 
L 777.6 320.4 
" style="fill: none; stroke: #a9a9a9; stroke-width: 0.8; stroke-linejoin: miter; stroke-linecap: square"/>
   </g>
   <g id="patch_6">
    <path d="M 108 43.2 
L 777.6 43.2 
" style="fill: none"/>
   </g>
   <g id="text_18">
    <!-- get_subscribe history -->
    <g style="fill: #a9a9a9" transform="translate(378.6075 37.2) scale(0.12 -0.12)">
     <defs>
      <path id="DejaVuSans-67" d="M 2906 1791 
Q 2906 2416 2648 2759 
Q 2391 3103 1925 3103 
Q 1463 3103 1205 2759 
Q 947 2416 947 1791 
Q 947 1169 1205 825 
Q 1463 481 1925 481 
Q 2391 481 2648 825 
Q 2906 1169 2906 1791 
z
M 3481 434 
Q 3481 -459 3084 -895 
Q 2688 -1331 1869 -1331 
Q 1566 -1331 1297 -1286 
Q 1028 -1241 775 -1147 
L 775 -588 
Q 1028 -725 1275 -790 
Q 1522 -856 1778 -856 
Q 2344 -856 2625 -561 
Q 2906 -266 2906 331 
L 2906 616 
Q 2728 306 2450 153 
Q 2172 0 1784 0 
Q 1141 0 747 490 
Q 353 981 353 1791 
Q 353 2603 747 3093 
Q 1141 3584 1784 3584 
Q 2172 3584 2450 3431 
Q 2728 3278 2906 2969 
L 2906 3500 
L 3481 3500 
L 3481 434 
z
" transform="scale(0.015625)"/>
      <path id="DejaVuSans-65" d="M 3597 1894 
L 3597 1613 
L 953 1613 
Q 991 1019 1311 708 
Q 1631 397 2203 397 
Q 2534 397 2845 478 
Q 3156 559 3463 722 
L 3463 178 
Q 3153 47 2828 -22 
Q 2503 -91 2169 -91 
Q 1331 -91 842 396 
Q 353 884 353 1716 
Q 353 2575 817 3079 
Q 1281 3584 2069 3584 
Q 2775 3584 3186 3129 
Q 3597 2675 3597 1894 
z
M 3022 2063 
Q 3016 2534 2758 2815 
Q 2500 3097 2075 3097 
Q 1594 3097 1305 2825 
Q 1016 2553 972 2059 
L 3022 2063 
z
" transform="scale(0.015625)"/>
      <path id="DejaVuSans-74" d="M 1172 4494 
L 1172 3500 
L 2356 3500 
L 2356 3053 
L 1172 3053 
L 1172 1153 
Q 1172 725 1289 603 
Q 1406 481 1766 481 
L 2356 481 
L 2356 0 
L 1766 0 
Q 1100 0 847 248 
Q 594 497 594 1153 
L 594 3053 
L 172 3053 
L 172 3500 
L 594 3500 
L 594 4494 
L 1172 4494 
z
" transform="scale(0.015625)"/>
      <path id="DejaVuSans-5f" d="M 3263 -1063 
L 3263 -1509 
L -63 -1509 
L -63 -1063 
L 3263 -1063 
z
" transform="scale(0.015625)"/>
      <path id="DejaVuSans-73" d="M 2834 3397 
L 2834 2853 
Q 2591 2978 2328 3040 
Q 2066 3103 1784 3103 
Q 1356 3103 1142 2972 
Q 928 2841 928 2578 
Q 928 2378 1081 2264 
Q 1234 2150 1697 2047 
L 1894 2003 
Q 2506 1872 2764 1633 
Q 3022 1394 3022 966 
Q 3022 478 2636 193 
Q 2250 -91 1575 -91 
Q 1294 -91 989 -36 
Q 684 19 347 128 
L 347 722 
Q 666 556 975 473 
Q 1284 391 1588 391 
Q 1994 391 2212 530 
Q 2431 669 2431 922 
Q 2431 1156 2273 1281 
Q 2116 1406 1581 1522 
L 1381 1569 
Q 847 1681 609 1914 
Q 372 2147 372 2553 
Q 372 3047 722 3315 
Q 1072 3584 1716 3584 
Q 2034 3584 2315 3537 
Q 2597 3491 2834 3397 
z
" transform="scale(0.015625)"/>
      <path id="DejaVuSans-75" d="M 544 1381 
L 544 3500 
L 1119 3500 
L 1119 1403 
Q 1119 906 1312 657 
Q 1506 409 1894 409 
Q 2359 409 2629 706 
Q 2900 1003 2900 1516 
L 2900 3500 
L 3475 3500 
L 3475 0 
L 2900 0 
L 2900 538 
Q 2691 219 2414 64 
Q 2138 -91 1772 -91 
Q 1169 -91 856 284 
Q 544 659 544 1381 
z
M 1991 3584 
L 1991 3584 
z
" transform="scale(0.015625)"/>
      <path id="DejaVuSans-62" d="M 3116 1747 
Q 3116 2381 2855 2742 
Q 2594 3103 2138 3103 
Q 1681 3103 1420 2742 
Q 1159 2381 1159 1747 
Q 1159 1113 1420 752 
Q 1681 391 2138 391 
Q 2594 391 2855 752 
Q 3116 1113 3116 1747 
z
M 1159 2969 
Q 1341 3281 1617 3432 
Q 1894 3584 2278 3584 
Q 2916 3584 3314 3078 
Q 3713 2572 3713 1747 
Q 3713 922 3314 415 
Q 2916 -91 2278 -91 
Q 1894 -91 1617 61 
Q 1341 213 1159 525 
L 1159 0 
L 581 0 
L 581 4863 
L 1159 4863 
L 1159 2969 
z
" transform="scale(0.015625)"/>
      <path id="DejaVuSans-63" d="M 3122 3366 
L 3122 2828 
Q 2878 2963 2633 3030 
Q 2388 3097 2138 3097 
Q 1578 3097 1268 2742 
Q 959 2388 959 1747 
Q 959 1106 1268 751 
Q 1578 397 2138 397 
Q 2388 397 2633 464 
Q 2878 531 3122 666 
L 3122 134 
Q 2881 22 2623 -34 
Q 2366 -91 2075 -91 
Q 1284 -91 818 406 
Q 353 903 353 1747 
Q 353 2603 823 3093 
Q 1294 3584 2113 3584 
Q 2378 3584 2631 3529 
Q 2884 3475 3122 3366 
z
" transform="scale(0.015625)"/>
      <path id="DejaVuSans-72" d="M 2631 2963 
Q 2534 3019 2420 3045 
Q 2306 3072 2169 3072 
Q 1681 3072 1420 2755 
Q 1159 2438 1159 1844 
L 1159 0 
L 581 0 
L 581 3500 
L 1159 3500 
L 1159 2956 
Q 1341 3275 1631 3429 
Q 1922 3584 2338 3584 
Q 2397 3584 2469 3576 
Q 2541 3569 2628 3553 
L 2631 2963 
z
" transform="scale(0.015625)"/>
      <path id="DejaVuSans-69" d="M 603 3500 
L 1178 3500 
L 1178 0 
L 603 0 
L 603 3500 
z
M 603 4863 
L 1178 4863 
L 1178 4134 
L 603 4134 
L 603 4863 
z
" transform="scale(0.015625)"/>
      <path id="DejaVuSans-20" transform="scale(0.015625)"/>
      <path id="DejaVuSans-68" d="M 3513 2113 
L 3513 0 
L 2938 0 
L 2938 2094 
Q 2938 2591 2744 2837 
Q 2550 3084 2163 3084 
Q 1697 3084 1428 2787 
Q 1159 2491 1159 1978 
L 1159 0 
L 581 0 
L 581 4863 
L 1159 4863 
L 1159 2956 
Q 1366 3272 1645 3428 
Q 1925 3584 2291 3584 
Q 2894 3584 3203 3211 
Q 3513 2838 3513 2113 
z
" transform="scale(0.015625)"/>
      <path id="DejaVuSans-6f" d="M 1959 3097 
Q 1497 3097 1228 2736 
Q 959 2375 959 1747 
Q 959 1119 1226 758 
Q 1494 397 1959 397 
Q 2419 397 2687 759 
Q 2956 1122 2956 1747 
Q 2956 2369 2687 2733 
Q 2419 3097 1959 3097 
z
M 1959 3584 
Q 2709 3584 3137 3096 
Q 3566 2609 3566 1747 
Q 3566 888 3137 398 
Q 2709 -91 1959 -91 
Q 1206 -91 779 398 
Q 353 888 353 1747 
Q 353 2609 779 3096 
Q 1206 3584 1959 3584 
z
" transform="scale(0.015625)"/>
      <path id="DejaVuSans-79" d="M 2059 -325 
Q 1816 -950 1584 -1140 
Q 1353 -1331 966 -1331 
L 506 -1331 
L 506 -850 
L 844 -850 
Q 1081 -850 1212 -737 
Q 1344 -625 1503 -206 
L 1606 56 
L 191 3500 
L 800 3500 
L 1894 763 
L 2988 3500 
L 3597 3500 
L 2059 -325 
z
" transform="scale(0.015625)"/>
     </defs>
     <use xlink:href="#DejaVuSans-67"/>
     <use xlink:href="#DejaVuSans-65" x="63.476562"/>
     <use xlink:href="#DejaVuSans-74" x="125"/>
     <use xlink:href="#DejaVuSans-5f" x="164.208984"/>
     <use xlink:href="#DejaVuSans-73" x="214.208984"/>
     <use xlink:href="#DejaVuSans-75" x="266.308594"/>
     <use xlink:href="#DejaVuSans-62" x="329.6875"/>
     <use xlink:href="#DejaVuSans-73" x="393.164062"/>
     <use xlink:href="#DejaVuSans-63" x="445.263672"/>
     <use xlink:href="#DejaVuSans-72" x="500.244141"/>
     <use xlink:href="#DejaVuSans-69" x="541.357422"/>
     <use xlink:href="#DejaVuSans-62" x="569.140625"/>
     <use xlink:href="#DejaVuSans-65" x="632.617188"/>
     <use xlink:href="#DejaVuSans-20" x="694.140625"/>
     <use xlink:href="#DejaVuSans-68" x="725.927734"/>
     <use xlink:href="#DejaVuSans-69" x="789.306641"/>
     <use xlink:href="#DejaVuSans-73" x="817.089844"/>
     <use xlink:href="#DejaVuSans-74" x="869.189453"/>
     <use xlink:href="#DejaVuSans-6f" x="908.398438"/>
     <use xlink:href="#DejaVuSans-72" x="969.580078"/>
     <use xlink:href="#DejaVuSans-79" x="1010.693359"/>
    </g>
   </g>
   <g id="legend_1">
    <g id="line2d_37">
     <path d="M 815.08 328.498438 
L 825.08 328.498438 
L 835.08 328.498438 
" style="fill: none; stroke: #1f77b4; stroke-width: 1.5; stroke-linecap: square"/>
    </g>
    <g id="text_19">
     <!-- star -->
     <g style="fill: #a9a9a9" transform="translate(843.08 331.998438) scale(0.1 -0.1)">
      <defs>
       <path id="DejaVuSans-61" d="M 2194 1759 
Q 1497 1759 1228 1600 
Q 959 1441 959 1056 
Q 959 750 1161 570 
Q 1363 391 1709 391 
Q 2188 391 2477 730 
Q 2766 1069 2766 1631 
L 2766 1759 
L 2194 1759 
z
M 3341 1997 
L 3341 0 
L 2766 0 
L 2766 531 
Q 2569 213 2275 61 
Q 1981 -91 1556 -91 
Q 1019 -91 701 211 
Q 384 513 384 1019 
Q 384 1609 779 1909 
Q 1175 2209 1959 2209 
L 2766 2209 
L 2766 2266 
Q 2766 2663 2505 2880 
Q 2244 3097 1772 3097 
Q 1472 3097 1187 3025 
Q 903 2953 641 2809 
L 641 3341 
Q 956 3463 1253 3523 
Q 1550 3584 1831 3584 
Q 2591 3584 2966 3190 
Q 3341 2797 3341 1997 
z
" transform="scale(0.015625)"/>
      </defs>
      <use xlink:href="#DejaVuSans-73"/>
      <use xlink:href="#DejaVuSans-74" x="52.099609"/>
      <use xlink:href="#DejaVuSans-61" x="91.308594"/>
      <use xlink:href="#DejaVuSans-72" x="152.587891"/>
     </g>
    </g>
    <g id="line2d_38">
     <path d="M 815.08 343.176562 
L 825.08 343.176562 
L 835.08 343.176562 
" style="fill: none; stroke: #ff7f0e; stroke-width: 1.5; stroke-linecap: square"/>
    </g>
    <g id="text_20">
     <!-- fork -->
     <g style="fill: #a9a9a9" transform="translate(843.08 346.676562) scale(0.1 -0.1)">
      <defs>
       <path id="DejaVuSans-66" d="M 2375 4863 
L 2375 4384 
L 1825 4384 
Q 1516 4384 1395 4259 
Q 1275 4134 1275 3809 
L 1275 3500 
L 2222 3500 
L 2222 3053 
L 1275 3053 
L 1275 0 
L 697 0 
L 697 3053 
L 147 3053 
L 147 3500 
L 697 3500 
L 697 3744 
Q 697 4328 969 4595 
Q 1241 4863 1831 4863 
L 2375 4863 
z
" transform="scale(0.015625)"/>
       <path id="DejaVuSans-6b" d="M 581 4863 
L 1159 4863 
L 1159 1991 
L 2875 3500 
L 3609 3500 
L 1753 1863 
L 3688 0 
L 2938 0 
L 1159 1709 
L 1159 0 
L 581 0 
L 581 4863 
z
" transform="scale(0.015625)"/>
      </defs>
      <use xlink:href="#DejaVuSans-66"/>
      <use xlink:href="#DejaVuSans-6f" x="35.205078"/>
      <use xlink:href="#DejaVuSans-72" x="96.386719"/>
      <use xlink:href="#DejaVuSans-6b" x="137.5"/>
     </g>
    </g>
   </g>
  </g>
 </g>
 <defs>
  <clipPath id="p0d6c2cab66">
   <rect x="108" y="43.2" width="669.6" height="277.2"/>
  </clipPath>
 </defs>
</svg>
