<?xml version="1.0" encoding="utf-8" standalone="no"?>
<!DOCTYPE svg PUBLIC "-//W3C//DTD SVG 1.1//EN"
  "http://www.w3.org/Graphics/SVG/1.1/DTD/svg11.dtd">
<svg xmlns:xlink="http://www.w3.org/1999/xlink" width="864pt" height="360pt" viewBox="0 0 864 360" xmlns="http://www.w3.org/2000/svg" version="1.1">
 <metadata>
  <rdf:RDF xmlns:dc="http://purl.org/dc/elements/1.1/" xmlns:cc="http://creativecommons.org/ns#" xmlns:rdf="http://www.w3.org/1999/02/22-rdf-syntax-ns#">
   <cc:Work>
    <dc:type rdf:resource="http://purl.org/dc/dcmitype/StillImage"/>
    <dc:date>2024-03-20T08:10:01.610392</dc:date>
    <dc:format>image/svg+xml</dc:format>
    <dc:creator>
     <cc:Agent>
      <dc:title>Matplotlib v3.8.3, https://matplotlib.org/</dc:title>
     </cc:Agent>
    </dc:creator>
   </cc:Work>
  </rdf:RDF>
 </metadata>
 <defs>
  <style type="text/css">*{stroke-linejoin: round; stroke-linecap: butt}</style>
 </defs>
 <g id="figure_1">
  <g id="patch_1">
   <path d="M 0 360 
L 864 360 
L 864 0 
L 0 0 
L 0 360 
z
" style="fill: none; opacity: 0"/>
  </g>
  <g id="axes_1">
   <g id="patch_2">
    <path d="M 108 320.4 
L 777.6 320.4 
L 777.6 43.2 
L 108 43.2 
L 108 320.4 
z
" style="fill: none; opacity: 0"/>
   </g>
   <g id="matplotlib.axis_1">
    <g id="xtick_1">
     <g id="line2d_1">
      <path d="M 162.910965 320.4 
L 162.910965 43.2 
" clip-path="url(#pb16d04148a)" style="fill: none; stroke-dasharray: 5.12,1.28,0.8,1.28; stroke-dashoffset: 0; stroke: #b0b0b0; stroke-width: 0.8"/>
     </g>
     <g id="line2d_2">
      <defs>
       <path id="ma4737d6d14" d="M 0 0 
L 0 3.5 
" style="stroke: #a9a9a9; stroke-width: 0.8"/>
      </defs>
      <g>
       <use xlink:href="#ma4737d6d14" x="162.910965" y="320.4" style="fill: #a9a9a9; stroke: #a9a9a9; stroke-width: 0.8"/>
      </g>
     </g>
     <g id="text_1">
      <!-- 2021-09 -->
      <g style="fill: #a9a9a9" transform="translate(142.019559 334.998438) scale(0.1 -0.1)">
       <defs>
        <path id="DejaVuSans-32" d="M 1228 531 
L 3431 531 
L 3431 0 
L 469 0 
L 469 531 
Q 828 903 1448 1529 
Q 2069 2156 2228 2338 
Q 2531 2678 2651 2914 
Q 2772 3150 2772 3378 
Q 2772 3750 2511 3984 
Q 2250 4219 1831 4219 
Q 1534 4219 1204 4116 
Q 875 4013 500 3803 
L 500 4441 
Q 881 4594 1212 4672 
Q 1544 4750 1819 4750 
Q 2544 4750 2975 4387 
Q 3406 4025 3406 3419 
Q 3406 3131 3298 2873 
Q 3191 2616 2906 2266 
Q 2828 2175 2409 1742 
Q 1991 1309 1228 531 
z
" transform="scale(0.015625)"/>
        <path id="DejaVuSans-30" d="M 2034 4250 
Q 1547 4250 1301 3770 
Q 1056 3291 1056 2328 
Q 1056 1369 1301 889 
Q 1547 409 2034 409 
Q 2525 409 2770 889 
Q 3016 1369 3016 2328 
Q 3016 3291 2770 3770 
Q 2525 4250 2034 4250 
z
M 2034 4750 
Q 2819 4750 3233 4129 
Q 3647 3509 3647 2328 
Q 3647 1150 3233 529 
Q 2819 -91 2034 -91 
Q 1250 -91 836 529 
Q 422 1150 422 2328 
Q 422 3509 836 4129 
Q 1250 4750 2034 4750 
z
" transform="scale(0.015625)"/>
        <path id="DejaVuSans-31" d="M 794 531 
L 1825 531 
L 1825 4091 
L 703 3866 
L 703 4441 
L 1819 4666 
L 2450 4666 
L 2450 531 
L 3481 531 
L 3481 0 
L 794 0 
L 794 531 
z
" transform="scale(0.015625)"/>
        <path id="DejaVuSans-2d" d="M 313 2009 
L 1997 2009 
L 1997 1497 
L 313 1497 
L 313 2009 
z
" transform="scale(0.015625)"/>
        <path id="DejaVuSans-39" d="M 703 97 
L 703 672 
Q 941 559 1184 500 
Q 1428 441 1663 441 
Q 2288 441 2617 861 
Q 2947 1281 2994 2138 
Q 2813 1869 2534 1725 
Q 2256 1581 1919 1581 
Q 1219 1581 811 2004 
Q 403 2428 403 3163 
Q 403 3881 828 4315 
Q 1253 4750 1959 4750 
Q 2769 4750 3195 4129 
Q 3622 3509 3622 2328 
Q 3622 1225 3098 567 
Q 2575 -91 1691 -91 
Q 1453 -91 1209 -44 
Q 966 3 703 97 
z
M 1959 2075 
Q 2384 2075 2632 2365 
Q 2881 2656 2881 3163 
Q 2881 3666 2632 3958 
Q 2384 4250 1959 4250 
Q 1534 4250 1286 3958 
Q 1038 3666 1038 3163 
Q 1038 2656 1286 2365 
Q 1534 2075 1959 2075 
z
" transform="scale(0.015625)"/>
       </defs>
       <use xlink:href="#DejaVuSans-32"/>
       <use xlink:href="#DejaVuSans-30" x="63.623047"/>
       <use xlink:href="#DejaVuSans-32" x="127.246094"/>
       <use xlink:href="#DejaVuSans-31" x="190.869141"/>
       <use xlink:href="#DejaVuSans-2d" x="254.492188"/>
       <use xlink:href="#DejaVuSans-30" x="290.576172"/>
       <use xlink:href="#DejaVuSans-39" x="354.199219"/>
      </g>
     </g>
    </g>
    <g id="xtick_2">
     <g id="line2d_3">
      <path d="M 239.47254 320.4 
L 239.47254 43.2 
" clip-path="url(#pb16d04148a)" style="fill: none; stroke-dasharray: 5.12,1.28,0.8,1.28; stroke-dashoffset: 0; stroke: #b0b0b0; stroke-width: 0.8"/>
     </g>
     <g id="line2d_4">
      <g>
       <use xlink:href="#ma4737d6d14" x="239.47254" y="320.4" style="fill: #a9a9a9; stroke: #a9a9a9; stroke-width: 0.8"/>
      </g>
     </g>
     <g id="text_2">
      <!-- 2022-01 -->
      <g style="fill: #a9a9a9" transform="translate(218.581134 334.998438) scale(0.1 -0.1)">
       <use xlink:href="#DejaVuSans-32"/>
       <use xlink:href="#DejaVuSans-30" x="63.623047"/>
       <use xlink:href="#DejaVuSans-32" x="127.246094"/>
       <use xlink:href="#DejaVuSans-32" x="190.869141"/>
       <use xlink:href="#DejaVuSans-2d" x="254.492188"/>
       <use xlink:href="#DejaVuSans-30" x="290.576172"/>
       <use xlink:href="#DejaVuSans-31" x="354.199219"/>
      </g>
     </g>
    </g>
    <g id="xtick_3">
     <g id="line2d_5">
      <path d="M 314.779007 320.4 
L 314.779007 43.2 
" clip-path="url(#pb16d04148a)" style="fill: none; stroke-dasharray: 5.12,1.28,0.8,1.28; stroke-dashoffset: 0; stroke: #b0b0b0; stroke-width: 0.8"/>
     </g>
     <g id="line2d_6">
      <g>
       <use xlink:href="#ma4737d6d14" x="314.779007" y="320.4" style="fill: #a9a9a9; stroke: #a9a9a9; stroke-width: 0.8"/>
      </g>
     </g>
     <g id="text_3">
      <!-- 2022-05 -->
      <g style="fill: #a9a9a9" transform="translate(293.8876 334.998438) scale(0.1 -0.1)">
       <defs>
        <path id="DejaVuSans-35" d="M 691 4666 
L 3169 4666 
L 3169 4134 
L 1269 4134 
L 1269 2991 
Q 1406 3038 1543 3061 
Q 1681 3084 1819 3084 
Q 2600 3084 3056 2656 
Q 3513 2228 3513 1497 
Q 3513 744 3044 326 
Q 2575 -91 1722 -91 
Q 1428 -91 1123 -41 
Q 819 9 494 109 
L 494 744 
Q 775 591 1075 516 
Q 1375 441 1709 441 
Q 2250 441 2565 725 
Q 2881 1009 2881 1497 
Q 2881 1984 2565 2268 
Q 2250 2553 1709 2553 
Q 1456 2553 1204 2497 
Q 953 2441 691 2322 
L 691 4666 
z
" transform="scale(0.015625)"/>
       </defs>
       <use xlink:href="#DejaVuSans-32"/>
       <use xlink:href="#DejaVuSans-30" x="63.623047"/>
       <use xlink:href="#DejaVuSans-32" x="127.246094"/>
       <use xlink:href="#DejaVuSans-32" x="190.869141"/>
       <use xlink:href="#DejaVuSans-2d" x="254.492188"/>
       <use xlink:href="#DejaVuSans-30" x="290.576172"/>
       <use xlink:href="#DejaVuSans-35" x="354.199219"/>
      </g>
     </g>
    </g>
    <g id="xtick_4">
     <g id="line2d_7">
      <path d="M 391.968135 320.4 
L 391.968135 43.2 
" clip-path="url(#pb16d04148a)" style="fill: none; stroke-dasharray: 5.12,1.28,0.8,1.28; stroke-dashoffset: 0; stroke: #b0b0b0; stroke-width: 0.8"/>
     </g>
     <g id="line2d_8">
      <g>
       <use xlink:href="#ma4737d6d14" x="391.968135" y="320.4" style="fill: #a9a9a9; stroke: #a9a9a9; stroke-width: 0.8"/>
      </g>
     </g>
     <g id="text_4">
      <!-- 2022-09 -->
      <g style="fill: #a9a9a9" transform="translate(371.076729 334.998438) scale(0.1 -0.1)">
       <use xlink:href="#DejaVuSans-32"/>
       <use xlink:href="#DejaVuSans-30" x="63.623047"/>
       <use xlink:href="#DejaVuSans-32" x="127.246094"/>
       <use xlink:href="#DejaVuSans-32" x="190.869141"/>
       <use xlink:href="#DejaVuSans-2d" x="254.492188"/>
       <use xlink:href="#DejaVuSans-30" x="290.576172"/>
       <use xlink:href="#DejaVuSans-39" x="354.199219"/>
      </g>
     </g>
    </g>
    <g id="xtick_5">
     <g id="line2d_9">
      <path d="M 468.529709 320.4 
L 468.529709 43.2 
" clip-path="url(#pb16d04148a)" style="fill: none; stroke-dasharray: 5.12,1.28,0.8,1.28; stroke-dashoffset: 0; stroke: #b0b0b0; stroke-width: 0.8"/>
     </g>
     <g id="line2d_10">
      <g>
       <use xlink:href="#ma4737d6d14" x="468.529709" y="320.4" style="fill: #a9a9a9; stroke: #a9a9a9; stroke-width: 0.8"/>
      </g>
     </g>
     <g id="text_5">
      <!-- 2023-01 -->
      <g style="fill: #a9a9a9" transform="translate(447.638303 334.998438) scale(0.1 -0.1)">
       <defs>
        <path id="DejaVuSans-33" d="M 2597 2516 
Q 3050 2419 3304 2112 
Q 3559 1806 3559 1356 
Q 3559 666 3084 287 
Q 2609 -91 1734 -91 
Q 1441 -91 1130 -33 
Q 819 25 488 141 
L 488 750 
Q 750 597 1062 519 
Q 1375 441 1716 441 
Q 2309 441 2620 675 
Q 2931 909 2931 1356 
Q 2931 1769 2642 2001 
Q 2353 2234 1838 2234 
L 1294 2234 
L 1294 2753 
L 1863 2753 
Q 2328 2753 2575 2939 
Q 2822 3125 2822 3475 
Q 2822 3834 2567 4026 
Q 2313 4219 1838 4219 
Q 1578 4219 1281 4162 
Q 984 4106 628 3988 
L 628 4550 
Q 988 4650 1302 4700 
Q 1616 4750 1894 4750 
Q 2613 4750 3031 4423 
Q 3450 4097 3450 3541 
Q 3450 3153 3228 2886 
Q 3006 2619 2597 2516 
z
" transform="scale(0.015625)"/>
       </defs>
       <use xlink:href="#DejaVuSans-32"/>
       <use xlink:href="#DejaVuSans-30" x="63.623047"/>
       <use xlink:href="#DejaVuSans-32" x="127.246094"/>
       <use xlink:href="#DejaVuSans-33" x="190.869141"/>
       <use xlink:href="#DejaVuSans-2d" x="254.492188"/>
       <use xlink:href="#DejaVuSans-30" x="290.576172"/>
       <use xlink:href="#DejaVuSans-31" x="354.199219"/>
      </g>
     </g>
    </g>
    <g id="xtick_6">
     <g id="line2d_11">
      <path d="M 543.836176 320.4 
L 543.836176 43.2 
" clip-path="url(#pb16d04148a)" style="fill: none; stroke-dasharray: 5.12,1.28,0.8,1.28; stroke-dashoffset: 0; stroke: #b0b0b0; stroke-width: 0.8"/>
     </g>
     <g id="line2d_12">
      <g>
       <use xlink:href="#ma4737d6d14" x="543.836176" y="320.4" style="fill: #a9a9a9; stroke: #a9a9a9; stroke-width: 0.8"/>
      </g>
     </g>
     <g id="text_6">
      <!-- 2023-05 -->
      <g style="fill: #a9a9a9" transform="translate(522.94477 334.998438) scale(0.1 -0.1)">
       <use xlink:href="#DejaVuSans-32"/>
       <use xlink:href="#DejaVuSans-30" x="63.623047"/>
       <use xlink:href="#DejaVuSans-32" x="127.246094"/>
       <use xlink:href="#DejaVuSans-33" x="190.869141"/>
       <use xlink:href="#DejaVuSans-2d" x="254.492188"/>
       <use xlink:href="#DejaVuSans-30" x="290.576172"/>
       <use xlink:href="#DejaVuSans-35" x="354.199219"/>
      </g>
     </g>
    </g>
    <g id="xtick_7">
     <g id="line2d_13">
      <path d="M 621.025305 320.4 
L 621.025305 43.2 
" clip-path="url(#pb16d04148a)" style="fill: none; stroke-dasharray: 5.12,1.28,0.8,1.28; stroke-dashoffset: 0; stroke: #b0b0b0; stroke-width: 0.8"/>
     </g>
     <g id="line2d_14">
      <g>
       <use xlink:href="#ma4737d6d14" x="621.025305" y="320.4" style="fill: #a9a9a9; stroke: #a9a9a9; stroke-width: 0.8"/>
      </g>
     </g>
     <g id="text_7">
      <!-- 2023-09 -->
      <g style="fill: #a9a9a9" transform="translate(600.133898 334.998438) scale(0.1 -0.1)">
       <use xlink:href="#DejaVuSans-32"/>
       <use xlink:href="#DejaVuSans-30" x="63.623047"/>
       <use xlink:href="#DejaVuSans-32" x="127.246094"/>
       <use xlink:href="#DejaVuSans-33" x="190.869141"/>
       <use xlink:href="#DejaVuSans-2d" x="254.492188"/>
       <use xlink:href="#DejaVuSans-30" x="290.576172"/>
       <use xlink:href="#DejaVuSans-39" x="354.199219"/>
      </g>
     </g>
    </g>
    <g id="xtick_8">
     <g id="line2d_15">
      <path d="M 697.586879 320.4 
L 697.586879 43.2 
" clip-path="url(#pb16d04148a)" style="fill: none; stroke-dasharray: 5.12,1.28,0.8,1.28; stroke-dashoffset: 0; stroke: #b0b0b0; stroke-width: 0.8"/>
     </g>
     <g id="line2d_16">
      <g>
       <use xlink:href="#ma4737d6d14" x="697.586879" y="320.4" style="fill: #a9a9a9; stroke: #a9a9a9; stroke-width: 0.8"/>
      </g>
     </g>
     <g id="text_8">
      <!-- 2024-01 -->
      <g style="fill: #a9a9a9" transform="translate(676.695473 334.998438) scale(0.1 -0.1)">
       <defs>
        <path id="DejaVuSans-34" d="M 2419 4116 
L 825 1625 
L 2419 1625 
L 2419 4116 
z
M 2253 4666 
L 3047 4666 
L 3047 1625 
L 3713 1625 
L 3713 1100 
L 3047 1100 
L 3047 0 
L 2419 0 
L 2419 1100 
L 313 1100 
L 313 1709 
L 2253 4666 
z
" transform="scale(0.015625)"/>
       </defs>
       <use xlink:href="#DejaVuSans-32"/>
       <use xlink:href="#DejaVuSans-30" x="63.623047"/>
       <use xlink:href="#DejaVuSans-32" x="127.246094"/>
       <use xlink:href="#DejaVuSans-34" x="190.869141"/>
       <use xlink:href="#DejaVuSans-2d" x="254.492188"/>
       <use xlink:href="#DejaVuSans-30" x="290.576172"/>
       <use xlink:href="#DejaVuSans-31" x="354.199219"/>
      </g>
     </g>
    </g>
    <g id="xtick_9">
     <g id="line2d_17">
      <path d="M 773.5209 320.4 
L 773.5209 43.2 
" clip-path="url(#pb16d04148a)" style="fill: none; stroke-dasharray: 5.12,1.28,0.8,1.28; stroke-dashoffset: 0; stroke: #b0b0b0; stroke-width: 0.8"/>
     </g>
     <g id="line2d_18">
      <g>
       <use xlink:href="#ma4737d6d14" x="773.5209" y="320.4" style="fill: #a9a9a9; stroke: #a9a9a9; stroke-width: 0.8"/>
      </g>
     </g>
     <g id="text_9">
      <!-- 2024-05 -->
      <g style="fill: #a9a9a9" transform="translate(752.629493 334.998438) scale(0.1 -0.1)">
       <use xlink:href="#DejaVuSans-32"/>
       <use xlink:href="#DejaVuSans-30" x="63.623047"/>
       <use xlink:href="#DejaVuSans-32" x="127.246094"/>
       <use xlink:href="#DejaVuSans-34" x="190.869141"/>
       <use xlink:href="#DejaVuSans-2d" x="254.492188"/>
       <use xlink:href="#DejaVuSans-30" x="290.576172"/>
       <use xlink:href="#DejaVuSans-35" x="354.199219"/>
      </g>
     </g>
    </g>
   </g>
   <g id="matplotlib.axis_2">
    <g id="ytick_1">
     <g id="line2d_19">
      <path d="M 108 307.843538 
L 777.6 307.843538 
" clip-path="url(#pb16d04148a)" style="fill: none; stroke-dasharray: 5.12,1.28,0.8,1.28; stroke-dashoffset: 0; stroke: #b0b0b0; stroke-width: 0.8"/>
     </g>
     <g id="line2d_20">
      <defs>
       <path id="mf837a01c2a" d="M 0 0 
L -3.5 0 
" style="stroke: #a9a9a9; stroke-width: 0.8"/>
      </defs>
      <g>
       <use xlink:href="#mf837a01c2a" x="108" y="307.843538" style="fill: #a9a9a9; stroke: #a9a9a9; stroke-width: 0.8"/>
      </g>
     </g>
     <g id="text_10">
      <!-- 0 -->
      <g style="fill: #a9a9a9" transform="translate(94.6375 311.642757) scale(0.1 -0.1)">
       <use xlink:href="#DejaVuSans-30"/>
      </g>
     </g>
    </g>
    <g id="ytick_2">
     <g id="line2d_21">
      <path d="M 108 273.012854 
L 777.6 273.012854 
" clip-path="url(#pb16d04148a)" style="fill: none; stroke-dasharray: 5.12,1.28,0.8,1.28; stroke-dashoffset: 0; stroke: #b0b0b0; stroke-width: 0.8"/>
     </g>
     <g id="line2d_22">
      <g>
       <use xlink:href="#mf837a01c2a" x="108" y="273.012854" style="fill: #a9a9a9; stroke: #a9a9a9; stroke-width: 0.8"/>
      </g>
     </g>
     <g id="text_11">
      <!-- 800 -->
      <g style="fill: #a9a9a9" transform="translate(81.9125 276.812073) scale(0.1 -0.1)">
       <defs>
        <path id="DejaVuSans-38" d="M 2034 2216 
Q 1584 2216 1326 1975 
Q 1069 1734 1069 1313 
Q 1069 891 1326 650 
Q 1584 409 2034 409 
Q 2484 409 2743 651 
Q 3003 894 3003 1313 
Q 3003 1734 2745 1975 
Q 2488 2216 2034 2216 
z
M 1403 2484 
Q 997 2584 770 2862 
Q 544 3141 544 3541 
Q 544 4100 942 4425 
Q 1341 4750 2034 4750 
Q 2731 4750 3128 4425 
Q 3525 4100 3525 3541 
Q 3525 3141 3298 2862 
Q 3072 2584 2669 2484 
Q 3125 2378 3379 2068 
Q 3634 1759 3634 1313 
Q 3634 634 3220 271 
Q 2806 -91 2034 -91 
Q 1263 -91 848 271 
Q 434 634 434 1313 
Q 434 1759 690 2068 
Q 947 2378 1403 2484 
z
M 1172 3481 
Q 1172 3119 1398 2916 
Q 1625 2713 2034 2713 
Q 2441 2713 2670 2916 
Q 2900 3119 2900 3481 
Q 2900 3844 2670 4047 
Q 2441 4250 2034 4250 
Q 1625 4250 1398 4047 
Q 1172 3844 1172 3481 
z
" transform="scale(0.015625)"/>
       </defs>
       <use xlink:href="#DejaVuSans-38"/>
       <use xlink:href="#DejaVuSans-30" x="63.623047"/>
       <use xlink:href="#DejaVuSans-30" x="127.246094"/>
      </g>
     </g>
    </g>
    <g id="ytick_3">
     <g id="line2d_23">
      <path d="M 108 238.18217 
L 777.6 238.18217 
" clip-path="url(#pb16d04148a)" style="fill: none; stroke-dasharray: 5.12,1.28,0.8,1.28; stroke-dashoffset: 0; stroke: #b0b0b0; stroke-width: 0.8"/>
     </g>
     <g id="line2d_24">
      <g>
       <use xlink:href="#mf837a01c2a" x="108" y="238.18217" style="fill: #a9a9a9; stroke: #a9a9a9; stroke-width: 0.8"/>
      </g>
     </g>
     <g id="text_12">
      <!-- 1600 -->
      <g style="fill: #a9a9a9" transform="translate(75.55 241.981389) scale(0.1 -0.1)">
       <defs>
        <path id="DejaVuSans-36" d="M 2113 2584 
Q 1688 2584 1439 2293 
Q 1191 2003 1191 1497 
Q 1191 994 1439 701 
Q 1688 409 2113 409 
Q 2538 409 2786 701 
Q 3034 994 3034 1497 
Q 3034 2003 2786 2293 
Q 2538 2584 2113 2584 
z
M 3366 4563 
L 3366 3988 
Q 3128 4100 2886 4159 
Q 2644 4219 2406 4219 
Q 1781 4219 1451 3797 
Q 1122 3375 1075 2522 
Q 1259 2794 1537 2939 
Q 1816 3084 2150 3084 
Q 2853 3084 3261 2657 
Q 3669 2231 3669 1497 
Q 3669 778 3244 343 
Q 2819 -91 2113 -91 
Q 1303 -91 875 529 
Q 447 1150 447 2328 
Q 447 3434 972 4092 
Q 1497 4750 2381 4750 
Q 2619 4750 2861 4703 
Q 3103 4656 3366 4563 
z
" transform="scale(0.015625)"/>
       </defs>
       <use xlink:href="#DejaVuSans-31"/>
       <use xlink:href="#DejaVuSans-36" x="63.623047"/>
       <use xlink:href="#DejaVuSans-30" x="127.246094"/>
       <use xlink:href="#DejaVuSans-30" x="190.869141"/>
      </g>
     </g>
    </g>
    <g id="ytick_4">
     <g id="line2d_25">
      <path d="M 108 203.351486 
L 777.6 203.351486 
" clip-path="url(#pb16d04148a)" style="fill: none; stroke-dasharray: 5.12,1.28,0.8,1.28; stroke-dashoffset: 0; stroke: #b0b0b0; stroke-width: 0.8"/>
     </g>
     <g id="line2d_26">
      <g>
       <use xlink:href="#mf837a01c2a" x="108" y="203.351486" style="fill: #a9a9a9; stroke: #a9a9a9; stroke-width: 0.8"/>
      </g>
     </g>
     <g id="text_13">
      <!-- 2400 -->
      <g style="fill: #a9a9a9" transform="translate(75.55 207.150705) scale(0.1 -0.1)">
       <use xlink:href="#DejaVuSans-32"/>
       <use xlink:href="#DejaVuSans-34" x="63.623047"/>
       <use xlink:href="#DejaVuSans-30" x="127.246094"/>
       <use xlink:href="#DejaVuSans-30" x="190.869141"/>
      </g>
     </g>
    </g>
    <g id="ytick_5">
     <g id="line2d_27">
      <path d="M 108 168.520802 
L 777.6 168.520802 
" clip-path="url(#pb16d04148a)" style="fill: none; stroke-dasharray: 5.12,1.28,0.8,1.28; stroke-dashoffset: 0; stroke: #b0b0b0; stroke-width: 0.8"/>
     </g>
     <g id="line2d_28">
      <g>
       <use xlink:href="#mf837a01c2a" x="108" y="168.520802" style="fill: #a9a9a9; stroke: #a9a9a9; stroke-width: 0.8"/>
      </g>
     </g>
     <g id="text_14">
      <!-- 3200 -->
      <g style="fill: #a9a9a9" transform="translate(75.55 172.32002) scale(0.1 -0.1)">
       <use xlink:href="#DejaVuSans-33"/>
       <use xlink:href="#DejaVuSans-32" x="63.623047"/>
       <use xlink:href="#DejaVuSans-30" x="127.246094"/>
       <use xlink:href="#DejaVuSans-30" x="190.869141"/>
      </g>
     </g>
    </g>
    <g id="ytick_6">
     <g id="line2d_29">
      <path d="M 108 133.690117 
L 777.6 133.690117 
" clip-path="url(#pb16d04148a)" style="fill: none; stroke-dasharray: 5.12,1.28,0.8,1.28; stroke-dashoffset: 0; stroke: #b0b0b0; stroke-width: 0.8"/>
     </g>
     <g id="line2d_30">
      <g>
       <use xlink:href="#mf837a01c2a" x="108" y="133.690117" style="fill: #a9a9a9; stroke: #a9a9a9; stroke-width: 0.8"/>
      </g>
     </g>
     <g id="text_15">
      <!-- 4000 -->
      <g style="fill: #a9a9a9" transform="translate(75.55 137.489336) scale(0.1 -0.1)">
       <use xlink:href="#DejaVuSans-34"/>
       <use xlink:href="#DejaVuSans-30" x="63.623047"/>
       <use xlink:href="#DejaVuSans-30" x="127.246094"/>
       <use xlink:href="#DejaVuSans-30" x="190.869141"/>
      </g>
     </g>
    </g>
    <g id="ytick_7">
     <g id="line2d_31">
      <path d="M 108 98.859433 
L 777.6 98.859433 
" clip-path="url(#pb16d04148a)" style="fill: none; stroke-dasharray: 5.12,1.28,0.8,1.28; stroke-dashoffset: 0; stroke: #b0b0b0; stroke-width: 0.8"/>
     </g>
     <g id="line2d_32">
      <g>
       <use xlink:href="#mf837a01c2a" x="108" y="98.859433" style="fill: #a9a9a9; stroke: #a9a9a9; stroke-width: 0.8"/>
      </g>
     </g>
     <g id="text_16">
      <!-- 4800 -->
      <g style="fill: #a9a9a9" transform="translate(75.55 102.658652) scale(0.1 -0.1)">
       <use xlink:href="#DejaVuSans-34"/>
       <use xlink:href="#DejaVuSans-38" x="63.623047"/>
       <use xlink:href="#DejaVuSans-30" x="127.246094"/>
       <use xlink:href="#DejaVuSans-30" x="190.869141"/>
      </g>
     </g>
    </g>
    <g id="ytick_8">
     <g id="line2d_33">
      <path d="M 108 64.028749 
L 777.6 64.028749 
" clip-path="url(#pb16d04148a)" style="fill: none; stroke-dasharray: 5.12,1.28,0.8,1.28; stroke-dashoffset: 0; stroke: #b0b0b0; stroke-width: 0.8"/>
     </g>
     <g id="line2d_34">
      <g>
       <use xlink:href="#mf837a01c2a" x="108" y="64.028749" style="fill: #a9a9a9; stroke: #a9a9a9; stroke-width: 0.8"/>
      </g>
     </g>
     <g id="text_17">
      <!-- 5600 -->
      <g style="fill: #a9a9a9" transform="translate(75.55 67.827968) scale(0.1 -0.1)">
       <use xlink:href="#DejaVuSans-35"/>
       <use xlink:href="#DejaVuSans-36" x="63.623047"/>
       <use xlink:href="#DejaVuSans-30" x="127.246094"/>
       <use xlink:href="#DejaVuSans-30" x="190.869141"/>
      </g>
     </g>
    </g>
   </g>
   <g id="line2d_35">
    <path d="M 138.436364 307.712923 
L 142.201687 307.408155 
L 142.829241 307.146925 
L 144.711903 306.929233 
L 148.477226 306.189081 
L 152.242549 305.884312 
L 152.870103 305.579544 
L 153.497657 305.40539 
L 154.125211 304.6217 
L 154.752765 304.186317 
L 155.380319 302.836628 
L 156.007873 302.749551 
L 156.635426 302.270629 
L 157.890534 301.661092 
L 160.40075 299.745404 
L 161.655858 299.222944 
L 162.283411 298.78756 
L 164.793627 297.699102 
L 165.421181 296.741258 
L 166.676289 295.826952 
L 167.303843 295.522184 
L 173.579381 294.651417 
L 174.206935 294.346648 
L 178.599813 293.998341 
L 180.482474 293.519419 
L 186.130459 292.779267 
L 186.758013 292.430961 
L 187.385567 292.343884 
L 188.013121 292.082654 
L 189.268229 291.864962 
L 189.895783 291.821424 
L 191.15089 291.560194 
L 191.778444 291.516655 
L 194.28866 290.907118 
L 196.171321 290.732965 
L 197.426429 290.60235 
L 198.053983 290.428196 
L 198.681537 290.384658 
L 200.564199 289.818659 
L 204.329522 289.252661 
L 204.957076 289.078507 
L 205.58463 288.20774 
L 207.467291 287.511126 
L 209.349953 286.988666 
L 209.977507 286.683898 
L 210.605061 286.640359 
L 213.74283 285.769592 
L 214.997938 285.682516 
L 215.625492 285.595439 
L 217.508154 285.02944 
L 220.018369 284.419903 
L 220.645923 284.158673 
L 221.273477 284.071596 
L 221.901031 283.766828 
L 228.17657 282.808984 
L 231.314339 281.938217 
L 231.941893 281.546372 
L 234.452109 280.893296 
L 235.707216 280.153144 
L 236.33477 279.717761 
L 238.217432 279.369454 
L 241.982755 278.237457 
L 243.237863 277.845612 
L 243.865417 277.758535 
L 245.120525 277.410228 
L 246.375633 277.10546 
L 247.003187 277.018383 
L 248.258294 276.495923 
L 248.885848 276.365308 
L 249.513402 276.104077 
L 250.140956 276.017001 
L 250.76851 275.712232 
L 251.396064 275.538079 
L 252.651172 275.451002 
L 253.906279 275.015619 
L 255.161387 274.928542 
L 255.788941 274.623773 
L 258.299157 274.18839 
L 260.809372 273.970698 
L 261.436926 273.840083 
L 262.692034 273.230546 
L 269.595127 270.313476 
L 270.22268 269.965169 
L 270.850234 269.268556 
L 271.477788 268.223635 
L 272.105342 267.396406 
L 272.732896 267.222253 
L 273.36045 267.222253 
L 274.615558 266.307947 
L 275.243112 266.133794 
L 275.870665 265.785487 
L 276.498219 265.654872 
L 277.125773 265.088874 
L 277.753327 264.91472 
L 279.635989 264.000415 
L 280.891097 262.25888 
L 281.51865 261.867035 
L 282.146204 260.822115 
L 282.773758 260.169039 
L 283.401312 259.864271 
L 284.028866 259.690117 
L 286.539082 258.209813 
L 287.794189 257.208431 
L 288.421743 256.816586 
L 289.049297 255.902281 
L 289.676851 254.465515 
L 290.304405 253.551209 
L 290.931959 253.072287 
L 291.559513 252.811057 
L 294.069728 250.63414 
L 295.324836 249.632757 
L 295.95239 249.110297 
L 296.579944 248.283068 
L 297.835052 247.19461 
L 300.345267 245.58369 
L 300.972821 245.017692 
L 301.600375 244.887077 
L 302.227929 244.625847 
L 304.11059 243.580926 
L 305.365698 242.971389 
L 306.620806 241.795853 
L 307.24836 241.055701 
L 308.503468 240.184934 
L 309.131022 240.010781 
L 309.758575 239.706012 
L 311.013683 238.878784 
L 311.641237 238.530477 
L 312.268791 238.4434 
L 317.916776 235.047408 
L 318.54433 234.829717 
L 320.426992 233.610643 
L 322.309653 233.044644 
L 322.937207 232.609261 
L 323.564761 232.478645 
L 324.819869 232.043262 
L 326.70253 231.30311 
L 328.585192 230.606496 
L 329.8403 230.388804 
L 331.095408 229.300346 
L 332.350515 228.690809 
L 333.605623 227.994195 
L 334.233177 227.645888 
L 335.488285 227.297581 
L 336.115839 226.905736 
L 336.743393 226.731583 
L 338.626054 225.556047 
L 341.763824 224.815895 
L 343.646485 223.727436 
L 344.274039 223.640359 
L 344.901593 223.422668 
L 346.156701 223.161437 
L 348.039363 221.76821 
L 349.922024 221.332827 
L 350.549578 221.115135 
L 351.177132 220.636213 
L 354.942455 219.417139 
L 355.570009 219.373601 
L 356.197563 219.199447 
L 357.452671 218.676987 
L 361.845548 217.153144 
L 363.100656 216.978991 
L 363.72821 216.804838 
L 364.355764 216.500069 
L 364.983318 216.369454 
L 366.865979 215.498687 
L 368.748641 214.584381 
L 369.376195 214.148998 
L 370.003749 213.974845 
L 371.88641 212.973462 
L 373.141518 212.668694 
L 374.396626 212.015619 
L 375.651734 211.667312 
L 376.279288 211.580235 
L 377.534396 210.840083 
L 378.161949 210.709468 
L 379.417057 210.187008 
L 380.044611 210.056393 
L 380.672165 209.708086 
L 383.182381 209.31624 
L 384.437488 208.706704 
L 385.065042 208.184243 
L 385.692596 207.095784 
L 386.947704 206.834554 
L 387.575258 206.703939 
L 390.085473 205.397789 
L 390.713027 205.267173 
L 395.733458 202.872564 
L 397.61612 202.480719 
L 398.243674 202.132412 
L 402.008997 200.826261 
L 403.264105 200.042571 
L 404.519213 199.302419 
L 405.146767 199.215342 
L 405.774321 198.99765 
L 406.401874 198.954112 
L 409.539644 198.126883 
L 410.167198 197.647961 
L 411.422306 197.212578 
L 413.304967 196.603041 
L 413.932521 196.211196 
L 414.560075 196.037042 
L 415.187629 195.601659 
L 415.815183 195.340428 
L 417.070291 194.687353 
L 419.580506 193.903663 
L 420.20806 193.598894 
L 422.090722 192.162129 
L 422.718276 192.031513 
L 423.973383 191.07367 
L 424.600937 190.943055 
L 425.228491 189.985211 
L 425.856045 189.723981 
L 426.483599 189.245059 
L 427.111153 189.157982 
L 428.366261 188.41783 
L 428.993814 188.287215 
L 429.621368 188.025985 
L 430.248922 187.547063 
L 430.876476 187.329371 
L 432.759138 186.066759 
L 435.269353 184.804147 
L 435.896907 184.71707 
L 437.152015 184.151071 
L 437.779569 183.802764 
L 438.407123 182.757844 
L 439.034677 182.191845 
L 439.662231 181.843538 
L 440.289784 181.712923 
L 441.544892 180.929233 
L 442.172446 180.798618 
L 443.427554 180.189081 
L 445.310216 179.40539 
L 446.565323 178.534623 
L 447.820431 177.228473 
L 450.958201 174.964478 
L 452.213308 173.919558 
L 452.840862 173.658328 
L 453.468416 172.961714 
L 454.09597 172.482792 
L 455.351078 172.047408 
L 456.606186 171.22018 
L 457.233739 170.915411 
L 457.861293 170.741258 
L 458.488847 170.305874 
L 459.116401 170.175259 
L 460.999063 169.173877 
L 462.254171 168.433725 
L 468.529709 166.213269 
L 469.157263 165.64727 
L 471.039925 164.950657 
L 472.295033 164.558811 
L 472.922587 164.079889 
L 475.432802 162.773739 
L 476.060356 162.425432 
L 477.315464 159.987284 
L 478.570572 158.50698 
L 479.825679 157.766828 
L 481.708341 157.026676 
L 482.335895 156.939599 
L 482.963449 156.591292 
L 484.846111 156.025294 
L 487.356326 154.893296 
L 487.98388 154.501451 
L 489.238988 154.066068 
L 493.004311 151.88915 
L 493.631865 151.236075 
L 494.886973 150.582999 
L 495.514527 150.234692 
L 496.142081 150.017001 
L 496.769634 149.581617 
L 498.024742 148.97208 
L 499.907404 147.970698 
L 500.534958 147.796545 
L 501.162512 147.317623 
L 501.790066 147.056393 
L 502.417619 146.925777 
L 503.672727 146.490394 
L 505.555389 145.79378 
L 506.182943 145.358397 
L 507.438051 145.01009 
L 508.693158 144.531168 
L 509.320712 144.052246 
L 510.57582 143.660401 
L 511.203374 143.355632 
L 511.830928 143.181479 
L 513.086036 142.310712 
L 514.341143 141.744713 
L 515.596251 140.786869 
L 516.851359 140.351486 
L 517.478913 139.829026 
L 518.106467 139.741949 
L 519.361575 138.827643 
L 520.616682 138.218106 
L 521.244236 137.956876 
L 521.87179 137.347339 
L 525.637113 135.99765 
L 527.519775 135.170422 
L 529.402437 134.604423 
L 530.657545 134.43027 
L 531.285098 134.169039 
L 531.912652 134.081963 
L 533.16776 133.559502 
L 533.795314 133.515964 
L 536.30553 132.601659 
L 538.188191 131.295508 
L 538.815745 131.034278 
L 540.070853 130.381202 
L 540.698407 130.163511 
L 543.208622 128.683207 
L 543.836176 128.291361 
L 545.091284 127.986593 
L 546.973946 126.941672 
L 548.856607 126.332135 
L 549.484161 126.070905 
L 550.739269 125.766137 
L 553.877038 124.764755 
L 555.7597 124.416448 
L 558.269916 123.632757 
L 558.89747 123.371527 
L 559.525023 123.284451 
L 560.152577 122.979682 
L 561.407685 122.718452 
L 562.662793 122.283068 
L 563.290347 122.065377 
L 564.545455 121.934762 
L 565.800562 121.629993 
L 567.683224 121.325225 
L 568.310778 121.107533 
L 569.565886 120.976918 
L 575.213871 119.32246 
L 575.841425 119.104768 
L 576.468978 119.06123 
L 580.234302 117.929233 
L 581.48941 117.493849 
L 582.116963 117.406773 
L 583.999625 116.753697 
L 584.627179 116.753697 
L 585.882287 116.318314 
L 586.509841 115.708777 
L 587.137395 115.404008 
L 588.392502 115.012163 
L 590.902718 114.054319 
L 591.530272 113.923704 
L 592.157826 113.531859 
L 592.78538 113.401244 
L 593.412933 113.052937 
L 596.550703 112.138632 
L 597.178257 111.746786 
L 597.805811 111.616171 
L 598.433365 111.093711 
L 600.316026 110.745404 
L 601.571134 110.048791 
L 602.198688 109.352177 
L 603.453796 109.090947 
L 607.846673 108.089565 
L 608.474227 107.915411 
L 609.729335 107.871873 
L 610.356888 107.567104 
L 612.867104 107.131721 
L 613.494658 106.826952 
L 615.37732 106.565722 
L 617.887535 105.782032 
L 619.770197 105.346648 
L 621.652858 104.867726 
L 624.163074 104.084036 
L 624.790628 103.953421 
L 625.418182 103.648652 
L 626.045736 103.561576 
L 626.67329 103.343884 
L 627.300843 102.995577 
L 629.183505 102.342502 
L 629.811059 101.86358 
L 631.066167 101.515273 
L 631.693721 101.254043 
L 632.948828 100.905736 
L 635.459044 99.773739 
L 637.341706 99.643124 
L 639.851921 98.859433 
L 640.479475 98.467588 
L 641.734583 98.119281 
L 643.617245 97.161437 
L 644.244799 97.030822 
L 644.872352 96.726054 
L 645.499906 96.682516 
L 652.402999 94.374983 
L 654.913215 93.765446 
L 655.540769 93.591292 
L 656.795876 93.025294 
L 657.42343 92.938217 
L 658.678538 92.58991 
L 659.306092 92.110988 
L 659.933646 91.80622 
L 660.5612 91.066068 
L 661.188754 90.630684 
L 662.443861 90.238839 
L 663.071415 89.716379 
L 669.974508 86.886386 
L 671.229616 86.581617 
L 673.112277 85.71085 
L 674.367385 84.970698 
L 674.994939 84.840083 
L 675.622493 84.361161 
L 676.877601 83.751624 
L 678.132709 82.967934 
L 680.01537 82.097167 
L 680.642924 81.661783 
L 681.898032 81.182861 
L 683.15314 80.442709 
L 683.780694 80.137941 
L 684.408247 79.702557 
L 685.663355 79.267173 
L 686.290909 79.136558 
L 688.801125 78.004561 
L 691.938894 76.916102 
L 692.566448 76.872564 
L 693.194002 76.698411 
L 693.821556 76.306565 
L 694.44911 76.219489 
L 695.076664 76.001797 
L 696.959325 75.65349 
L 700.097095 74.042571 
L 701.352202 73.345957 
L 701.979756 73.25888 
L 703.862418 72.257498 
L 705.74508 71.560885 
L 707.627741 70.733656 
L 710.137957 69.732274 
L 710.765511 69.55812 
L 711.393065 69.166275 
L 712.648172 68.992122 
L 713.275726 68.600276 
L 713.90328 68.556738 
L 715.158388 68.164893 
L 716.413496 67.555356 
L 717.04105 67.468279 
L 717.668604 67.207049 
L 718.296157 67.076434 
L 720.178819 66.249205 
L 720.806373 66.11859 
L 721.433927 65.85736 
L 724.571696 65.117208 
L 726.454358 64.377056 
L 728.964574 62.94029 
L 730.219681 62.461368 
L 730.847235 62.069523 
L 732.102343 61.808293 
L 732.729897 61.459986 
L 733.357451 61.329371 
L 734.612559 60.632757 
L 738.377882 58.891223 
L 742.143205 57.585073 
L 743.398313 56.931997 
L 744.653421 56.540152 
L 745.280975 56.409537 
L 746.536082 55.8 
L 747.163636 55.8 
L 747.163636 55.8 
" clip-path="url(#pb16d04148a)" style="fill: none; stroke: #1f77b4; stroke-width: 1.5; stroke-linecap: square"/>
   </g>
   <g id="line2d_36">
    <path d="M 139.063918 307.8 
L 140.946579 307.712923 
L 142.829241 307.669385 
L 146.594564 307.582308 
L 149.732334 307.451693 
L 152.242549 307.451693 
L 152.870103 307.27754 
L 155.380319 307.190463 
L 157.26298 306.972771 
L 159.145642 306.798618 
L 162.910965 306.624464 
L 163.538519 306.624464 
L 164.166073 306.493849 
L 166.676289 306.406773 
L 167.931396 306.319696 
L 172.951828 306.232619 
L 176.089597 306.102004 
L 183.620244 306.014927 
L 186.758013 305.884312 
L 190.523336 305.797236 
L 193.033552 305.710159 
L 198.681537 305.623082 
L 200.564199 305.579544 
L 202.44686 305.536006 
L 204.329522 305.318314 
L 208.094845 305.274775 
L 209.349953 305.187699 
L 213.74283 305.100622 
L 220.645923 304.708777 
L 225.0388 304.6217 
L 226.293908 304.534623 
L 228.17657 304.447547 
L 231.941893 304.273393 
L 234.452109 304.229855 
L 236.33477 304.055701 
L 246.375633 303.446164 
L 248.885848 303.359088 
L 253.278725 303.141396 
L 255.161387 303.054319 
L 261.436926 302.706012 
L 268.340019 302.618936 
L 270.850234 302.357706 
L 272.105342 302.270629 
L 280.263543 301.617554 
L 284.028866 301.138632 
L 286.539082 301.051555 
L 291.559513 300.39848 
L 294.697282 300.311403 
L 302.855483 299.658328 
L 305.993252 299.310021 
L 308.503468 299.222944 
L 309.758575 299.135867 
L 312.268791 299.048791 
L 313.523899 298.961714 
L 316.661668 298.656945 
L 317.289222 298.482792 
L 321.054545 298.308639 
L 324.192315 298.221562 
L 332.350515 297.74264 
L 334.233177 297.655563 
L 342.391378 297.176641 
L 346.784255 297.089565 
L 347.411809 296.95895 
L 352.43224 296.871873 
L 356.825117 296.654181 
L 363.72821 296.567104 
L 368.121087 296.349413 
L 373.141518 296.262336 
L 378.161949 296.001106 
L 382.554827 295.914029 
L 394.478351 295.173877 
L 399.498782 295.0868 
L 415.815183 294.04188 
L 419.580506 293.954803 
L 421.463168 293.911265 
L 423.345829 293.867726 
L 425.228491 293.693573 
L 430.248922 293.606496 
L 431.50403 293.388804 
L 432.759138 293.301728 
L 435.896907 293.171113 
L 437.152015 293.084036 
L 438.407123 292.996959 
L 444.055108 292.909883 
L 445.310216 292.779267 
L 447.820431 292.735729 
L 448.447985 292.605114 
L 449.703093 292.518037 
L 450.330647 292.387422 
L 452.213308 292.300346 
L 462.881724 291.64727 
L 464.764386 291.560194 
L 467.902156 291.429578 
L 476.68791 291.342502 
L 481.080787 291.12481 
L 486.101218 291.037733 
L 488.611434 290.950657 
L 491.121649 290.907118 
L 492.376757 290.776503 
L 494.886973 290.689426 
L 501.162512 290.34112 
L 504.927835 290.297581 
L 506.810497 290.123428 
L 508.693158 290.079889 
L 513.086036 289.992813 
L 515.596251 289.905736 
L 523.126898 289.818659 
L 526.264667 289.688044 
L 530.029991 289.600968 
L 531.912652 289.383276 
L 535.677976 289.339737 
L 537.560637 289.165584 
L 540.070853 289.078507 
L 547.6015 288.991431 
L 550.739269 288.860815 
L 561.407685 288.817277 
L 562.662793 288.7302 
L 564.545455 288.686662 
L 572.703655 288.599585 
L 573.958763 288.512509 
L 580.861856 288.425432 
L 583.372071 288.338355 
L 590.902718 288.294817 
L 592.157826 288.20774 
L 601.571134 288.164202 
L 603.453796 287.990048 
L 614.122212 287.902972 
L 616.004873 287.859433 
L 632.321275 287.772357 
L 634.203936 287.728818 
L 646.12746 287.641742 
L 648.637676 287.554665 
L 653.030553 287.467588 
L 658.050984 287.206358 
L 660.5612 287.119281 
L 663.071415 287.032205 
L 666.836739 286.945128 
L 668.7194 286.901589 
L 671.229616 286.814513 
L 673.112277 286.770974 
L 676.250047 286.683898 
L 677.505155 286.596821 
L 681.270478 286.509744 
L 684.408247 286.379129 
L 685.663355 286.335591 
L 687.546017 286.161437 
L 691.31134 286.074361 
L 693.821556 285.987284 
L 700.097095 285.900207 
L 703.234864 285.769592 
L 709.510403 285.682516 
L 713.90328 285.464824 
L 719.551265 285.377747 
L 720.806373 285.29067 
L 728.33702 285.203594 
L 730.219681 285.160055 
L 737.122774 285.072979 
L 739.63299 284.811748 
L 741.515651 284.76821 
L 745.280975 284.681133 
L 747.163636 284.637595 
L 747.163636 284.637595 
" clip-path="url(#pb16d04148a)" style="fill: none; stroke: #ff7f0e; stroke-width: 1.5; stroke-linecap: square"/>
   </g>
   <g id="patch_3">
    <path d="M 108 320.4 
L 108 43.2 
" style="fill: none; stroke: #a9a9a9; stroke-width: 0.8; stroke-linejoin: miter; stroke-linecap: square"/>
   </g>
   <g id="patch_4">
    <path d="M 777.6 320.4 
L 777.6 43.2 
" style="fill: none"/>
   </g>
   <g id="patch_5">
    <path d="M 108 320.4 
L 777.6 320.4 
" style="fill: none; stroke: #a9a9a9; stroke-width: 0.8; stroke-linejoin: miter; stroke-linecap: square"/>
   </g>
   <g id="patch_6">
    <path d="M 108 43.2 
L 777.6 43.2 
" style="fill: none"/>
   </g>
   <g id="text_18">
    <!-- get_subscribe history -->
    <g style="fill: #a9a9a9" transform="translate(378.6075 37.2) scale(0.12 -0.12)">
     <defs>
      <path id="DejaVuSans-67" d="M 2906 1791 
Q 2906 2416 2648 2759 
Q 2391 3103 1925 3103 
Q 1463 3103 1205 2759 
Q 947 2416 947 1791 
Q 947 1169 1205 825 
Q 1463 481 1925 481 
Q 2391 481 2648 825 
Q 2906 1169 2906 1791 
z
M 3481 434 
Q 3481 -459 3084 -895 
Q 2688 -1331 1869 -1331 
Q 1566 -1331 1297 -1286 
Q 1028 -1241 775 -1147 
L 775 -588 
Q 1028 -725 1275 -790 
Q 1522 -856 1778 -856 
Q 2344 -856 2625 -561 
Q 2906 -266 2906 331 
L 2906 616 
Q 2728 306 2450 153 
Q 2172 0 1784 0 
Q 1141 0 747 490 
Q 353 981 353 1791 
Q 353 2603 747 3093 
Q 1141 3584 1784 3584 
Q 2172 3584 2450 3431 
Q 2728 3278 2906 2969 
L 2906 3500 
L 3481 3500 
L 3481 434 
z
" transform="scale(0.015625)"/>
      <path id="DejaVuSans-65" d="M 3597 1894 
L 3597 1613 
L 953 1613 
Q 991 1019 1311 708 
Q 1631 397 2203 397 
Q 2534 397 2845 478 
Q 3156 559 3463 722 
L 3463 178 
Q 3153 47 2828 -22 
Q 2503 -91 2169 -91 
Q 1331 -91 842 396 
Q 353 884 353 1716 
Q 353 2575 817 3079 
Q 1281 3584 2069 3584 
Q 2775 3584 3186 3129 
Q 3597 2675 3597 1894 
z
M 3022 2063 
Q 3016 2534 2758 2815 
Q 2500 3097 2075 3097 
Q 1594 3097 1305 2825 
Q 1016 2553 972 2059 
L 3022 2063 
z
" transform="scale(0.015625)"/>
      <path id="DejaVuSans-74" d="M 1172 4494 
L 1172 3500 
L 2356 3500 
L 2356 3053 
L 1172 3053 
L 1172 1153 
Q 1172 725 1289 603 
Q 1406 481 1766 481 
L 2356 481 
L 2356 0 
L 1766 0 
Q 1100 0 847 248 
Q 594 497 594 1153 
L 594 3053 
L 172 3053 
L 172 3500 
L 594 3500 
L 594 4494 
L 1172 4494 
z
" transform="scale(0.015625)"/>
      <path id="DejaVuSans-5f" d="M 3263 -1063 
L 3263 -1509 
L -63 -1509 
L -63 -1063 
L 3263 -1063 
z
" transform="scale(0.015625)"/>
      <path id="DejaVuSans-73" d="M 2834 3397 
L 2834 2853 
Q 2591 2978 2328 3040 
Q 2066 3103 1784 3103 
Q 1356 3103 1142 2972 
Q 928 2841 928 2578 
Q 928 2378 1081 2264 
Q 1234 2150 1697 2047 
L 1894 2003 
Q 2506 1872 2764 1633 
Q 3022 1394 3022 966 
Q 3022 478 2636 193 
Q 2250 -91 1575 -91 
Q 1294 -91 989 -36 
Q 684 19 347 128 
L 347 722 
Q 666 556 975 473 
Q 1284 391 1588 391 
Q 1994 391 2212 530 
Q 2431 669 2431 922 
Q 2431 1156 2273 1281 
Q 2116 1406 1581 1522 
L 1381 1569 
Q 847 1681 609 1914 
Q 372 2147 372 2553 
Q 372 3047 722 3315 
Q 1072 3584 1716 3584 
Q 2034 3584 2315 3537 
Q 2597 3491 2834 3397 
z
" transform="scale(0.015625)"/>
      <path id="DejaVuSans-75" d="M 544 1381 
L 544 3500 
L 1119 3500 
L 1119 1403 
Q 1119 906 1312 657 
Q 1506 409 1894 409 
Q 2359 409 2629 706 
Q 2900 1003 2900 1516 
L 2900 3500 
L 3475 3500 
L 3475 0 
L 2900 0 
L 2900 538 
Q 2691 219 2414 64 
Q 2138 -91 1772 -91 
Q 1169 -91 856 284 
Q 544 659 544 1381 
z
M 1991 3584 
L 1991 3584 
z
" transform="scale(0.015625)"/>
      <path id="DejaVuSans-62" d="M 3116 1747 
Q 3116 2381 2855 2742 
Q 2594 3103 2138 3103 
Q 1681 3103 1420 2742 
Q 1159 2381 1159 1747 
Q 1159 1113 1420 752 
Q 1681 391 2138 391 
Q 2594 391 2855 752 
Q 3116 1113 3116 1747 
z
M 1159 2969 
Q 1341 3281 1617 3432 
Q 1894 3584 2278 3584 
Q 2916 3584 3314 3078 
Q 3713 2572 3713 1747 
Q 3713 922 3314 415 
Q 2916 -91 2278 -91 
Q 1894 -91 1617 61 
Q 1341 213 1159 525 
L 1159 0 
L 581 0 
L 581 4863 
L 1159 4863 
L 1159 2969 
z
" transform="scale(0.015625)"/>
      <path id="DejaVuSans-63" d="M 3122 3366 
L 3122 2828 
Q 2878 2963 2633 3030 
Q 2388 3097 2138 3097 
Q 1578 3097 1268 2742 
Q 959 2388 959 1747 
Q 959 1106 1268 751 
Q 1578 397 2138 397 
Q 2388 397 2633 464 
Q 2878 531 3122 666 
L 3122 134 
Q 2881 22 2623 -34 
Q 2366 -91 2075 -91 
Q 1284 -91 818 406 
Q 353 903 353 1747 
Q 353 2603 823 3093 
Q 1294 3584 2113 3584 
Q 2378 3584 2631 3529 
Q 2884 3475 3122 3366 
z
" transform="scale(0.015625)"/>
      <path id="DejaVuSans-72" d="M 2631 2963 
Q 2534 3019 2420 3045 
Q 2306 3072 2169 3072 
Q 1681 3072 1420 2755 
Q 1159 2438 1159 1844 
L 1159 0 
L 581 0 
L 581 3500 
L 1159 3500 
L 1159 2956 
Q 1341 3275 1631 3429 
Q 1922 3584 2338 3584 
Q 2397 3584 2469 3576 
Q 2541 3569 2628 3553 
L 2631 2963 
z
" transform="scale(0.015625)"/>
      <path id="DejaVuSans-69" d="M 603 3500 
L 1178 3500 
L 1178 0 
L 603 0 
L 603 3500 
z
M 603 4863 
L 1178 4863 
L 1178 4134 
L 603 4134 
L 603 4863 
z
" transform="scale(0.015625)"/>
      <path id="DejaVuSans-20" transform="scale(0.015625)"/>
      <path id="DejaVuSans-68" d="M 3513 2113 
L 3513 0 
L 2938 0 
L 2938 2094 
Q 2938 2591 2744 2837 
Q 2550 3084 2163 3084 
Q 1697 3084 1428 2787 
Q 1159 2491 1159 1978 
L 1159 0 
L 581 0 
L 581 4863 
L 1159 4863 
L 1159 2956 
Q 1366 3272 1645 3428 
Q 1925 3584 2291 3584 
Q 2894 3584 3203 3211 
Q 3513 2838 3513 2113 
z
" transform="scale(0.015625)"/>
      <path id="DejaVuSans-6f" d="M 1959 3097 
Q 1497 3097 1228 2736 
Q 959 2375 959 1747 
Q 959 1119 1226 758 
Q 1494 397 1959 397 
Q 2419 397 2687 759 
Q 2956 1122 2956 1747 
Q 2956 2369 2687 2733 
Q 2419 3097 1959 3097 
z
M 1959 3584 
Q 2709 3584 3137 3096 
Q 3566 2609 3566 1747 
Q 3566 888 3137 398 
Q 2709 -91 1959 -91 
Q 1206 -91 779 398 
Q 353 888 353 1747 
Q 353 2609 779 3096 
Q 1206 3584 1959 3584 
z
" transform="scale(0.015625)"/>
      <path id="DejaVuSans-79" d="M 2059 -325 
Q 1816 -950 1584 -1140 
Q 1353 -1331 966 -1331 
L 506 -1331 
L 506 -850 
L 844 -850 
Q 1081 -850 1212 -737 
Q 1344 -625 1503 -206 
L 1606 56 
L 191 3500 
L 800 3500 
L 1894 763 
L 2988 3500 
L 3597 3500 
L 2059 -325 
z
" transform="scale(0.015625)"/>
     </defs>
     <use xlink:href="#DejaVuSans-67"/>
     <use xlink:href="#DejaVuSans-65" x="63.476562"/>
     <use xlink:href="#DejaVuSans-74" x="125"/>
     <use xlink:href="#DejaVuSans-5f" x="164.208984"/>
     <use xlink:href="#DejaVuSans-73" x="214.208984"/>
     <use xlink:href="#DejaVuSans-75" x="266.308594"/>
     <use xlink:href="#DejaVuSans-62" x="329.6875"/>
     <use xlink:href="#DejaVuSans-73" x="393.164062"/>
     <use xlink:href="#DejaVuSans-63" x="445.263672"/>
     <use xlink:href="#DejaVuSans-72" x="500.244141"/>
     <use xlink:href="#DejaVuSans-69" x="541.357422"/>
     <use xlink:href="#DejaVuSans-62" x="569.140625"/>
     <use xlink:href="#DejaVuSans-65" x="632.617188"/>
     <use xlink:href="#DejaVuSans-20" x="694.140625"/>
     <use xlink:href="#DejaVuSans-68" x="725.927734"/>
     <use xlink:href="#DejaVuSans-69" x="789.306641"/>
     <use xlink:href="#DejaVuSans-73" x="817.089844"/>
     <use xlink:href="#DejaVuSans-74" x="869.189453"/>
     <use xlink:href="#DejaVuSans-6f" x="908.398438"/>
     <use xlink:href="#DejaVuSans-72" x="969.580078"/>
     <use xlink:href="#DejaVuSans-79" x="1010.693359"/>
    </g>
   </g>
   <g id="legend_1">
    <g id="line2d_37">
     <path d="M 815.08 328.498438 
L 825.08 328.498438 
L 835.08 328.498438 
" style="fill: none; stroke: #1f77b4; stroke-width: 1.5; stroke-linecap: square"/>
    </g>
    <g id="text_19">
     <!-- star -->
     <g style="fill: #a9a9a9" transform="translate(843.08 331.998438) scale(0.1 -0.1)">
      <defs>
       <path id="DejaVuSans-61" d="M 2194 1759 
Q 1497 1759 1228 1600 
Q 959 1441 959 1056 
Q 959 750 1161 570 
Q 1363 391 1709 391 
Q 2188 391 2477 730 
Q 2766 1069 2766 1631 
L 2766 1759 
L 2194 1759 
z
M 3341 1997 
L 3341 0 
L 2766 0 
L 2766 531 
Q 2569 213 2275 61 
Q 1981 -91 1556 -91 
Q 1019 -91 701 211 
Q 384 513 384 1019 
Q 384 1609 779 1909 
Q 1175 2209 1959 2209 
L 2766 2209 
L 2766 2266 
Q 2766 2663 2505 2880 
Q 2244 3097 1772 3097 
Q 1472 3097 1187 3025 
Q 903 2953 641 2809 
L 641 3341 
Q 956 3463 1253 3523 
Q 1550 3584 1831 3584 
Q 2591 3584 2966 3190 
Q 3341 2797 3341 1997 
z
" transform="scale(0.015625)"/>
      </defs>
      <use xlink:href="#DejaVuSans-73"/>
      <use xlink:href="#DejaVuSans-74" x="52.099609"/>
      <use xlink:href="#DejaVuSans-61" x="91.308594"/>
      <use xlink:href="#DejaVuSans-72" x="152.587891"/>
     </g>
    </g>
    <g id="line2d_38">
     <path d="M 815.08 343.176562 
L 825.08 343.176562 
L 835.08 343.176562 
" style="fill: none; stroke: #ff7f0e; stroke-width: 1.5; stroke-linecap: square"/>
    </g>
    <g id="text_20">
     <!-- fork -->
     <g style="fill: #a9a9a9" transform="translate(843.08 346.676562) scale(0.1 -0.1)">
      <defs>
       <path id="DejaVuSans-66" d="M 2375 4863 
L 2375 4384 
L 1825 4384 
Q 1516 4384 1395 4259 
Q 1275 4134 1275 3809 
L 1275 3500 
L 2222 3500 
L 2222 3053 
L 1275 3053 
L 1275 0 
L 697 0 
L 697 3053 
L 147 3053 
L 147 3500 
L 697 3500 
L 697 3744 
Q 697 4328 969 4595 
Q 1241 4863 1831 4863 
L 2375 4863 
z
" transform="scale(0.015625)"/>
       <path id="DejaVuSans-6b" d="M 581 4863 
L 1159 4863 
L 1159 1991 
L 2875 3500 
L 3609 3500 
L 1753 1863 
L 3688 0 
L 2938 0 
L 1159 1709 
L 1159 0 
L 581 0 
L 581 4863 
z
" transform="scale(0.015625)"/>
      </defs>
      <use xlink:href="#DejaVuSans-66"/>
      <use xlink:href="#DejaVuSans-6f" x="35.205078"/>
      <use xlink:href="#DejaVuSans-72" x="96.386719"/>
      <use xlink:href="#DejaVuSans-6b" x="137.5"/>
     </g>
    </g>
   </g>
  </g>
 </g>
 <defs>
  <clipPath id="pb16d04148a">
   <rect x="108" y="43.2" width="669.6" height="277.2"/>
  </clipPath>
 </defs>
</svg>
