<?xml version="1.0" encoding="utf-8" standalone="no"?>
<!DOCTYPE svg PUBLIC "-//W3C//DTD SVG 1.1//EN"
  "http://www.w3.org/Graphics/SVG/1.1/DTD/svg11.dtd">
<svg xmlns:xlink="http://www.w3.org/1999/xlink" width="864pt" height="360pt" viewBox="0 0 864 360" xmlns="http://www.w3.org/2000/svg" version="1.1">
 <metadata>
  <rdf:RDF xmlns:dc="http://purl.org/dc/elements/1.1/" xmlns:cc="http://creativecommons.org/ns#" xmlns:rdf="http://www.w3.org/1999/02/22-rdf-syntax-ns#">
   <cc:Work>
    <dc:type rdf:resource="http://purl.org/dc/dcmitype/StillImage"/>
    <dc:date>2024-03-19T08:11:00.977547</dc:date>
    <dc:format>image/svg+xml</dc:format>
    <dc:creator>
     <cc:Agent>
      <dc:title>Matplotlib v3.8.3, https://matplotlib.org/</dc:title>
     </cc:Agent>
    </dc:creator>
   </cc:Work>
  </rdf:RDF>
 </metadata>
 <defs>
  <style type="text/css">*{stroke-linejoin: round; stroke-linecap: butt}</style>
 </defs>
 <g id="figure_1">
  <g id="patch_1">
   <path d="M 0 360 
L 864 360 
L 864 0 
L 0 0 
L 0 360 
z
" style="fill: none; opacity: 0"/>
  </g>
  <g id="axes_1">
   <g id="patch_2">
    <path d="M 108 320.4 
L 777.6 320.4 
L 777.6 43.2 
L 108 43.2 
L 108 320.4 
z
" style="fill: none; opacity: 0"/>
   </g>
   <g id="matplotlib.axis_1">
    <g id="xtick_1">
     <g id="line2d_1">
      <path d="M 162.936223 320.4 
L 162.936223 43.2 
" clip-path="url(#p3ac7a94734)" style="fill: none; stroke-dasharray: 5.12,1.28,0.8,1.28; stroke-dashoffset: 0; stroke: #b0b0b0; stroke-width: 0.8"/>
     </g>
     <g id="line2d_2">
      <defs>
       <path id="m3c8587327c" d="M 0 0 
L 0 3.5 
" style="stroke: #a9a9a9; stroke-width: 0.8"/>
      </defs>
      <g>
       <use xlink:href="#m3c8587327c" x="162.936223" y="320.4" style="fill: #a9a9a9; stroke: #a9a9a9; stroke-width: 0.8"/>
      </g>
     </g>
     <g id="text_1">
      <!-- 2021-09 -->
      <g style="fill: #a9a9a9" transform="translate(142.044817 334.998438) scale(0.1 -0.1)">
       <defs>
        <path id="DejaVuSans-32" d="M 1228 531 
L 3431 531 
L 3431 0 
L 469 0 
L 469 531 
Q 828 903 1448 1529 
Q 2069 2156 2228 2338 
Q 2531 2678 2651 2914 
Q 2772 3150 2772 3378 
Q 2772 3750 2511 3984 
Q 2250 4219 1831 4219 
Q 1534 4219 1204 4116 
Q 875 4013 500 3803 
L 500 4441 
Q 881 4594 1212 4672 
Q 1544 4750 1819 4750 
Q 2544 4750 2975 4387 
Q 3406 4025 3406 3419 
Q 3406 3131 3298 2873 
Q 3191 2616 2906 2266 
Q 2828 2175 2409 1742 
Q 1991 1309 1228 531 
z
" transform="scale(0.015625)"/>
        <path id="DejaVuSans-30" d="M 2034 4250 
Q 1547 4250 1301 3770 
Q 1056 3291 1056 2328 
Q 1056 1369 1301 889 
Q 1547 409 2034 409 
Q 2525 409 2770 889 
Q 3016 1369 3016 2328 
Q 3016 3291 2770 3770 
Q 2525 4250 2034 4250 
z
M 2034 4750 
Q 2819 4750 3233 4129 
Q 3647 3509 3647 2328 
Q 3647 1150 3233 529 
Q 2819 -91 2034 -91 
Q 1250 -91 836 529 
Q 422 1150 422 2328 
Q 422 3509 836 4129 
Q 1250 4750 2034 4750 
z
" transform="scale(0.015625)"/>
        <path id="DejaVuSans-31" d="M 794 531 
L 1825 531 
L 1825 4091 
L 703 3866 
L 703 4441 
L 1819 4666 
L 2450 4666 
L 2450 531 
L 3481 531 
L 3481 0 
L 794 0 
L 794 531 
z
" transform="scale(0.015625)"/>
        <path id="DejaVuSans-2d" d="M 313 2009 
L 1997 2009 
L 1997 1497 
L 313 1497 
L 313 2009 
z
" transform="scale(0.015625)"/>
        <path id="DejaVuSans-39" d="M 703 97 
L 703 672 
Q 941 559 1184 500 
Q 1428 441 1663 441 
Q 2288 441 2617 861 
Q 2947 1281 2994 2138 
Q 2813 1869 2534 1725 
Q 2256 1581 1919 1581 
Q 1219 1581 811 2004 
Q 403 2428 403 3163 
Q 403 3881 828 4315 
Q 1253 4750 1959 4750 
Q 2769 4750 3195 4129 
Q 3622 3509 3622 2328 
Q 3622 1225 3098 567 
Q 2575 -91 1691 -91 
Q 1453 -91 1209 -44 
Q 966 3 703 97 
z
M 1959 2075 
Q 2384 2075 2632 2365 
Q 2881 2656 2881 3163 
Q 2881 3666 2632 3958 
Q 2384 4250 1959 4250 
Q 1534 4250 1286 3958 
Q 1038 3666 1038 3163 
Q 1038 2656 1286 2365 
Q 1534 2075 1959 2075 
z
" transform="scale(0.015625)"/>
       </defs>
       <use xlink:href="#DejaVuSans-32"/>
       <use xlink:href="#DejaVuSans-30" x="63.623047"/>
       <use xlink:href="#DejaVuSans-32" x="127.246094"/>
       <use xlink:href="#DejaVuSans-31" x="190.869141"/>
       <use xlink:href="#DejaVuSans-2d" x="254.492188"/>
       <use xlink:href="#DejaVuSans-30" x="290.576172"/>
       <use xlink:href="#DejaVuSans-39" x="354.199219"/>
      </g>
     </g>
    </g>
    <g id="xtick_2">
     <g id="line2d_3">
      <path d="M 239.576808 320.4 
L 239.576808 43.2 
" clip-path="url(#p3ac7a94734)" style="fill: none; stroke-dasharray: 5.12,1.28,0.8,1.28; stroke-dashoffset: 0; stroke: #b0b0b0; stroke-width: 0.8"/>
     </g>
     <g id="line2d_4">
      <g>
       <use xlink:href="#m3c8587327c" x="239.576808" y="320.4" style="fill: #a9a9a9; stroke: #a9a9a9; stroke-width: 0.8"/>
      </g>
     </g>
     <g id="text_2">
      <!-- 2022-01 -->
      <g style="fill: #a9a9a9" transform="translate(218.685402 334.998438) scale(0.1 -0.1)">
       <use xlink:href="#DejaVuSans-32"/>
       <use xlink:href="#DejaVuSans-30" x="63.623047"/>
       <use xlink:href="#DejaVuSans-32" x="127.246094"/>
       <use xlink:href="#DejaVuSans-32" x="190.869141"/>
       <use xlink:href="#DejaVuSans-2d" x="254.492188"/>
       <use xlink:href="#DejaVuSans-30" x="290.576172"/>
       <use xlink:href="#DejaVuSans-31" x="354.199219"/>
      </g>
     </g>
    </g>
    <g id="xtick_3">
     <g id="line2d_5">
      <path d="M 314.960991 320.4 
L 314.960991 43.2 
" clip-path="url(#p3ac7a94734)" style="fill: none; stroke-dasharray: 5.12,1.28,0.8,1.28; stroke-dashoffset: 0; stroke: #b0b0b0; stroke-width: 0.8"/>
     </g>
     <g id="line2d_6">
      <g>
       <use xlink:href="#m3c8587327c" x="314.960991" y="320.4" style="fill: #a9a9a9; stroke: #a9a9a9; stroke-width: 0.8"/>
      </g>
     </g>
     <g id="text_3">
      <!-- 2022-05 -->
      <g style="fill: #a9a9a9" transform="translate(294.069584 334.998438) scale(0.1 -0.1)">
       <defs>
        <path id="DejaVuSans-35" d="M 691 4666 
L 3169 4666 
L 3169 4134 
L 1269 4134 
L 1269 2991 
Q 1406 3038 1543 3061 
Q 1681 3084 1819 3084 
Q 2600 3084 3056 2656 
Q 3513 2228 3513 1497 
Q 3513 744 3044 326 
Q 2575 -91 1722 -91 
Q 1428 -91 1123 -41 
Q 819 9 494 109 
L 494 744 
Q 775 591 1075 516 
Q 1375 441 1709 441 
Q 2250 441 2565 725 
Q 2881 1009 2881 1497 
Q 2881 1984 2565 2268 
Q 2250 2553 1709 2553 
Q 1456 2553 1204 2497 
Q 953 2441 691 2322 
L 691 4666 
z
" transform="scale(0.015625)"/>
       </defs>
       <use xlink:href="#DejaVuSans-32"/>
       <use xlink:href="#DejaVuSans-30" x="63.623047"/>
       <use xlink:href="#DejaVuSans-32" x="127.246094"/>
       <use xlink:href="#DejaVuSans-32" x="190.869141"/>
       <use xlink:href="#DejaVuSans-2d" x="254.492188"/>
       <use xlink:href="#DejaVuSans-30" x="290.576172"/>
       <use xlink:href="#DejaVuSans-35" x="354.199219"/>
      </g>
     </g>
    </g>
    <g id="xtick_4">
     <g id="line2d_7">
      <path d="M 392.229778 320.4 
L 392.229778 43.2 
" clip-path="url(#p3ac7a94734)" style="fill: none; stroke-dasharray: 5.12,1.28,0.8,1.28; stroke-dashoffset: 0; stroke: #b0b0b0; stroke-width: 0.8"/>
     </g>
     <g id="line2d_8">
      <g>
       <use xlink:href="#m3c8587327c" x="392.229778" y="320.4" style="fill: #a9a9a9; stroke: #a9a9a9; stroke-width: 0.8"/>
      </g>
     </g>
     <g id="text_4">
      <!-- 2022-09 -->
      <g style="fill: #a9a9a9" transform="translate(371.338371 334.998438) scale(0.1 -0.1)">
       <use xlink:href="#DejaVuSans-32"/>
       <use xlink:href="#DejaVuSans-30" x="63.623047"/>
       <use xlink:href="#DejaVuSans-32" x="127.246094"/>
       <use xlink:href="#DejaVuSans-32" x="190.869141"/>
       <use xlink:href="#DejaVuSans-2d" x="254.492188"/>
       <use xlink:href="#DejaVuSans-30" x="290.576172"/>
       <use xlink:href="#DejaVuSans-39" x="354.199219"/>
      </g>
     </g>
    </g>
    <g id="xtick_5">
     <g id="line2d_9">
      <path d="M 468.870363 320.4 
L 468.870363 43.2 
" clip-path="url(#p3ac7a94734)" style="fill: none; stroke-dasharray: 5.12,1.28,0.8,1.28; stroke-dashoffset: 0; stroke: #b0b0b0; stroke-width: 0.8"/>
     </g>
     <g id="line2d_10">
      <g>
       <use xlink:href="#m3c8587327c" x="468.870363" y="320.4" style="fill: #a9a9a9; stroke: #a9a9a9; stroke-width: 0.8"/>
      </g>
     </g>
     <g id="text_5">
      <!-- 2023-01 -->
      <g style="fill: #a9a9a9" transform="translate(447.978957 334.998438) scale(0.1 -0.1)">
       <defs>
        <path id="DejaVuSans-33" d="M 2597 2516 
Q 3050 2419 3304 2112 
Q 3559 1806 3559 1356 
Q 3559 666 3084 287 
Q 2609 -91 1734 -91 
Q 1441 -91 1130 -33 
Q 819 25 488 141 
L 488 750 
Q 750 597 1062 519 
Q 1375 441 1716 441 
Q 2309 441 2620 675 
Q 2931 909 2931 1356 
Q 2931 1769 2642 2001 
Q 2353 2234 1838 2234 
L 1294 2234 
L 1294 2753 
L 1863 2753 
Q 2328 2753 2575 2939 
Q 2822 3125 2822 3475 
Q 2822 3834 2567 4026 
Q 2313 4219 1838 4219 
Q 1578 4219 1281 4162 
Q 984 4106 628 3988 
L 628 4550 
Q 988 4650 1302 4700 
Q 1616 4750 1894 4750 
Q 2613 4750 3031 4423 
Q 3450 4097 3450 3541 
Q 3450 3153 3228 2886 
Q 3006 2619 2597 2516 
z
" transform="scale(0.015625)"/>
       </defs>
       <use xlink:href="#DejaVuSans-32"/>
       <use xlink:href="#DejaVuSans-30" x="63.623047"/>
       <use xlink:href="#DejaVuSans-32" x="127.246094"/>
       <use xlink:href="#DejaVuSans-33" x="190.869141"/>
       <use xlink:href="#DejaVuSans-2d" x="254.492188"/>
       <use xlink:href="#DejaVuSans-30" x="290.576172"/>
       <use xlink:href="#DejaVuSans-31" x="354.199219"/>
      </g>
     </g>
    </g>
    <g id="xtick_6">
     <g id="line2d_11">
      <path d="M 544.254545 320.4 
L 544.254545 43.2 
" clip-path="url(#p3ac7a94734)" style="fill: none; stroke-dasharray: 5.12,1.28,0.8,1.28; stroke-dashoffset: 0; stroke: #b0b0b0; stroke-width: 0.8"/>
     </g>
     <g id="line2d_12">
      <g>
       <use xlink:href="#m3c8587327c" x="544.254545" y="320.4" style="fill: #a9a9a9; stroke: #a9a9a9; stroke-width: 0.8"/>
      </g>
     </g>
     <g id="text_6">
      <!-- 2023-05 -->
      <g style="fill: #a9a9a9" transform="translate(523.363139 334.998438) scale(0.1 -0.1)">
       <use xlink:href="#DejaVuSans-32"/>
       <use xlink:href="#DejaVuSans-30" x="63.623047"/>
       <use xlink:href="#DejaVuSans-32" x="127.246094"/>
       <use xlink:href="#DejaVuSans-33" x="190.869141"/>
       <use xlink:href="#DejaVuSans-2d" x="254.492188"/>
       <use xlink:href="#DejaVuSans-30" x="290.576172"/>
       <use xlink:href="#DejaVuSans-35" x="354.199219"/>
      </g>
     </g>
    </g>
    <g id="xtick_7">
     <g id="line2d_13">
      <path d="M 621.523332 320.4 
L 621.523332 43.2 
" clip-path="url(#p3ac7a94734)" style="fill: none; stroke-dasharray: 5.12,1.28,0.8,1.28; stroke-dashoffset: 0; stroke: #b0b0b0; stroke-width: 0.8"/>
     </g>
     <g id="line2d_14">
      <g>
       <use xlink:href="#m3c8587327c" x="621.523332" y="320.4" style="fill: #a9a9a9; stroke: #a9a9a9; stroke-width: 0.8"/>
      </g>
     </g>
     <g id="text_7">
      <!-- 2023-09 -->
      <g style="fill: #a9a9a9" transform="translate(600.631926 334.998438) scale(0.1 -0.1)">
       <use xlink:href="#DejaVuSans-32"/>
       <use xlink:href="#DejaVuSans-30" x="63.623047"/>
       <use xlink:href="#DejaVuSans-32" x="127.246094"/>
       <use xlink:href="#DejaVuSans-33" x="190.869141"/>
       <use xlink:href="#DejaVuSans-2d" x="254.492188"/>
       <use xlink:href="#DejaVuSans-30" x="290.576172"/>
       <use xlink:href="#DejaVuSans-39" x="354.199219"/>
      </g>
     </g>
    </g>
    <g id="xtick_8">
     <g id="line2d_15">
      <path d="M 698.163918 320.4 
L 698.163918 43.2 
" clip-path="url(#p3ac7a94734)" style="fill: none; stroke-dasharray: 5.12,1.28,0.8,1.28; stroke-dashoffset: 0; stroke: #b0b0b0; stroke-width: 0.8"/>
     </g>
     <g id="line2d_16">
      <g>
       <use xlink:href="#m3c8587327c" x="698.163918" y="320.4" style="fill: #a9a9a9; stroke: #a9a9a9; stroke-width: 0.8"/>
      </g>
     </g>
     <g id="text_8">
      <!-- 2024-01 -->
      <g style="fill: #a9a9a9" transform="translate(677.272512 334.998438) scale(0.1 -0.1)">
       <defs>
        <path id="DejaVuSans-34" d="M 2419 4116 
L 825 1625 
L 2419 1625 
L 2419 4116 
z
M 2253 4666 
L 3047 4666 
L 3047 1625 
L 3713 1625 
L 3713 1100 
L 3047 1100 
L 3047 0 
L 2419 0 
L 2419 1100 
L 313 1100 
L 313 1709 
L 2253 4666 
z
" transform="scale(0.015625)"/>
       </defs>
       <use xlink:href="#DejaVuSans-32"/>
       <use xlink:href="#DejaVuSans-30" x="63.623047"/>
       <use xlink:href="#DejaVuSans-32" x="127.246094"/>
       <use xlink:href="#DejaVuSans-34" x="190.869141"/>
       <use xlink:href="#DejaVuSans-2d" x="254.492188"/>
       <use xlink:href="#DejaVuSans-30" x="290.576172"/>
       <use xlink:href="#DejaVuSans-31" x="354.199219"/>
      </g>
     </g>
    </g>
    <g id="xtick_9">
     <g id="line2d_17">
      <path d="M 774.176302 320.4 
L 774.176302 43.2 
" clip-path="url(#p3ac7a94734)" style="fill: none; stroke-dasharray: 5.12,1.28,0.8,1.28; stroke-dashoffset: 0; stroke: #b0b0b0; stroke-width: 0.8"/>
     </g>
     <g id="line2d_18">
      <g>
       <use xlink:href="#m3c8587327c" x="774.176302" y="320.4" style="fill: #a9a9a9; stroke: #a9a9a9; stroke-width: 0.8"/>
      </g>
     </g>
     <g id="text_9">
      <!-- 2024-05 -->
      <g style="fill: #a9a9a9" transform="translate(753.284895 334.998438) scale(0.1 -0.1)">
       <use xlink:href="#DejaVuSans-32"/>
       <use xlink:href="#DejaVuSans-30" x="63.623047"/>
       <use xlink:href="#DejaVuSans-32" x="127.246094"/>
       <use xlink:href="#DejaVuSans-34" x="190.869141"/>
       <use xlink:href="#DejaVuSans-2d" x="254.492188"/>
       <use xlink:href="#DejaVuSans-30" x="290.576172"/>
       <use xlink:href="#DejaVuSans-35" x="354.199219"/>
      </g>
     </g>
    </g>
   </g>
   <g id="matplotlib.axis_2">
    <g id="ytick_1">
     <g id="line2d_19">
      <path d="M 108 307.843584 
L 777.6 307.843584 
" clip-path="url(#p3ac7a94734)" style="fill: none; stroke-dasharray: 5.12,1.28,0.8,1.28; stroke-dashoffset: 0; stroke: #b0b0b0; stroke-width: 0.8"/>
     </g>
     <g id="line2d_20">
      <defs>
       <path id="m28db24e048" d="M 0 0 
L -3.5 0 
" style="stroke: #a9a9a9; stroke-width: 0.8"/>
      </defs>
      <g>
       <use xlink:href="#m28db24e048" x="108" y="307.843584" style="fill: #a9a9a9; stroke: #a9a9a9; stroke-width: 0.8"/>
      </g>
     </g>
     <g id="text_10">
      <!-- 0 -->
      <g style="fill: #a9a9a9" transform="translate(94.6375 311.642802) scale(0.1 -0.1)">
       <use xlink:href="#DejaVuSans-30"/>
      </g>
     </g>
    </g>
    <g id="ytick_2">
     <g id="line2d_21">
      <path d="M 108 272.976755 
L 777.6 272.976755 
" clip-path="url(#p3ac7a94734)" style="fill: none; stroke-dasharray: 5.12,1.28,0.8,1.28; stroke-dashoffset: 0; stroke: #b0b0b0; stroke-width: 0.8"/>
     </g>
     <g id="line2d_22">
      <g>
       <use xlink:href="#m28db24e048" x="108" y="272.976755" style="fill: #a9a9a9; stroke: #a9a9a9; stroke-width: 0.8"/>
      </g>
     </g>
     <g id="text_11">
      <!-- 800 -->
      <g style="fill: #a9a9a9" transform="translate(81.9125 276.775974) scale(0.1 -0.1)">
       <defs>
        <path id="DejaVuSans-38" d="M 2034 2216 
Q 1584 2216 1326 1975 
Q 1069 1734 1069 1313 
Q 1069 891 1326 650 
Q 1584 409 2034 409 
Q 2484 409 2743 651 
Q 3003 894 3003 1313 
Q 3003 1734 2745 1975 
Q 2488 2216 2034 2216 
z
M 1403 2484 
Q 997 2584 770 2862 
Q 544 3141 544 3541 
Q 544 4100 942 4425 
Q 1341 4750 2034 4750 
Q 2731 4750 3128 4425 
Q 3525 4100 3525 3541 
Q 3525 3141 3298 2862 
Q 3072 2584 2669 2484 
Q 3125 2378 3379 2068 
Q 3634 1759 3634 1313 
Q 3634 634 3220 271 
Q 2806 -91 2034 -91 
Q 1263 -91 848 271 
Q 434 634 434 1313 
Q 434 1759 690 2068 
Q 947 2378 1403 2484 
z
M 1172 3481 
Q 1172 3119 1398 2916 
Q 1625 2713 2034 2713 
Q 2441 2713 2670 2916 
Q 2900 3119 2900 3481 
Q 2900 3844 2670 4047 
Q 2441 4250 2034 4250 
Q 1625 4250 1398 4047 
Q 1172 3844 1172 3481 
z
" transform="scale(0.015625)"/>
       </defs>
       <use xlink:href="#DejaVuSans-38"/>
       <use xlink:href="#DejaVuSans-30" x="63.623047"/>
       <use xlink:href="#DejaVuSans-30" x="127.246094"/>
      </g>
     </g>
    </g>
    <g id="ytick_3">
     <g id="line2d_23">
      <path d="M 108 238.109927 
L 777.6 238.109927 
" clip-path="url(#p3ac7a94734)" style="fill: none; stroke-dasharray: 5.12,1.28,0.8,1.28; stroke-dashoffset: 0; stroke: #b0b0b0; stroke-width: 0.8"/>
     </g>
     <g id="line2d_24">
      <g>
       <use xlink:href="#m28db24e048" x="108" y="238.109927" style="fill: #a9a9a9; stroke: #a9a9a9; stroke-width: 0.8"/>
      </g>
     </g>
     <g id="text_12">
      <!-- 1600 -->
      <g style="fill: #a9a9a9" transform="translate(75.55 241.909146) scale(0.1 -0.1)">
       <defs>
        <path id="DejaVuSans-36" d="M 2113 2584 
Q 1688 2584 1439 2293 
Q 1191 2003 1191 1497 
Q 1191 994 1439 701 
Q 1688 409 2113 409 
Q 2538 409 2786 701 
Q 3034 994 3034 1497 
Q 3034 2003 2786 2293 
Q 2538 2584 2113 2584 
z
M 3366 4563 
L 3366 3988 
Q 3128 4100 2886 4159 
Q 2644 4219 2406 4219 
Q 1781 4219 1451 3797 
Q 1122 3375 1075 2522 
Q 1259 2794 1537 2939 
Q 1816 3084 2150 3084 
Q 2853 3084 3261 2657 
Q 3669 2231 3669 1497 
Q 3669 778 3244 343 
Q 2819 -91 2113 -91 
Q 1303 -91 875 529 
Q 447 1150 447 2328 
Q 447 3434 972 4092 
Q 1497 4750 2381 4750 
Q 2619 4750 2861 4703 
Q 3103 4656 3366 4563 
z
" transform="scale(0.015625)"/>
       </defs>
       <use xlink:href="#DejaVuSans-31"/>
       <use xlink:href="#DejaVuSans-36" x="63.623047"/>
       <use xlink:href="#DejaVuSans-30" x="127.246094"/>
       <use xlink:href="#DejaVuSans-30" x="190.869141"/>
      </g>
     </g>
    </g>
    <g id="ytick_4">
     <g id="line2d_25">
      <path d="M 108 203.243099 
L 777.6 203.243099 
" clip-path="url(#p3ac7a94734)" style="fill: none; stroke-dasharray: 5.12,1.28,0.8,1.28; stroke-dashoffset: 0; stroke: #b0b0b0; stroke-width: 0.8"/>
     </g>
     <g id="line2d_26">
      <g>
       <use xlink:href="#m28db24e048" x="108" y="203.243099" style="fill: #a9a9a9; stroke: #a9a9a9; stroke-width: 0.8"/>
      </g>
     </g>
     <g id="text_13">
      <!-- 2400 -->
      <g style="fill: #a9a9a9" transform="translate(75.55 207.042318) scale(0.1 -0.1)">
       <use xlink:href="#DejaVuSans-32"/>
       <use xlink:href="#DejaVuSans-34" x="63.623047"/>
       <use xlink:href="#DejaVuSans-30" x="127.246094"/>
       <use xlink:href="#DejaVuSans-30" x="190.869141"/>
      </g>
     </g>
    </g>
    <g id="ytick_5">
     <g id="line2d_27">
      <path d="M 108 168.376271 
L 777.6 168.376271 
" clip-path="url(#p3ac7a94734)" style="fill: none; stroke-dasharray: 5.12,1.28,0.8,1.28; stroke-dashoffset: 0; stroke: #b0b0b0; stroke-width: 0.8"/>
     </g>
     <g id="line2d_28">
      <g>
       <use xlink:href="#m28db24e048" x="108" y="168.376271" style="fill: #a9a9a9; stroke: #a9a9a9; stroke-width: 0.8"/>
      </g>
     </g>
     <g id="text_14">
      <!-- 3200 -->
      <g style="fill: #a9a9a9" transform="translate(75.55 172.17549) scale(0.1 -0.1)">
       <use xlink:href="#DejaVuSans-33"/>
       <use xlink:href="#DejaVuSans-32" x="63.623047"/>
       <use xlink:href="#DejaVuSans-30" x="127.246094"/>
       <use xlink:href="#DejaVuSans-30" x="190.869141"/>
      </g>
     </g>
    </g>
    <g id="ytick_6">
     <g id="line2d_29">
      <path d="M 108 133.509443 
L 777.6 133.509443 
" clip-path="url(#p3ac7a94734)" style="fill: none; stroke-dasharray: 5.12,1.28,0.8,1.28; stroke-dashoffset: 0; stroke: #b0b0b0; stroke-width: 0.8"/>
     </g>
     <g id="line2d_30">
      <g>
       <use xlink:href="#m28db24e048" x="108" y="133.509443" style="fill: #a9a9a9; stroke: #a9a9a9; stroke-width: 0.8"/>
      </g>
     </g>
     <g id="text_15">
      <!-- 4000 -->
      <g style="fill: #a9a9a9" transform="translate(75.55 137.308662) scale(0.1 -0.1)">
       <use xlink:href="#DejaVuSans-34"/>
       <use xlink:href="#DejaVuSans-30" x="63.623047"/>
       <use xlink:href="#DejaVuSans-30" x="127.246094"/>
       <use xlink:href="#DejaVuSans-30" x="190.869141"/>
      </g>
     </g>
    </g>
    <g id="ytick_7">
     <g id="line2d_31">
      <path d="M 108 98.642615 
L 777.6 98.642615 
" clip-path="url(#p3ac7a94734)" style="fill: none; stroke-dasharray: 5.12,1.28,0.8,1.28; stroke-dashoffset: 0; stroke: #b0b0b0; stroke-width: 0.8"/>
     </g>
     <g id="line2d_32">
      <g>
       <use xlink:href="#m28db24e048" x="108" y="98.642615" style="fill: #a9a9a9; stroke: #a9a9a9; stroke-width: 0.8"/>
      </g>
     </g>
     <g id="text_16">
      <!-- 4800 -->
      <g style="fill: #a9a9a9" transform="translate(75.55 102.441834) scale(0.1 -0.1)">
       <use xlink:href="#DejaVuSans-34"/>
       <use xlink:href="#DejaVuSans-38" x="63.623047"/>
       <use xlink:href="#DejaVuSans-30" x="127.246094"/>
       <use xlink:href="#DejaVuSans-30" x="190.869141"/>
      </g>
     </g>
    </g>
    <g id="ytick_8">
     <g id="line2d_33">
      <path d="M 108 63.775787 
L 777.6 63.775787 
" clip-path="url(#p3ac7a94734)" style="fill: none; stroke-dasharray: 5.12,1.28,0.8,1.28; stroke-dashoffset: 0; stroke: #b0b0b0; stroke-width: 0.8"/>
     </g>
     <g id="line2d_34">
      <g>
       <use xlink:href="#m28db24e048" x="108" y="63.775787" style="fill: #a9a9a9; stroke: #a9a9a9; stroke-width: 0.8"/>
      </g>
     </g>
     <g id="text_17">
      <!-- 5600 -->
      <g style="fill: #a9a9a9" transform="translate(75.55 67.575006) scale(0.1 -0.1)">
       <use xlink:href="#DejaVuSans-35"/>
       <use xlink:href="#DejaVuSans-36" x="63.623047"/>
       <use xlink:href="#DejaVuSans-30" x="127.246094"/>
       <use xlink:href="#DejaVuSans-30" x="190.869141"/>
      </g>
     </g>
    </g>
   </g>
   <g id="line2d_35">
    <path d="M 138.436364 307.712833 
L 142.205573 307.407748 
L 142.833774 307.146247 
L 144.718379 306.928329 
L 148.487588 306.187409 
L 152.256797 305.882324 
L 152.884999 305.57724 
L 153.5132 305.402906 
L 154.141402 304.618402 
L 154.769603 304.182567 
L 155.397805 302.831477 
L 156.026006 302.74431 
L 156.654208 302.264891 
L 157.910611 301.654722 
L 160.423417 299.737046 
L 161.67982 299.214044 
L 162.308021 298.778208 
L 164.820827 297.68862 
L 165.449029 296.729782 
L 166.705432 295.814528 
L 167.333634 295.509443 
L 173.615649 294.637772 
L 174.24385 294.332688 
L 178.641261 293.984019 
L 180.525865 293.5046 
L 186.179679 292.76368 
L 186.807881 292.415012 
L 187.436082 292.327845 
L 188.064284 292.066344 
L 189.320687 291.848426 
L 189.948888 291.804843 
L 191.205291 291.543341 
L 191.833493 291.499758 
L 194.346299 290.889588 
L 196.230903 290.715254 
L 197.487307 290.584504 
L 198.115508 290.410169 
L 198.74371 290.366586 
L 200.628314 289.8 
L 204.397523 289.233414 
L 205.025725 289.05908 
L 205.653926 288.187409 
L 207.538531 287.490073 
L 209.423135 286.96707 
L 210.051337 286.661985 
L 210.679538 286.618402 
L 213.820546 285.746731 
L 215.076949 285.659564 
L 215.705151 285.572397 
L 217.589755 285.005811 
L 220.102561 284.395642 
L 220.730763 284.13414 
L 221.358964 284.046973 
L 221.987166 283.741889 
L 228.269181 282.783051 
L 231.410189 281.91138 
L 232.03839 281.519128 
L 234.551196 280.865375 
L 235.807599 280.124455 
L 236.435801 279.68862 
L 238.320405 279.339952 
L 242.089614 278.20678 
L 243.346017 277.814528 
L 243.974219 277.727361 
L 245.230622 277.378692 
L 246.487025 277.073608 
L 247.115227 276.986441 
L 248.37163 276.463438 
L 248.999831 276.332688 
L 249.628033 276.071186 
L 250.256234 275.984019 
L 250.884436 275.678935 
L 251.512637 275.5046 
L 252.76904 275.417433 
L 254.025443 274.981598 
L 255.281846 274.894431 
L 255.910048 274.589346 
L 258.422854 274.153511 
L 260.93566 273.935593 
L 261.563862 273.804843 
L 262.820265 273.194673 
L 269.730481 270.274576 
L 270.358683 269.925908 
L 270.986884 269.228571 
L 271.615086 268.182567 
L 272.243287 267.354479 
L 272.871489 267.180145 
L 273.49969 267.180145 
L 274.756093 266.264891 
L 275.384295 266.090557 
L 276.012496 265.741889 
L 276.640698 265.611138 
L 277.2689 265.044552 
L 277.897101 264.870218 
L 279.781706 263.954964 
L 281.038109 262.211622 
L 281.66631 261.81937 
L 282.294512 260.773366 
L 282.922713 260.119613 
L 283.550915 259.814528 
L 284.179116 259.640194 
L 286.691922 258.158354 
L 287.948325 257.155932 
L 288.576527 256.76368 
L 289.204728 255.848426 
L 289.83293 254.410169 
L 290.461131 253.494915 
L 291.089333 253.015496 
L 291.717534 252.753995 
L 294.230341 250.574818 
L 295.486744 249.572397 
L 296.114945 249.049395 
L 296.743147 248.221308 
L 297.99955 247.131719 
L 300.512356 245.519128 
L 301.140557 244.952542 
L 301.768759 244.821792 
L 302.39696 244.560291 
L 304.281565 243.514286 
L 305.537968 242.904116 
L 306.794371 241.727361 
L 307.422572 240.986441 
L 308.678976 240.11477 
L 309.307177 239.940436 
L 309.935379 239.635351 
L 311.191782 238.807264 
L 311.819983 238.458596 
L 312.448185 238.371429 
L 318.101998 234.971913 
L 318.7302 234.753995 
L 320.614804 233.533656 
L 322.499409 232.96707 
L 323.12761 232.531235 
L 323.755812 232.400484 
L 325.012215 231.964649 
L 326.89682 231.223729 
L 328.781424 230.526392 
L 330.037827 230.308475 
L 331.29423 229.218886 
L 332.550633 228.608717 
L 333.807036 227.91138 
L 334.435238 227.562712 
L 335.691641 227.214044 
L 336.319842 226.821792 
L 336.948044 226.647458 
L 338.832648 225.470702 
L 341.973656 224.729782 
L 343.858261 223.640194 
L 344.486462 223.553027 
L 345.114664 223.335109 
L 346.371067 223.073608 
L 348.255671 221.678935 
L 350.140276 221.243099 
L 350.768477 221.025182 
L 351.396679 220.545763 
L 355.165888 219.325424 
L 355.79409 219.28184 
L 356.422291 219.107506 
L 357.678694 218.584504 
L 362.076105 217.05908 
L 363.332508 216.884746 
L 363.960709 216.710412 
L 364.588911 216.405327 
L 365.217112 216.274576 
L 367.101717 215.402906 
L 368.986321 214.487651 
L 369.614523 214.051816 
L 370.242724 213.877482 
L 372.127329 212.875061 
L 373.383732 212.569976 
L 374.640135 211.916223 
L 375.896538 211.567554 
L 376.52474 211.480387 
L 377.781143 210.739467 
L 378.409344 210.608717 
L 379.665747 210.085714 
L 380.293949 209.954964 
L 380.92215 209.606295 
L 383.434956 209.214044 
L 384.691359 208.603874 
L 385.319561 208.080872 
L 385.947762 206.991283 
L 387.204165 206.729782 
L 387.832367 206.599031 
L 390.345173 205.291525 
L 390.973375 205.160775 
L 395.998987 202.76368 
L 397.883591 202.371429 
L 398.511793 202.02276 
L 402.281002 200.715254 
L 403.537405 199.930751 
L 404.793808 199.189831 
L 405.42201 199.102663 
L 406.050211 198.884746 
L 406.678413 198.841162 
L 409.81942 198.013075 
L 410.447622 197.533656 
L 411.704025 197.097821 
L 413.588629 196.487651 
L 414.216831 196.0954 
L 414.845032 195.921065 
L 415.473234 195.48523 
L 416.101435 195.223729 
L 417.357838 194.569976 
L 419.870645 193.785472 
L 420.498846 193.480387 
L 422.383451 192.042131 
L 423.011652 191.91138 
L 424.268055 190.952542 
L 424.896257 190.821792 
L 425.524458 189.862954 
L 426.15266 189.601453 
L 426.780861 189.122034 
L 427.409063 189.034867 
L 428.665466 188.293947 
L 429.293667 188.163196 
L 429.921869 187.901695 
L 430.55007 187.422276 
L 431.178272 187.204358 
L 433.062876 185.940436 
L 435.575683 184.676513 
L 436.203884 184.589346 
L 437.460287 184.02276 
L 438.088489 183.674092 
L 438.71669 182.628087 
L 439.344892 182.061501 
L 439.973093 181.712833 
L 440.601295 181.582082 
L 441.857698 180.797579 
L 442.485899 180.666828 
L 443.742302 180.056659 
L 445.626907 179.272155 
L 446.88331 178.400484 
L 448.139713 177.092978 
L 451.280721 174.826634 
L 452.537124 173.78063 
L 453.165325 173.519128 
L 453.793527 172.821792 
L 454.421728 172.342373 
L 455.678131 171.906538 
L 456.306333 171.383535 
L 457.562736 170.729782 
L 458.190937 170.555448 
L 458.819139 170.119613 
L 459.44734 169.988862 
L 461.331945 168.986441 
L 462.588348 168.245521 
L 468.870363 166.02276 
L 469.498565 165.456174 
L 471.383169 164.758838 
L 472.639572 164.366586 
L 473.267774 163.887167 
L 475.78058 162.579661 
L 476.408781 162.230993 
L 477.665184 159.790315 
L 478.921587 158.308475 
L 480.17799 157.567554 
L 482.062595 156.826634 
L 482.690797 156.739467 
L 483.318998 156.390799 
L 485.203603 155.824213 
L 487.716409 154.691041 
L 488.34461 154.298789 
L 489.601013 153.862954 
L 493.370222 151.683777 
L 493.998424 151.030024 
L 495.254827 150.376271 
L 495.883028 150.027603 
L 496.51123 149.809685 
L 497.139431 149.37385 
L 498.395835 148.76368 
L 500.280439 147.761259 
L 500.908641 147.586925 
L 501.536842 147.107506 
L 502.165044 146.846005 
L 502.793245 146.715254 
L 504.049648 146.279419 
L 505.934253 145.582082 
L 506.562454 145.146247 
L 507.818857 144.797579 
L 509.07526 144.31816 
L 509.703462 143.838741 
L 510.959865 143.446489 
L 511.588066 143.141404 
L 512.216268 142.96707 
L 513.472671 142.0954 
L 514.729074 141.528814 
L 515.985477 140.569976 
L 517.24188 140.13414 
L 517.870082 139.611138 
L 518.498283 139.523971 
L 519.754686 138.608717 
L 521.011089 137.998547 
L 521.639291 137.737046 
L 522.267492 137.126877 
L 526.036701 135.775787 
L 527.921306 134.9477 
L 529.80591 134.381114 
L 531.062314 134.20678 
L 531.690515 133.945278 
L 532.318717 133.858111 
L 533.57512 133.335109 
L 534.203321 133.291525 
L 536.716127 132.376271 
L 538.600732 131.068765 
L 539.228933 130.807264 
L 540.485336 130.153511 
L 541.113538 129.935593 
L 543.626344 128.453753 
L 544.254545 128.061501 
L 545.510948 127.756416 
L 547.395553 126.710412 
L 549.280158 126.100242 
L 549.908359 125.838741 
L 551.164762 125.533656 
L 554.30577 124.531235 
L 556.190374 124.182567 
L 558.70318 123.398063 
L 559.331382 123.136562 
L 559.959583 123.049395 
L 560.587785 122.74431 
L 561.844188 122.482809 
L 563.100591 122.046973 
L 563.728793 121.829056 
L 564.985196 121.698305 
L 566.241599 121.39322 
L 568.126203 121.088136 
L 568.754405 120.870218 
L 570.010808 120.739467 
L 575.664621 119.083293 
L 576.292823 118.865375 
L 576.921024 118.821792 
L 580.690234 117.68862 
L 581.946637 117.252785 
L 582.574838 117.165617 
L 584.459443 116.511864 
L 585.087644 116.511864 
L 586.344047 116.076029 
L 586.972249 115.46586 
L 587.60045 115.160775 
L 588.856853 114.768523 
L 591.369659 113.809685 
L 591.997861 113.678935 
L 592.626062 113.286683 
L 593.254264 113.155932 
L 593.882466 112.807264 
L 597.023473 111.89201 
L 597.651675 111.499758 
L 598.279876 111.369007 
L 598.908078 110.846005 
L 600.792682 110.497337 
L 602.049085 109.8 
L 602.677287 109.102663 
L 603.93369 108.841162 
L 608.3311 107.838741 
L 608.959302 107.664407 
L 610.215705 107.620823 
L 610.843907 107.315738 
L 613.356713 106.879903 
L 613.984914 106.574818 
L 615.869519 106.313317 
L 618.382325 105.528814 
L 620.266929 105.092978 
L 622.151534 104.613559 
L 624.66434 103.829056 
L 625.292542 103.698305 
L 625.920743 103.39322 
L 626.548945 103.306053 
L 627.177146 103.088136 
L 627.805348 102.739467 
L 629.689952 102.085714 
L 630.318154 101.606295 
L 631.574557 101.257627 
L 632.202758 100.996126 
L 633.459161 100.647458 
L 635.971967 99.514286 
L 637.856572 99.383535 
L 640.369378 98.599031 
L 640.99758 98.20678 
L 642.253983 97.858111 
L 644.138587 96.899274 
L 644.766789 96.768523 
L 645.39499 96.463438 
L 646.023192 96.419855 
L 652.933408 94.109927 
L 655.446214 93.499758 
L 656.074416 93.325424 
L 657.330819 92.758838 
L 657.959021 92.671671 
L 659.215424 92.323002 
L 659.843625 91.843584 
L 660.471827 91.538499 
L 661.100028 90.797579 
L 661.72823 90.361743 
L 662.984633 89.969492 
L 663.612834 89.446489 
L 670.523051 86.613559 
L 671.779454 86.308475 
L 673.664059 85.436804 
L 674.920462 84.695884 
L 675.548663 84.565133 
L 676.176865 84.085714 
L 677.433268 83.475545 
L 678.689671 82.691041 
L 680.574275 81.81937 
L 681.202477 81.383535 
L 682.45888 80.904116 
L 683.715283 80.163196 
L 684.343484 79.858111 
L 684.971686 79.422276 
L 686.228089 78.986441 
L 686.85629 78.85569 
L 689.369097 77.722518 
L 692.510104 76.63293 
L 693.138306 76.589346 
L 693.766507 76.415012 
L 694.394709 76.02276 
L 695.02291 75.935593 
L 695.651112 75.717676 
L 697.535716 75.369007 
L 700.676724 73.756416 
L 701.933127 73.05908 
L 702.561328 72.971913 
L 704.445933 71.969492 
L 706.330538 71.272155 
L 708.215142 70.444068 
L 710.727948 69.441646 
L 711.35615 69.267312 
L 711.984351 68.875061 
L 713.240754 68.700726 
L 713.868956 68.308475 
L 714.497157 68.264891 
L 715.75356 67.872639 
L 717.009963 67.26247 
L 717.638165 67.175303 
L 718.266366 66.913801 
L 718.894568 66.783051 
L 720.779173 65.954964 
L 721.407374 65.824213 
L 722.035576 65.562712 
L 725.176583 64.821792 
L 727.061188 64.080872 
L 729.573994 62.642615 
L 730.830397 62.163196 
L 731.458598 61.770944 
L 732.715001 61.509443 
L 733.343203 61.160775 
L 733.971404 61.030024 
L 735.227807 60.332688 
L 738.997017 58.589346 
L 742.766226 57.28184 
L 744.022629 56.628087 
L 745.279032 56.235835 
L 745.907233 56.105085 
L 746.535435 55.8 
L 747.163636 55.8 
L 747.163636 55.8 
" clip-path="url(#p3ac7a94734)" style="fill: none; stroke: #1f77b4; stroke-width: 1.5; stroke-linecap: square"/>
   </g>
   <g id="line2d_36">
    <path d="M 139.064565 307.8 
L 140.94917 307.712833 
L 142.833774 307.669249 
L 146.602983 307.582082 
L 149.743991 307.451332 
L 152.256797 307.451332 
L 152.884999 307.276998 
L 155.397805 307.189831 
L 157.282409 306.971913 
L 159.167014 306.797579 
L 162.936223 306.623245 
L 163.564424 306.623245 
L 164.192626 306.492494 
L 166.705432 306.405327 
L 167.961835 306.31816 
L 172.987447 306.230993 
L 176.128455 306.100242 
L 183.666873 306.013075 
L 186.807881 305.882324 
L 190.57709 305.795157 
L 193.089896 305.70799 
L 198.74371 305.620823 
L 200.628314 305.57724 
L 202.512919 305.533656 
L 204.397523 305.315738 
L 208.166732 305.272155 
L 209.423135 305.184988 
L 213.820546 305.097821 
L 220.730763 304.705569 
L 225.128173 304.618402 
L 226.384576 304.531235 
L 228.269181 304.444068 
L 232.03839 304.269734 
L 234.551196 304.22615 
L 236.435801 304.051816 
L 246.487025 303.441646 
L 248.999831 303.354479 
L 253.397242 303.136562 
L 255.281846 303.049395 
L 261.563862 302.700726 
L 268.474078 302.613559 
L 270.986884 302.352058 
L 272.243287 302.264891 
L 280.409907 301.611138 
L 284.179116 301.131719 
L 286.691922 301.044552 
L 291.717534 300.390799 
L 294.858542 300.303632 
L 303.025162 299.649879 
L 306.166169 299.301211 
L 308.678976 299.214044 
L 309.935379 299.126877 
L 312.448185 299.039709 
L 313.704588 298.952542 
L 316.845595 298.647458 
L 317.473797 298.473123 
L 321.243006 298.298789 
L 324.384014 298.211622 
L 332.550633 297.732203 
L 334.435238 297.645036 
L 342.601858 297.165617 
L 346.999268 297.07845 
L 347.62747 296.9477 
L 352.653082 296.860533 
L 357.050493 296.642615 
L 363.960709 296.555448 
L 368.35812 296.33753 
L 373.383732 296.250363 
L 378.409344 295.988862 
L 382.806755 295.901695 
L 394.742584 295.160775 
L 399.768196 295.073608 
L 416.101435 294.027603 
L 419.870645 293.940436 
L 421.755249 293.896852 
L 423.639854 293.853269 
L 425.524458 293.678935 
L 430.55007 293.591768 
L 431.806473 293.37385 
L 433.062876 293.286683 
L 436.203884 293.155932 
L 437.460287 293.068765 
L 438.71669 292.981598 
L 444.370504 292.894431 
L 445.626907 292.76368 
L 448.139713 292.720097 
L 448.767914 292.589346 
L 450.024317 292.502179 
L 450.652519 292.371429 
L 452.537124 292.284262 
L 463.216549 291.630508 
L 465.101154 291.543341 
L 468.242162 291.412591 
L 477.036983 291.325424 
L 481.434393 291.107506 
L 486.460006 291.020339 
L 488.972812 290.933172 
L 491.485618 290.889588 
L 492.742021 290.758838 
L 495.254827 290.671671 
L 501.536842 290.323002 
L 505.306051 290.279419 
L 507.190656 290.105085 
L 509.07526 290.061501 
L 513.472671 289.974334 
L 515.985477 289.887167 
L 523.523895 289.8 
L 526.664903 289.669249 
L 530.434112 289.582082 
L 532.318717 289.364165 
L 536.087926 289.320581 
L 537.97253 289.146247 
L 540.485336 289.05908 
L 548.023755 288.971913 
L 551.164762 288.841162 
L 561.844188 288.797579 
L 563.100591 288.710412 
L 564.985196 288.666828 
L 573.151815 288.579661 
L 574.408218 288.492494 
L 581.318435 288.405327 
L 583.831241 288.31816 
L 591.369659 288.274576 
L 592.626062 288.187409 
L 602.049085 288.143826 
L 603.93369 287.969492 
L 614.613116 287.882324 
L 616.49772 287.838741 
L 632.83096 287.751574 
L 634.715564 287.70799 
L 646.651393 287.620823 
L 649.164199 287.533656 
L 653.56161 287.446489 
L 658.587222 287.184988 
L 661.100028 287.097821 
L 663.612834 287.010654 
L 667.382043 286.923487 
L 669.266648 286.879903 
L 671.779454 286.792736 
L 673.664059 286.749153 
L 676.805066 286.661985 
L 678.061469 286.574818 
L 681.830678 286.487651 
L 684.971686 286.356901 
L 686.228089 286.313317 
L 688.112693 286.138983 
L 691.881903 286.051816 
L 694.394709 285.964649 
L 700.676724 285.877482 
L 703.817731 285.746731 
L 710.099747 285.659564 
L 714.497157 285.441646 
L 720.150971 285.354479 
L 721.407374 285.267312 
L 728.945792 285.180145 
L 730.830397 285.136562 
L 737.740614 285.049395 
L 740.25342 284.787893 
L 742.138024 284.74431 
L 745.907233 284.657143 
L 747.163636 284.613559 
L 747.163636 284.613559 
" clip-path="url(#p3ac7a94734)" style="fill: none; stroke: #ff7f0e; stroke-width: 1.5; stroke-linecap: square"/>
   </g>
   <g id="patch_3">
    <path d="M 108 320.4 
L 108 43.2 
" style="fill: none; stroke: #a9a9a9; stroke-width: 0.8; stroke-linejoin: miter; stroke-linecap: square"/>
   </g>
   <g id="patch_4">
    <path d="M 777.6 320.4 
L 777.6 43.2 
" style="fill: none"/>
   </g>
   <g id="patch_5">
    <path d="M 108 320.4 
L 777.6 320.4 
" style="fill: none; stroke: #a9a9a9; stroke-width: 0.8; stroke-linejoin: miter; stroke-linecap: square"/>
   </g>
   <g id="patch_6">
    <path d="M 108 43.2 
L 777.6 43.2 
" style="fill: none"/>
   </g>
   <g id="text_18">
    <!-- get_subscribe history -->
    <g style="fill: #a9a9a9" transform="translate(378.6075 37.2) scale(0.12 -0.12)">
     <defs>
      <path id="DejaVuSans-67" d="M 2906 1791 
Q 2906 2416 2648 2759 
Q 2391 3103 1925 3103 
Q 1463 3103 1205 2759 
Q 947 2416 947 1791 
Q 947 1169 1205 825 
Q 1463 481 1925 481 
Q 2391 481 2648 825 
Q 2906 1169 2906 1791 
z
M 3481 434 
Q 3481 -459 3084 -895 
Q 2688 -1331 1869 -1331 
Q 1566 -1331 1297 -1286 
Q 1028 -1241 775 -1147 
L 775 -588 
Q 1028 -725 1275 -790 
Q 1522 -856 1778 -856 
Q 2344 -856 2625 -561 
Q 2906 -266 2906 331 
L 2906 616 
Q 2728 306 2450 153 
Q 2172 0 1784 0 
Q 1141 0 747 490 
Q 353 981 353 1791 
Q 353 2603 747 3093 
Q 1141 3584 1784 3584 
Q 2172 3584 2450 3431 
Q 2728 3278 2906 2969 
L 2906 3500 
L 3481 3500 
L 3481 434 
z
" transform="scale(0.015625)"/>
      <path id="DejaVuSans-65" d="M 3597 1894 
L 3597 1613 
L 953 1613 
Q 991 1019 1311 708 
Q 1631 397 2203 397 
Q 2534 397 2845 478 
Q 3156 559 3463 722 
L 3463 178 
Q 3153 47 2828 -22 
Q 2503 -91 2169 -91 
Q 1331 -91 842 396 
Q 353 884 353 1716 
Q 353 2575 817 3079 
Q 1281 3584 2069 3584 
Q 2775 3584 3186 3129 
Q 3597 2675 3597 1894 
z
M 3022 2063 
Q 3016 2534 2758 2815 
Q 2500 3097 2075 3097 
Q 1594 3097 1305 2825 
Q 1016 2553 972 2059 
L 3022 2063 
z
" transform="scale(0.015625)"/>
      <path id="DejaVuSans-74" d="M 1172 4494 
L 1172 3500 
L 2356 3500 
L 2356 3053 
L 1172 3053 
L 1172 1153 
Q 1172 725 1289 603 
Q 1406 481 1766 481 
L 2356 481 
L 2356 0 
L 1766 0 
Q 1100 0 847 248 
Q 594 497 594 1153 
L 594 3053 
L 172 3053 
L 172 3500 
L 594 3500 
L 594 4494 
L 1172 4494 
z
" transform="scale(0.015625)"/>
      <path id="DejaVuSans-5f" d="M 3263 -1063 
L 3263 -1509 
L -63 -1509 
L -63 -1063 
L 3263 -1063 
z
" transform="scale(0.015625)"/>
      <path id="DejaVuSans-73" d="M 2834 3397 
L 2834 2853 
Q 2591 2978 2328 3040 
Q 2066 3103 1784 3103 
Q 1356 3103 1142 2972 
Q 928 2841 928 2578 
Q 928 2378 1081 2264 
Q 1234 2150 1697 2047 
L 1894 2003 
Q 2506 1872 2764 1633 
Q 3022 1394 3022 966 
Q 3022 478 2636 193 
Q 2250 -91 1575 -91 
Q 1294 -91 989 -36 
Q 684 19 347 128 
L 347 722 
Q 666 556 975 473 
Q 1284 391 1588 391 
Q 1994 391 2212 530 
Q 2431 669 2431 922 
Q 2431 1156 2273 1281 
Q 2116 1406 1581 1522 
L 1381 1569 
Q 847 1681 609 1914 
Q 372 2147 372 2553 
Q 372 3047 722 3315 
Q 1072 3584 1716 3584 
Q 2034 3584 2315 3537 
Q 2597 3491 2834 3397 
z
" transform="scale(0.015625)"/>
      <path id="DejaVuSans-75" d="M 544 1381 
L 544 3500 
L 1119 3500 
L 1119 1403 
Q 1119 906 1312 657 
Q 1506 409 1894 409 
Q 2359 409 2629 706 
Q 2900 1003 2900 1516 
L 2900 3500 
L 3475 3500 
L 3475 0 
L 2900 0 
L 2900 538 
Q 2691 219 2414 64 
Q 2138 -91 1772 -91 
Q 1169 -91 856 284 
Q 544 659 544 1381 
z
M 1991 3584 
L 1991 3584 
z
" transform="scale(0.015625)"/>
      <path id="DejaVuSans-62" d="M 3116 1747 
Q 3116 2381 2855 2742 
Q 2594 3103 2138 3103 
Q 1681 3103 1420 2742 
Q 1159 2381 1159 1747 
Q 1159 1113 1420 752 
Q 1681 391 2138 391 
Q 2594 391 2855 752 
Q 3116 1113 3116 1747 
z
M 1159 2969 
Q 1341 3281 1617 3432 
Q 1894 3584 2278 3584 
Q 2916 3584 3314 3078 
Q 3713 2572 3713 1747 
Q 3713 922 3314 415 
Q 2916 -91 2278 -91 
Q 1894 -91 1617 61 
Q 1341 213 1159 525 
L 1159 0 
L 581 0 
L 581 4863 
L 1159 4863 
L 1159 2969 
z
" transform="scale(0.015625)"/>
      <path id="DejaVuSans-63" d="M 3122 3366 
L 3122 2828 
Q 2878 2963 2633 3030 
Q 2388 3097 2138 3097 
Q 1578 3097 1268 2742 
Q 959 2388 959 1747 
Q 959 1106 1268 751 
Q 1578 397 2138 397 
Q 2388 397 2633 464 
Q 2878 531 3122 666 
L 3122 134 
Q 2881 22 2623 -34 
Q 2366 -91 2075 -91 
Q 1284 -91 818 406 
Q 353 903 353 1747 
Q 353 2603 823 3093 
Q 1294 3584 2113 3584 
Q 2378 3584 2631 3529 
Q 2884 3475 3122 3366 
z
" transform="scale(0.015625)"/>
      <path id="DejaVuSans-72" d="M 2631 2963 
Q 2534 3019 2420 3045 
Q 2306 3072 2169 3072 
Q 1681 3072 1420 2755 
Q 1159 2438 1159 1844 
L 1159 0 
L 581 0 
L 581 3500 
L 1159 3500 
L 1159 2956 
Q 1341 3275 1631 3429 
Q 1922 3584 2338 3584 
Q 2397 3584 2469 3576 
Q 2541 3569 2628 3553 
L 2631 2963 
z
" transform="scale(0.015625)"/>
      <path id="DejaVuSans-69" d="M 603 3500 
L 1178 3500 
L 1178 0 
L 603 0 
L 603 3500 
z
M 603 4863 
L 1178 4863 
L 1178 4134 
L 603 4134 
L 603 4863 
z
" transform="scale(0.015625)"/>
      <path id="DejaVuSans-20" transform="scale(0.015625)"/>
      <path id="DejaVuSans-68" d="M 3513 2113 
L 3513 0 
L 2938 0 
L 2938 2094 
Q 2938 2591 2744 2837 
Q 2550 3084 2163 3084 
Q 1697 3084 1428 2787 
Q 1159 2491 1159 1978 
L 1159 0 
L 581 0 
L 581 4863 
L 1159 4863 
L 1159 2956 
Q 1366 3272 1645 3428 
Q 1925 3584 2291 3584 
Q 2894 3584 3203 3211 
Q 3513 2838 3513 2113 
z
" transform="scale(0.015625)"/>
      <path id="DejaVuSans-6f" d="M 1959 3097 
Q 1497 3097 1228 2736 
Q 959 2375 959 1747 
Q 959 1119 1226 758 
Q 1494 397 1959 397 
Q 2419 397 2687 759 
Q 2956 1122 2956 1747 
Q 2956 2369 2687 2733 
Q 2419 3097 1959 3097 
z
M 1959 3584 
Q 2709 3584 3137 3096 
Q 3566 2609 3566 1747 
Q 3566 888 3137 398 
Q 2709 -91 1959 -91 
Q 1206 -91 779 398 
Q 353 888 353 1747 
Q 353 2609 779 3096 
Q 1206 3584 1959 3584 
z
" transform="scale(0.015625)"/>
      <path id="DejaVuSans-79" d="M 2059 -325 
Q 1816 -950 1584 -1140 
Q 1353 -1331 966 -1331 
L 506 -1331 
L 506 -850 
L 844 -850 
Q 1081 -850 1212 -737 
Q 1344 -625 1503 -206 
L 1606 56 
L 191 3500 
L 800 3500 
L 1894 763 
L 2988 3500 
L 3597 3500 
L 2059 -325 
z
" transform="scale(0.015625)"/>
     </defs>
     <use xlink:href="#DejaVuSans-67"/>
     <use xlink:href="#DejaVuSans-65" x="63.476562"/>
     <use xlink:href="#DejaVuSans-74" x="125"/>
     <use xlink:href="#DejaVuSans-5f" x="164.208984"/>
     <use xlink:href="#DejaVuSans-73" x="214.208984"/>
     <use xlink:href="#DejaVuSans-75" x="266.308594"/>
     <use xlink:href="#DejaVuSans-62" x="329.6875"/>
     <use xlink:href="#DejaVuSans-73" x="393.164062"/>
     <use xlink:href="#DejaVuSans-63" x="445.263672"/>
     <use xlink:href="#DejaVuSans-72" x="500.244141"/>
     <use xlink:href="#DejaVuSans-69" x="541.357422"/>
     <use xlink:href="#DejaVuSans-62" x="569.140625"/>
     <use xlink:href="#DejaVuSans-65" x="632.617188"/>
     <use xlink:href="#DejaVuSans-20" x="694.140625"/>
     <use xlink:href="#DejaVuSans-68" x="725.927734"/>
     <use xlink:href="#DejaVuSans-69" x="789.306641"/>
     <use xlink:href="#DejaVuSans-73" x="817.089844"/>
     <use xlink:href="#DejaVuSans-74" x="869.189453"/>
     <use xlink:href="#DejaVuSans-6f" x="908.398438"/>
     <use xlink:href="#DejaVuSans-72" x="969.580078"/>
     <use xlink:href="#DejaVuSans-79" x="1010.693359"/>
    </g>
   </g>
   <g id="legend_1">
    <g id="line2d_37">
     <path d="M 815.08 328.498438 
L 825.08 328.498438 
L 835.08 328.498438 
" style="fill: none; stroke: #1f77b4; stroke-width: 1.5; stroke-linecap: square"/>
    </g>
    <g id="text_19">
     <!-- star -->
     <g style="fill: #a9a9a9" transform="translate(843.08 331.998438) scale(0.1 -0.1)">
      <defs>
       <path id="DejaVuSans-61" d="M 2194 1759 
Q 1497 1759 1228 1600 
Q 959 1441 959 1056 
Q 959 750 1161 570 
Q 1363 391 1709 391 
Q 2188 391 2477 730 
Q 2766 1069 2766 1631 
L 2766 1759 
L 2194 1759 
z
M 3341 1997 
L 3341 0 
L 2766 0 
L 2766 531 
Q 2569 213 2275 61 
Q 1981 -91 1556 -91 
Q 1019 -91 701 211 
Q 384 513 384 1019 
Q 384 1609 779 1909 
Q 1175 2209 1959 2209 
L 2766 2209 
L 2766 2266 
Q 2766 2663 2505 2880 
Q 2244 3097 1772 3097 
Q 1472 3097 1187 3025 
Q 903 2953 641 2809 
L 641 3341 
Q 956 3463 1253 3523 
Q 1550 3584 1831 3584 
Q 2591 3584 2966 3190 
Q 3341 2797 3341 1997 
z
" transform="scale(0.015625)"/>
      </defs>
      <use xlink:href="#DejaVuSans-73"/>
      <use xlink:href="#DejaVuSans-74" x="52.099609"/>
      <use xlink:href="#DejaVuSans-61" x="91.308594"/>
      <use xlink:href="#DejaVuSans-72" x="152.587891"/>
     </g>
    </g>
    <g id="line2d_38">
     <path d="M 815.08 343.176562 
L 825.08 343.176562 
L 835.08 343.176562 
" style="fill: none; stroke: #ff7f0e; stroke-width: 1.5; stroke-linecap: square"/>
    </g>
    <g id="text_20">
     <!-- fork -->
     <g style="fill: #a9a9a9" transform="translate(843.08 346.676562) scale(0.1 -0.1)">
      <defs>
       <path id="DejaVuSans-66" d="M 2375 4863 
L 2375 4384 
L 1825 4384 
Q 1516 4384 1395 4259 
Q 1275 4134 1275 3809 
L 1275 3500 
L 2222 3500 
L 2222 3053 
L 1275 3053 
L 1275 0 
L 697 0 
L 697 3053 
L 147 3053 
L 147 3500 
L 697 3500 
L 697 3744 
Q 697 4328 969 4595 
Q 1241 4863 1831 4863 
L 2375 4863 
z
" transform="scale(0.015625)"/>
       <path id="DejaVuSans-6b" d="M 581 4863 
L 1159 4863 
L 1159 1991 
L 2875 3500 
L 3609 3500 
L 1753 1863 
L 3688 0 
L 2938 0 
L 1159 1709 
L 1159 0 
L 581 0 
L 581 4863 
z
" transform="scale(0.015625)"/>
      </defs>
      <use xlink:href="#DejaVuSans-66"/>
      <use xlink:href="#DejaVuSans-6f" x="35.205078"/>
      <use xlink:href="#DejaVuSans-72" x="96.386719"/>
      <use xlink:href="#DejaVuSans-6b" x="137.5"/>
     </g>
    </g>
   </g>
  </g>
 </g>
 <defs>
  <clipPath id="p3ac7a94734">
   <rect x="108" y="43.2" width="669.6" height="277.2"/>
  </clipPath>
 </defs>
</svg>
